<?xml version="1.0" encoding="utf-8"?>
<!-- Generator: Adobe Illustrator 28.0.0, SVG Export Plug-In . SVG Version: 6.00 Build 0)  -->
<svg version="1.1" id="Layer_1" xmlns="http://www.w3.org/2000/svg" xmlns:xlink="http://www.w3.org/1999/xlink" x="0px" y="0px"
	 viewBox="0 0 289.9631 250.4607" style="enable-background:new 0 0 289.9631 250.4607;" xml:space="preserve">
<style type="text/css">
	.st0{fill:#FFFFFF;stroke:#000000;stroke-miterlimit:10;}
	.st1{fill:#FFFFFF;stroke:#0068FF;stroke-miterlimit:10;}
</style>
<path class="st0" d="M229.7702,17.999"/>
<path class="st1" d="M216.5542,13.2149c0,0-62.0479-6.149-102.5817,5.7631S65.9197,55.8307,52.9818,85.73
	s-15.2766,72.8951-15.2766,72.8951s-2.9684,31.3648,41.0112,58.6781s69.8104,24.4647,69.8104,24.4647s16.3991-0.5114,29.9539-6.4998
	c13.5548-5.9884,55.0265-28.2081,69.2271-48.4567s29.6999-36.9202,24.0123-72.0153s-5.0145-27.0369-9.1862-49.6273
	s-17.1997-34.3126-17.1997-34.3126S239.4486,20.1684,216.5542,13.2149z"/>
<circle class="st0" cx="221.0453" cy="46.9865" r="14.315"/>
<circle class="st0" cx="62.9156" cy="183.2537" r="4.4646"/>
<circle class="st0" cx="221.0453" cy="46.9865" r="9.3543"/>
</svg>
