<?xml version="1.0" encoding="utf-8"?>
<!-- Generator: Adobe Illustrator 28.0.0, SVG Export Plug-In . SVG Version: 6.00 Build 0)  -->
<svg version="1.1" id="Layer_1" xmlns="http://www.w3.org/2000/svg" xmlns:xlink="http://www.w3.org/1999/xlink" x="0px" y="0px"
	 viewBox="0 0 289.9631 250.4607" style="enable-background:new 0 0 289.9631 250.4607;" xml:space="preserve">
<style type="text/css">
	.st0{fill:#FFFFFF;stroke:#0068FF;stroke-miterlimit:10;}
	.st1{fill:#7F7F7F;stroke:#000000;stroke-miterlimit:10;}
	.st2{fill:#7F7F7F;stroke:#000000;stroke-width:1;stroke-miterlimit:9.9997;}
	.st3{fill:#FFFFFF;stroke:#000000;stroke-miterlimit:10;}
</style>
<path class="st0" d="M45.6658,30.8562c0,0-13.028,11.7222-17.1997,34.3126s-3.4986,14.5322-9.1862,49.6273
	s9.8117,51.7667,24.0123,72.0153s55.6723,42.4683,69.2271,48.4567s29.9539,6.4998,29.9539,6.4998s25.8308,2.8486,69.8104-24.4647
	s41.0112-58.6781,41.0112-58.6781s-2.3387-42.9958-15.2766-72.8951s-20.4569-54.8399-60.9907-66.752
	S74.4458,13.2149,74.4458,13.2149C51.5514,20.1684,45.6658,30.8562,45.6658,30.8562z"/>
<circle class="st1" cx="69.9547" cy="46.9865" r="17.1496"/>
<ellipse transform="matrix(0.7889 -0.6145 0.6145 0.7889 -50.2725 113.5813)" class="st2" cx="140.1884" cy="129.9654" rx="94.9573" ry="82.0788"/>
<circle class="st3" cx="228.0844" cy="183.2537" r="4.4646"/>
</svg>
