<?xml version="1.0" encoding="utf-8"?>
<!-- Generator: Adobe Illustrator 28.0.0, SVG Export Plug-In . SVG Version: 6.00 Build 0)  -->
<svg version="1.1" id="Layer_1" xmlns="http://www.w3.org/2000/svg" xmlns:xlink="http://www.w3.org/1999/xlink" x="0px" y="0px"
	 viewBox="0 0 289.9631 250.4607" style="enable-background:new 0 0 289.9631 250.4607;" xml:space="preserve">
<style type="text/css">
	.st0{fill:#FFFFFF;stroke:#000000;stroke-miterlimit:10;}
	.st1{fill:none;stroke:#0068FF;stroke-miterlimit:10;}
	.st2{fill:#FFFFFF;}
	.st3{fill:none;stroke:#7F7F7F;stroke-miterlimit:10;}
	.st4{fill:none;stroke:#7F7F7F;stroke-width:1;stroke-miterlimit:10.0014;}
</style>
<path class="st0" d="M210.1806,17.999"/>
<path class="st1" d="M196.9646,13.2149c0,0-62.0479-6.149-102.5817,5.7631S46.3301,55.8307,33.3922,85.73
	s-15.2766,72.8951-15.2766,72.8951s-2.9684,31.3648,41.0112,58.6781s69.8104,24.4647,69.8104,24.4647s16.3991-0.5114,29.9539-6.4998
	c13.5548-5.9884,55.0265-28.2081,69.2271-48.4567s29.6999-36.9202,24.0123-72.0153c-5.6876-35.0951-5.0145-27.0369-9.1862-49.6273
	s-17.1997-34.3126-17.1997-34.3126S219.859,20.1684,196.9646,13.2149z"/>
<path class="st2" d="M107.9649,147.7027"/>
<g>
	<path class="st3" d="M151.1105,150.3026c-2.7,0.9-3.8-1.5-2.8-8.4 M142.8104,170.6026c4.9-9.4,8.7-19.3,10.7-29.9"/>
	<path class="st3" d="M178.2871,147.8026c-0.7192,13.3-30.3293,31.5-45.9135,28.2c-18.821-4-29.1305-11.6-32.0076-18
		c-3.956-9,4.1958-33.2,14.7451-40.8c10.6692-7.8,41.9575-6,41.9575-6S180.445,109.7028,178.2871,147.8026z"/>
	<path class="st3" d="M131.6105,131.2027c-0.4,0.6-6.9,11.7-5.5,23.3"/>
	<path class="st3" d="M121.4105,142.2027c1.7-6.1,4.6-16.8,19.1-21.9c2.4-0.8,10.4-2.2,13.7,0.7c3.2,2.7,3,8.3-3.4,14.6
		c-8.3,8.2-19.4,11.2-19.4,11.2s-1.3642,11.6222,8.3418,16.8647"/>
	
		<ellipse transform="matrix(0.3117 -0.9502 0.9502 0.3117 -20.8715 256.02)" class="st4" cx="166.2776" cy="142.4162" rx="3.9005" ry="2.4001"/>
	
		<ellipse transform="matrix(0.3117 -0.9502 0.9502 0.3117 -44.8691 238.7339)" class="st4" cx="142.3475" cy="150.3371" rx="3.9005" ry="2.4001"/>
	<line class="st3" x1="162.6105" y1="121.8026" x2="154.7105" y2="148.8026"/>
	<path class="st3" d="M162.8104,137.2027l-6.4,7.2c0,0,3.2,3.1,3.7,3.3"/>
	<path class="st3" d="M120.9815,155.9615c0,0,0-17.7588-4.4953-8.0215c-1.1516,2.4946-1.5034,8.9229-1.5034,8.9229
		s0.9372-10.3092-1.7182-10.153s-3.6707,11.715-3.6707,11.715s0.0781-13.2575-2.4211-13.8823"/>
	<path class="st3" d="M169.5933,173.0026c-0.5776-1.815,1.9801-5.313,4.2075-2.7967c2.3362,2.639-3.3826,4.2485-2.475,8.103
		c0.0299,0.1271,2.6076-2.823,6.105-3.3181"/>
	<path class="st3" d="M174.5877,167.1699c0,0-0.5363-2.9359,1.8562-2.4822c2.1461,0.407,0.4477,3.2,0.4477,3.2
		c-0.8602,1.1796,2.7286-1.5428,3.3474,1.3035c0.4189,1.9268-0.6491,4.3676-4.0012,3.3413"/>
</g>
</svg>
