<?xml version="1.0" encoding="utf-8"?>
<!-- Generator: Adobe Illustrator 28.0.0, SVG Export Plug-In . SVG Version: 6.00 Build 0)  -->
<svg version="1.1" id="Layer_1" xmlns="http://www.w3.org/2000/svg" xmlns:xlink="http://www.w3.org/1999/xlink" x="0px" y="0px"
	 viewBox="0 0 289.9631 250.4607" style="enable-background:new 0 0 289.9631 250.4607;" xml:space="preserve">
<style type="text/css">
	.st0{display:none;}
	.st1{display:inline;fill:none;stroke:#FF0000;stroke-width:0.375;stroke-miterlimit:1.5;}
	.st2{fill:#FFFFFF;stroke:#000000;stroke-miterlimit:10;}
	.st3{stroke:#000000;stroke-miterlimit:10;}
	.st4{fill:#FFFFFF;stroke:#000000;stroke-width:1;stroke-miterlimit:9.9999;}
</style>
<g id="Layer_1_00000001662150029490302430000014155950976262127035_" class="st0">
	<path id="path-3" class="st1" d="M144.2681,12.8838c-1.249-0.2049-2.498-0.4097-3.7469-0.6146"/>
	<path id="path-4" class="st1" d="M125.9779,14.3742c-0.8061-0.1622-1.6122-0.3244-2.4183-0.4866"/>
	<path id="path-5" class="st1" d="M113.5715,16.2478c-0.6658-0.2598-1.3316-0.5196-1.9974-0.7794"/>
	<path id="path-6" class="st1" d="M40.6189,71.0815c0.0609-1.0334,0.1218-2.0669,0.1827-3.1004"/>
	<path id="path-7" class="st1" d="M34.5342,84.4229c-0.1846-0.5684-0.3692-1.1368-0.5538-1.7052"/>
	<path id="path-8" class="st1" d="M31.9446,91.5791c-0.2521-0.4143-0.5041-0.8285-0.7562-1.2427"/>
	<path id="path-9" class="st1" d="M23.7372,120.8589c-0.2148-0.6457-0.4297-1.2913-0.6445-1.937"/>
	<path id="path-10" class="st1" d="M247.2184,99.6478c0.5831-1.1712,1.1661-2.3424,1.7492-3.5137"/>
	<path id="path-11" class="st1" d="M246.6992,89.31c0.3664-1.1069,0.7328-2.2138,1.0992-3.3206"/>
	<path id="path-12" class="st1" d="M245.231,82.8836c0.4039-1.0609,0.8079-2.1217,1.2118-3.1826"/>
	<path id="path-13" class="st1" d="M22.933,123.7979c-0.2194-0.3723-0.4388-0.7447-0.6581-1.1171"/>
	<path id="path-14" class="st1" d="M25.933,111.4229c-0.2428-0.4122-0.4857-0.8243-0.7285-1.2366"/>
	<path id="path-15" class="st1" d="M34.8068,83.3863c0.2496-0.575,0.6634-1.104,0.7488-1.725
		c0.1209-0.8794-0.3923-1.8061-0.1462-2.659c0.2023-0.7011,1.052-1.0417,1.3993-1.6834c0.3109-0.5746,0.2751-1.2858,0.5324-1.8863
		c0.6037-1.4087,1.4386-2.7106,2.0415-4.1196c0.7296-1.7051,1.1746-3.5263,1.9508-5.2107c0.1489-0.3232,0.6222-0.4076,0.7842-0.7245
		c0.3625-0.7094,0.3743-1.566,0.7465-2.2703c0.2863-0.5416,0.871-0.8769,1.1925-1.3984c2.5769-4.1799,4.888-8.5205,7.4898-12.685
		c1.101-1.7622,2.3521-3.4281,3.6103-5.0818c0.8336-1.0956,1.7223-2.1515,2.66-3.1595c2.285-2.4563,4.4514-5.0504,7.0033-7.2281
		c2.4172-2.0627,5.1571-3.7197,7.8335-5.4327c1.4156-0.9061,2.9127-1.6843,4.4266-2.4143c0.69-0.3327,1.4742-0.4384,2.167-0.7654
		c0.378-0.1784,0.6313-0.5709,1.0151-0.7364c0.545-0.235,1.2031-0.1604,1.724-0.4449c0.3261-0.1782,0.3428-0.7458,0.6914-0.8746
		c0.3915-0.1447,0.8517,0.3085,1.2419,0.1602c0.8929-0.3392,1.5242-1.194,2.4113-1.5481c0.4773-0.1905,1.0492,0.1177,1.5415-0.0297
		c0.6376-0.1909,1.1205-0.7483,1.7526-0.9564c0.3988-0.1313,0.8608,0.0981,1.259-0.035c0.4733-0.1582,0.7932-0.633,1.2608-0.8071
		c0.4467-0.1663,0.962-0.049,1.4174-0.1899c0.3064-0.0948,0.5092-0.4256,0.8206-0.5023c0.3642-0.0897,0.7616,0.1157,1.125,0.0229
		c0.6125-0.1564,1.1269-0.6,1.7398-0.7546c1.4374-0.3625,2.9383-0.4302,4.3768-0.7881c1.0196-0.2537,1.9438-0.8409,2.9752-1.041
		c0.8492-0.1647,1.7389,0.0856,2.5949-0.0393c2.2961-0.335,4.5396-0.976,6.8319-1.3361c0.3121-0.049,0.6298,0.1713,0.9407,0.1149
		c0.9079-0.1645,1.7456-0.641,2.6597-0.7674c1.4381-0.1989,2.9146,0.0111,4.3506-0.202c1.0391-0.1542,1.9803-0.7609,3.0225-0.892
		c1.619-0.2035,3.2679,0.0293,4.8943-0.1034c4.9187-0.4012,9.7981-1.3002,14.7292-1.4972
		c7.0179-0.2804,14.0475-0.0291,21.0704,0.067c7.4534,0.102,14.9087,0.2092,22.356,0.5272
		c0.8064,0.0344,1.5603,0.4447,2.3632,0.5281c2.1762,0.226,4.3833,0.1053,6.5516,0.3978c1.3953,0.1883,2.7391,0.6564,4.0942,1.0385
		c1.6111,0.4542,3.2618,0.8139,4.8019,1.4697c0.4927,0.2098,0.7147,0.8313,1.1884,1.0808c0.9885,0.5208,2.17,0.6259,3.1315,1.195
		c2.6296,1.5564,5.1619,3.2862,7.5849,5.1479c1.8186,1.3973,3.4937,2.9799,5.1106,4.6063c1.6617,1.6714,3.2098,3.4557,4.7112,5.2726
		c1.3788,1.6685,2.7103,3.3815,3.9222,5.1749c1.1632,1.7214,2.073,3.6027,3.192,5.3531c0.2067,0.3233,0.6008,0.5094,0.7745,0.8515
		c0.1985,0.3909,0.1261,0.8796,0.3074,1.2788c1.0721,2.3601,2.4295,4.5872,3.4415,6.9737c0.1752,0.4132-0.0326,0.9106,0.0855,1.3436
		c0.926,3.3957,1.9494,6.7654,3.0384,10.1124c0.1249,0.384,0.4783,0.6686,0.5953,1.0551c0.1308,0.4319-0.0227,0.9236,0.1323,1.3474
		c0.268,0.7328,0.8684,1.3183,1.1136,2.0591c0.1998,0.6039,0.0499,1.2792,0.1959,1.8983c0.1669,0.7081,0.5673,1.347,0.736,2.0547
		c0.2382,0.999,0.2557,2.0411,0.4794,3.0435c0.2215,0.9923,0.674,1.9275,0.8537,2.9282c0.3376,1.8796,0.3568,3.8072,0.6939,5.6869
		c0.1127,0.6286,0.4996,1.1816,0.6492,1.8025c0.2594,1.0761,0.4467,2.1712,0.5735,3.2708c0.2634,2.2848,0.3037,4.5927,0.5958,6.874
		c0.2461,1.9221,0.8765,3.7911,1.0171,5.7238c0.449,6.173,0.7668,12.3635,0.7487,18.5528
		c-0.0244,8.2887-0.255,16.5853-0.8761,24.8507c-0.1803,2.3989-0.8389,4.7481-1.5216,7.0549
		c-0.8464,2.8601-1.8619,5.6768-3.0553,8.4104c-1.0969,2.5126-2.4153,4.9281-3.8007,7.2939
		c-2.2672,3.8714-4.4087,7.8513-7.1489,11.4037c-3.8631,5.0081-8.2087,9.6349-12.595,14.1919
		c-3.4615,3.5961-7.0069,7.1482-10.9238,10.2419c-7.3082,5.7723-14.9714,11.09-22.6872,16.305
		c-4.0179,2.7157-8.2167,5.1671-12.4856,7.4681c-3.7425,2.0174-7.6153,3.793-11.5212,5.4724
		c-3.6872,1.5853-7.4128,3.1091-11.2411,4.3143c-3.8257,1.2044-7.7313,2.1839-11.6775,2.9009
		c-4.0495,0.7358-8.1547,1.1868-12.2621,1.4491c-2.5428,0.1624-5.1033,0.0403-7.6418-0.1784
		c-2.5383-0.2187-5.0774-0.5541-7.559-1.1311c-3.6257-0.8429-7.1631-2.0308-10.7229-3.1192
		c-2.3953-0.7324-4.7873-1.4824-7.1397-2.3427c-0.9454-0.3457-1.8017-0.9049-2.7397-1.2702
		c-1.9951-0.7769-4.0673-1.3488-6.0514-2.1533c-2.1184-0.859-4.203-1.8064-6.2454-2.8331
		c-6.3729-3.2034-12.7067-6.4862-18.9943-9.8539c-1.5107-0.8091-2.9747-1.7092-4.3923-2.6721
		c-2.3684-1.6088-4.6992-3.2769-6.9572-5.0372c-3.5007-2.7291-6.9428-5.5357-10.3121-8.4255
		c-1.1612-0.9959-2.2278-2.1003-3.2682-3.2217c-1.3845-1.4924-2.7447-3.0122-4.001-4.614c-2.4475-3.1204-5.0871-6.129-7.1034-9.5439
		c-1.9033-3.2234-2.9998-6.8603-4.5851-10.2514c-0.0985-0.2107-0.3887-0.3062-0.4548-0.5291
		c-0.5394-1.8193-0.9968-3.6664-1.3423-5.5323c-0.1971-1.0644-0.1249-2.1642-0.2811-3.2353
		c-0.0442-0.3034-0.2953-0.5577-0.3166-0.8636c-0.3228-4.6219-0.711-9.248-0.7132-13.8811
		c-0.0014-3.0266,0.2993-6.0529,0.7025-9.0526c0.3923-2.9188,1.2346-5.7628,1.6801-8.6739c0.0815-0.5327-0.1917-1.0811-0.1059-1.613
		c0.571-3.5415,1.2514-7.0681,2.0686-10.5609c0.4489-1.9189,1.2753-3.7362,1.7251-5.6548c0.3526-1.5038,0.352-3.0739,0.6755-4.5843
		c0.1221-0.5702,0.5028-1.0594,0.654-1.6225c0.6929-2.5808,1.0903-5.2398,1.8741-7.7944c0.7852-2.5591,1.9601-4.984,2.8239-7.5176
		c0.6462-1.8951,0.9835-3.8919,1.7032-5.7603c0.1344-0.3489,0.6343-0.4443,0.8132-0.7726c0.1446-0.2655-0.0085-0.619,0.0989-0.9016
		c0.1198-0.3152,0.4668-0.5171,0.5634-0.8402c0.374-1.2511,0.457-2.5773,0.832-3.8281c0.2999-1.0002,0.7901-1.9331,1.1852-2.8997"/>
	<path id="path-16" class="st1" d="M121.2514,13.1809c0.7694,0.2356,1.5387,0.4711,2.3081,0.7067"/>
	<path id="path-17" class="st1" d="M28.8546,94.2308c0.165,0.5713,0.3301,1.1425,0.4951,1.7138"/>
	<path id="path-18" class="st1" d="M23.6368,113.3986c0.2472,0.4658,0.4943,0.9316,0.7415,1.3975"/>
	<path id="path-19" class="st1" d="M18.7618,137.7736c0.1826,0.6029,0.3652,1.2058,0.5477,1.8087"/>
	<path id="path-20" class="st1" d="M194.0701,13.9663c0.8895-0.2566,1.7789-0.5131,2.6684-0.7697"/>
	<path id="path-21" class="st1" d="M199.2607,15.1151c0.5994-0.2872,1.1988-0.5744,1.7982-0.8617"/>
	<path id="path-22" class="st1" d="M201.3251,15.5631c0.5466-0.2399,1.0932-0.4799,1.6398-0.7198"/>
	<path id="path-23" class="st1" d="M289.4241,73.7859c0.1797-0.7182,0.3593-1.4364,0.539-2.1546"/>
</g>
<g id="Layer_2_00000029041804406449986070000004450723061071161257_">
	<path class="st2" d="M210.1806,17.999"/>
	<path class="st3" d="M196.9646,13.2149c0,0-62.0479-6.149-102.5817,5.7631S46.3301,55.8307,33.3922,85.73
		s-15.2766,72.8951-15.2766,72.8951s-2.9684,31.3648,41.0112,58.6781s69.8104,24.4647,69.8104,24.4647
		s16.3991-0.5114,29.9539-6.4998c13.5548-5.9884,55.0265-28.2081,69.2271-48.4567s29.6999-36.9202,24.0123-72.0153
		c-5.6876-35.0951-5.0145-27.0369-9.1862-49.6273s-17.1997-34.3126-17.1997-34.3126S219.859,20.1684,196.9646,13.2149z"/>
	<circle class="st2" cx="201.4557" cy="46.9865" r="17.1496"/>
	
		<ellipse transform="matrix(0.6145 -0.7889 0.7889 0.6145 -51.9484 153.6192)" class="st4" cx="131.2169" cy="129.9659" rx="82.081" ry="94.9598"/>
	<circle class="st2" cx="43.326" cy="183.2537" r="4.4646"/>
</g>
</svg>
