<?xml version="1.0" encoding="utf-8"?>
<!-- Generator: Adobe Illustrator 28.0.0, SVG Export Plug-In . SVG Version: 6.00 Build 0)  -->
<svg version="1.1" id="Layer_1" xmlns:vectornator="http://vectornator.io"
	 xmlns="http://www.w3.org/2000/svg" xmlns:xlink="http://www.w3.org/1999/xlink" x="0px" y="0px" viewBox="0 0 1260 342"
	 style="enable-background:new 0 0 1260 342;" xml:space="preserve">
<style type="text/css">
	.st0{fill:none;stroke:#000205;stroke-width:0.7727;stroke-linejoin:round;stroke-miterlimit:7.7273;}
	.st1{fill:none;}
	.st2{fill:none;stroke:#231F20;stroke-miterlimit:10;}
	.st3{fill:none;stroke:#231F20;stroke-width:1;stroke-miterlimit:10.0014;}
</style>
<g id="Layer-1" vectornator:layerName="Layer 1">
	<path vectornator:layerName="Polygon 1" class="st0" d="M188.767,281.536c-18.886,10.944-42.155,10.944-61.042,0l-50.23-29.107
		c-18.886-10.944-30.521-31.17-30.521-53.059v-58.214c0-21.888,11.635-42.114,30.521-53.059l50.23-29.107
		c18.887-10.944,42.156-10.944,61.042,0l50.23,29.107c18.887,10.944,30.521,31.17,30.521,53.059v58.214
		c0,21.888-11.634,42.114-30.521,53.059L188.767,281.536z"/>
</g>
<g id="Layer-1_00000172438341230191005530000014075381938902466733_" vectornator:layerName="Layer 1">
	<path vectornator:layerName="Polygon 1" class="st0" d="M453.278,281.536c-18.886,10.944-42.155,10.944-61.042,0l-50.23-29.107
		c-18.886-10.944-30.521-31.17-30.521-53.059v-58.214c0-21.888,11.635-42.114,30.521-53.059l50.23-29.107
		c18.887-10.944,42.156-10.944,61.042,0l50.23,29.107c18.887,10.944,30.521,31.17,30.521,53.059v58.214
		c0,21.888-11.634,42.114-30.521,53.059L453.278,281.536z"/>
</g>
<g id="Layer-1_00000085947623425044148400000014201524713448064130_" vectornator:layerName="Layer 1">
	<path vectornator:layerName="Polygon 1" class="st0" d="M717.789,281.536c-18.886,10.944-42.155,10.944-61.042,0l-50.23-29.107
		c-18.886-10.944-30.521-31.17-30.521-53.059v-58.214c0-21.888,11.635-42.114,30.521-53.059l50.23-29.107
		c18.887-10.944,42.156-10.944,61.042,0l50.23,29.107c18.887,10.944,30.521,31.17,30.521,53.059v58.214
		c0,21.888-11.634,42.114-30.521,53.059L717.789,281.536z"/>
</g>
<g id="Layer-1_00000119808209661424529950000009055145128681538206_" vectornator:layerName="Layer 1">
	<path vectornator:layerName="Polygon 1" class="st0" d="M982.3,281.536c-18.886,10.944-42.155,10.944-61.042,0l-50.23-29.107
		c-18.886-10.944-30.521-31.17-30.521-53.059v-58.214c0-21.888,11.635-42.114,30.521-53.059l50.23-29.107
		c18.887-10.944,42.156-10.944,61.042,0l50.23,29.107c18.887,10.944,30.521,31.17,30.521,53.059v58.214
		c0,21.888-11.634,42.114-30.521,53.059L982.3,281.536z"/>
</g>
<g vectornator:layerName="Curve 8">
	<path class="st1" d="M196.265,209.953c-0.035-0.017-0.078-0.002-0.094,0.033c-0.195,0.401-0.353,0.821-0.493,1.244
		c-0.213,0.646-0.376,1.315-0.452,1.992c-0.082,0.732-0.061,1.493,0.173,2.197c0.255,0.769,0.843,1.665,1.749,1.667
		c0.225,0.001,0.451-0.047,0.661-0.123c0.185-0.068,0.368-0.157,0.53-0.271c0.03-0.021,0.038-0.065,0.017-0.094
		c-0.021-0.03-0.065-0.034-0.094-0.012c-0.177,0.126-0.385,0.219-0.591,0.283c-0.168,0.053-0.345,0.087-0.522,0.086
		c-0.903-0.002-1.462-0.992-1.671-1.749c-0.209-0.755-0.187-1.557-0.066-2.324c0.101-0.637,0.273-1.266,0.489-1.873
		c0.116-0.326,0.246-0.649,0.398-0.961C196.315,210.013,196.3,209.97,196.265,209.953z M200.199,209.173
		c-0.038-0.008-0.074,0.016-0.082,0.053c-0.566,2.758-1.253,5.5-2.004,8.213c-0.759,2.743-1.59,5.479-2.669,8.115
		c-1.099,2.685-2.433,5.268-3.942,7.745c-0.019,0.031-0.006,0.071,0.025,0.09s0.071,0.007,0.09-0.025
		c1.513-2.483,2.847-5.071,3.951-7.761c1.083-2.64,1.92-5.383,2.682-8.131c0.753-2.716,1.441-5.456,2.008-8.217
		C200.265,209.218,200.237,209.181,200.199,209.173z"/>
</g>
<g>
	<path class="st2" d="M201.956,223.68c-2.7,0.9-3.8-1.5-2.8-8.4 M193.655,243.98c4.9-9.4,8.7-19.3,10.7-29.9"/>
	<path class="st2" d="M229.132,221.18c-0.719,13.3-30.329,31.5-45.913,28.2c-18.821-4-29.131-11.6-32.008-18
		c-3.956-9,4.196-33.2,14.745-40.8c10.669-7.8,41.958-6,41.958-6S231.29,183.08,229.132,221.18z"/>
	<path class="st2" d="M182.456,204.58c-0.4,0.6-6.9,11.7-5.5,23.3"/>
	<path class="st2" d="M172.256,215.58c1.7-6.1,4.6-16.8,19.1-21.9c2.4-0.8,10.4-2.2,13.7,0.7c3.2,2.7,3,8.3-3.4,14.6
		c-8.3,8.2-19.4,11.2-19.4,11.2s-1.364,11.622,8.342,16.865"/>
	
		<ellipse transform="matrix(0.3117 -0.9502 0.9502 0.3117 -55.5923 354.8456)" class="st3" cx="217.13" cy="215.794" rx="3.9" ry="2.4"/>
	
		<ellipse transform="matrix(0.3117 -0.9502 0.9502 0.3117 -79.5897 337.5595)" class="st3" cx="193.2" cy="223.715" rx="3.9" ry="2.4"/>
	<line class="st2" x1="213.456" y1="195.18" x2="205.556" y2="222.18"/>
	<path class="st2" d="M213.655,210.58l-6.4,7.2c0,0,3.2,3.1,3.7,3.3"/>
	<path class="st2" d="M171.827,229.339c0,0,0-17.759-4.495-8.021c-1.152,2.495-1.503,8.923-1.503,8.923s0.937-10.309-1.718-10.153
		s-3.671,11.715-3.671,11.715s0.078-13.258-2.421-13.882"/>
</g>
<g>
	<path class="st2" d="M471.965,223.68c-2.7,0.9-3.8-1.5-2.8-8.4 M463.665,243.98c4.9-9.4,8.7-19.3,10.7-29.9"/>
	<path class="st2" d="M499.141,221.18c-0.719,13.3-30.329,31.5-45.914,28.2c-18.821-4-29.13-11.6-32.008-18
		c-3.956-9,4.196-33.2,14.745-40.8c10.669-7.8,41.957-6,41.957-6S501.299,183.08,499.141,221.18z"/>
	<path class="st2" d="M452.465,204.58c-0.4,0.6-6.9,11.7-5.5,23.3"/>
	<path class="st2" d="M442.265,215.58c1.7-6.1,4.6-16.8,19.1-21.9c2.4-0.8,10.4-2.2,13.7,0.7c3.2,2.7,3,8.3-3.4,14.6
		c-8.3,8.2-19.4,11.2-19.4,11.2s-1.364,11.622,8.342,16.865"/>
	
		<ellipse transform="matrix(0.3117 -0.9502 0.9502 0.3117 130.2566 611.4036)" class="st3" cx="487.139" cy="215.794" rx="3.9" ry="2.4"/>
	
		<ellipse transform="matrix(0.3117 -0.9502 0.9502 0.3117 106.2592 594.1175)" class="st3" cx="463.209" cy="223.715" rx="3.9" ry="2.4"/>
	<line class="st2" x1="483.465" y1="195.18" x2="475.565" y2="222.18"/>
	<path class="st2" d="M483.665,210.58l-6.4,7.2c0,0,3.2,3.1,3.7,3.3"/>
	<path class="st2" d="M441.836,229.339c0,0,0-17.759-4.495-8.021c-1.152,2.495-1.503,8.923-1.503,8.923s0.937-10.309-1.718-10.153
		s-3.671,11.715-3.671,11.715s0.078-13.258-2.421-13.882"/>
</g>
<g>
	<path class="st2" d="M741.974,223.68c-2.7,0.9-3.8-1.5-2.8-8.4 M733.674,243.98c4.9-9.4,8.7-19.3,10.7-29.9"/>
	<path class="st2" d="M769.151,221.18c-0.719,13.3-30.329,31.5-45.914,28.2c-18.821-4-29.13-11.6-32.008-18
		c-3.956-9,4.196-33.2,14.745-40.8c10.669-7.8,41.958-6,41.958-6S771.308,183.08,769.151,221.18z"/>
	<path class="st2" d="M722.474,204.58c-0.4,0.6-6.9,11.7-5.5,23.3"/>
	<path class="st2" d="M712.274,215.58c1.7-6.1,4.6-16.8,19.1-21.9c2.4-0.8,10.4-2.2,13.7,0.7c3.2,2.7,3,8.3-3.4,14.6
		c-8.3,8.2-19.4,11.2-19.4,11.2s-1.364,11.622,8.342,16.865"/>
	
		<ellipse transform="matrix(0.3117 -0.9502 0.9502 0.3117 316.1055 867.9616)" class="st3" cx="757.148" cy="215.794" rx="3.9" ry="2.4"/>
	
		<ellipse transform="matrix(0.3117 -0.9502 0.9502 0.3117 292.1081 850.6755)" class="st3" cx="733.218" cy="223.715" rx="3.9" ry="2.4"/>
	<line class="st2" x1="753.474" y1="195.18" x2="745.574" y2="222.18"/>
	<path class="st2" d="M753.674,210.58l-6.4,7.2c0,0,3.2,3.1,3.7,3.3"/>
	<path class="st2" d="M711.845,229.339c0,0,0-17.759-4.495-8.021c-1.152,2.495-1.503,8.923-1.503,8.923s0.937-10.309-1.718-10.153
		s-3.671,11.715-3.671,11.715s0.078-13.258-2.421-13.882"/>
</g>
<g>
	<path class="st2" d="M1011.983,223.68c-2.7,0.9-3.8-1.5-2.8-8.4 M1003.683,243.98c4.9-9.4,8.7-19.3,10.7-29.9"/>
	<path class="st2" d="M1039.16,221.18c-0.719,13.3-30.329,31.5-45.914,28.2c-18.821-4-29.13-11.6-32.008-18
		c-3.956-9,4.196-33.2,14.745-40.8c10.669-7.8,41.958-6,41.958-6S1041.318,183.08,1039.16,221.18z"/>
	<path class="st2" d="M992.483,204.58c-0.4,0.6-6.9,11.7-5.5,23.3"/>
	<path class="st2" d="M982.283,215.58c1.7-6.1,4.6-16.8,19.1-21.9c2.4-0.8,10.4-2.2,13.7,0.7c3.2,2.7,3,8.3-3.4,14.6
		c-8.3,8.2-19.4,11.2-19.4,11.2s-1.364,11.622,8.342,16.865"/>
	
		<ellipse transform="matrix(0.3117 -0.9502 0.9502 0.3117 501.9544 1124.5197)" class="st3" cx="1027.158" cy="215.794" rx="3.9" ry="2.4"/>
	
		<ellipse transform="matrix(0.3117 -0.9502 0.9502 0.3117 477.957 1107.2335)" class="st3" cx="1003.227" cy="223.715" rx="3.9" ry="2.4"/>
	<line class="st2" x1="1023.483" y1="195.18" x2="1015.583" y2="222.18"/>
	<path class="st2" d="M1023.683,210.58l-6.4,7.2c0,0,3.2,3.1,3.7,3.3"/>
	<path class="st2" d="M981.854,229.339c0,0,0-17.759-4.495-8.021c-1.152,2.495-1.503,8.923-1.503,8.923s0.937-10.309-1.718-10.153
		s-3.671,11.715-3.671,11.715s0.078-13.258-2.421-13.882"/>
</g>
<rect class="st2" width="1260" height="342"/>
</svg>
