<?xml version="1.0" encoding="utf-8"?>
<!-- Generator: Adobe Illustrator 28.0.0, SVG Export Plug-In . SVG Version: 6.00 Build 0)  -->
<svg version="1.1" id="Layer_1" xmlns:vectornator="http://vectornator.io"
	 xmlns="http://www.w3.org/2000/svg" xmlns:xlink="http://www.w3.org/1999/xlink" x="0px" y="0px" viewBox="0 0 1260 342"
	 style="enable-background:new 0 0 1260 342;" xml:space="preserve">
<style type="text/css">
	.st0{fill:none;stroke:#000205;stroke-width:0.7727;stroke-linejoin:round;stroke-miterlimit:7.7273;}
	.st1{fill:none;stroke:#000000;stroke-miterlimit:10;}
</style>
<g>
	<g id="Layer-1" vectornator:layerName="Layer 1">
		<path vectornator:layerName="Polygon 1" class="st0" d="M188.767,281.536c-18.886,10.944-42.155,10.944-61.042,0l-50.23-29.107
			c-18.886-10.944-30.521-31.17-30.521-53.059v-58.214c0-21.888,11.635-42.114,30.521-53.059l50.23-29.107
			c18.887-10.944,42.156-10.944,61.042,0l50.23,29.107c18.887,10.944,30.521,31.17,30.521,53.059v58.214
			c0,21.888-11.634,42.114-30.521,53.059L188.767,281.536z"/>
	</g>
	<g id="Layer-2" vectornator:layerName="Layer 2">
		<path vectornator:layerName="Oval 1" class="st0" d="M105.82,170.263c0-17.489,8.563-32.978,21.726-42.502
			c8.629-6.244,19.235-9.924,30.7-9.924c28.954,0,52.426,23.472,52.426,52.426s-23.472,52.426-52.426,52.426
			S105.82,199.217,105.82,170.263z"/>
		<path vectornator:layerName="Curve 1" class="st0" d="M137.01,148.401l21.088,21.027l21.412-21.347 M158.198,214.045
			l-21.215-21.891v-43.782l21.215-21.891l21.216,21.891v43.782L158.198,214.045z M157.991,168.408c0,0-0.314,44.488-0.244,44.612"/>
	</g>
	<g id="Layer-3" vectornator:layerName="Layer 3">
		<path vectornator:layerName="Oval 1" class="st0" d="M71.509,170.263c0-48.052,38.953-87.006,87.005-87.006
			s87.006,38.954,87.006,87.006s-38.954,87.006-87.006,87.006S71.509,218.315,71.509,170.263z"/>
	</g>
</g>
<g>
	<g id="Layer-1_00000172438341230191005530000014075381938902466733_" vectornator:layerName="Layer 1">
		<path vectornator:layerName="Polygon 1" class="st0" d="M453.278,281.536c-18.886,10.944-42.155,10.944-61.042,0l-50.23-29.107
			c-18.886-10.944-30.521-31.17-30.521-53.059v-58.214c0-21.888,11.635-42.114,30.521-53.059l50.23-29.107
			c18.887-10.944,42.156-10.944,61.042,0l50.23,29.107c18.887,10.944,30.521,31.17,30.521,53.059v58.214
			c0,21.888-11.634,42.114-30.521,53.059L453.278,281.536z"/>
	</g>
	<g id="Layer-2_00000167384577556348437590000007391560591497425052_" vectornator:layerName="Layer 2">
		<path vectornator:layerName="Oval 1" class="st0" d="M370.331,170.263c0-17.489,8.563-32.978,21.726-42.502
			c8.629-6.244,19.235-9.924,30.7-9.924c28.954,0,52.426,23.472,52.426,52.426s-23.472,52.426-52.426,52.426
			S370.331,199.217,370.331,170.263z"/>
		<path vectornator:layerName="Curve 1" class="st0" d="M401.521,148.401l21.088,21.027l21.412-21.347 M422.709,214.045
			l-21.215-21.891v-43.782l21.215-21.891l21.216,21.891v43.782L422.709,214.045z M422.502,168.408c0,0-0.314,44.488-0.244,44.612"/>
	</g>
	<g id="Layer-3_00000126285169498433164260000000701391991919775922_" vectornator:layerName="Layer 3">
		<path vectornator:layerName="Oval 1" class="st0" d="M336.02,170.263c0-48.052,38.953-87.006,87.005-87.006
			s87.006,38.954,87.006,87.006s-38.954,87.006-87.006,87.006S336.02,218.315,336.02,170.263z"/>
	</g>
</g>
<g>
	<g id="Layer-1_00000085947623425044148400000014201524713448064130_" vectornator:layerName="Layer 1">
		<path vectornator:layerName="Polygon 1" class="st0" d="M717.789,281.536c-18.886,10.944-42.155,10.944-61.042,0l-50.23-29.107
			c-18.886-10.944-30.521-31.17-30.521-53.059v-58.214c0-21.888,11.635-42.114,30.521-53.059l50.23-29.107
			c18.887-10.944,42.156-10.944,61.042,0l50.23,29.107c18.887,10.944,30.521,31.17,30.521,53.059v58.214
			c0,21.888-11.634,42.114-30.521,53.059L717.789,281.536z"/>
	</g>
	<g id="Layer-2_00000060715517594057612930000009199460380706116740_" vectornator:layerName="Layer 2">
		<path vectornator:layerName="Oval 1" class="st0" d="M634.842,170.263c0-17.489,8.563-32.978,21.726-42.502
			c8.629-6.244,19.235-9.924,30.7-9.924c28.954,0,52.426,23.472,52.426,52.426s-23.472,52.426-52.426,52.426
			S634.842,199.217,634.842,170.263z"/>
		<path vectornator:layerName="Curve 1" class="st0" d="M666.032,148.401l21.089,21.027l21.411-21.347 M687.22,214.045
			l-21.215-21.891v-43.782l21.215-21.891l21.216,21.891v43.782L687.22,214.045z M687.013,168.408c0,0-0.314,44.488-0.244,44.612"/>
	</g>
	<g id="Layer-3_00000114793298852713647950000007652561691445832882_" vectornator:layerName="Layer 3">
		<path vectornator:layerName="Oval 1" class="st0" d="M600.532,170.263c0-48.052,38.953-87.006,87.005-87.006
			s87.006,38.954,87.006,87.006s-38.954,87.006-87.006,87.006S600.532,218.315,600.532,170.263z"/>
	</g>
</g>
<g>
	<g id="Layer-1_00000119808209661424529950000009055145128681538206_" vectornator:layerName="Layer 1">
		<path vectornator:layerName="Polygon 1" class="st0" d="M982.3,281.536c-18.886,10.944-42.155,10.944-61.042,0l-50.23-29.107
			c-18.886-10.944-30.521-31.17-30.521-53.059v-58.214c0-21.888,11.635-42.114,30.521-53.059l50.23-29.107
			c18.887-10.944,42.156-10.944,61.042,0l50.23,29.107c18.887,10.944,30.521,31.17,30.521,53.059v58.214
			c0,21.888-11.634,42.114-30.521,53.059L982.3,281.536z"/>
	</g>
	<g id="Layer-2_00000001649710563880196910000014967423516005869974_" vectornator:layerName="Layer 2">
		<path vectornator:layerName="Oval 1" class="st0" d="M899.353,170.263c0-17.489,8.563-32.978,21.726-42.502
			c8.629-6.244,19.235-9.924,30.7-9.924c28.954,0,52.426,23.472,52.426,52.426s-23.472,52.426-52.426,52.426
			C922.825,222.689,899.353,199.217,899.353,170.263z"/>
		<path vectornator:layerName="Curve 1" class="st0" d="M930.543,148.401l21.088,21.027l21.411-21.347 M951.731,214.045
			l-21.215-21.891v-43.782l21.215-21.891l21.216,21.891v43.782L951.731,214.045z M951.524,168.408c0,0-0.314,44.488-0.244,44.612"/>
	</g>
	<g id="Layer-3_00000168836108241638119260000004719872753181308850_" vectornator:layerName="Layer 3">
		<path vectornator:layerName="Oval 1" class="st0" d="M865.043,170.263c0-48.052,38.953-87.006,87.005-87.006
			c48.052,0,87.006,38.954,87.006,87.006s-38.954,87.006-87.006,87.006C903.996,257.269,865.043,218.315,865.043,170.263z"/>
	</g>
</g>
<rect class="st1" width="1260" height="342"/>
</svg>
