<?xml version="1.0" encoding="utf-8"?>
<!-- Generator: Adobe Illustrator 28.0.0, SVG Export Plug-In . SVG Version: 6.00 Build 0)  -->
<svg version="1.1" id="Layer_1" xmlns:vectornator="http://vectornator.io"
	 xmlns="http://www.w3.org/2000/svg" xmlns:xlink="http://www.w3.org/1999/xlink" x="0px" y="0px" viewBox="0 0 1260 342"
	 style="enable-background:new 0 0 1260 342;" xml:space="preserve">
<style type="text/css">
	.st0{fill:none;stroke:#000205;stroke-width:0.7727;stroke-linejoin:round;stroke-miterlimit:7.7273;}
	.st1{fill:none;stroke:#000000;stroke-miterlimit:10;}
	.st2{fill:none;stroke:#231F20;stroke-miterlimit:10;}
	.st3{fill:none;stroke:#231F20;stroke-width:1;stroke-miterlimit:10.0014;}
</style>
<g>
	<g id="Layer-1" vectornator:layerName="Layer 1">
		<path vectornator:layerName="Polygon 1" class="st0" d="M188.767,281.536c-18.886,10.944-42.155,10.944-61.042,0l-50.23-29.107
			c-18.886-10.944-30.521-31.17-30.521-53.059v-58.214c0-21.888,11.635-42.114,30.521-53.059l50.23-29.107
			c18.887-10.944,42.156-10.944,61.042,0l50.23,29.107c18.887,10.944,30.521,31.17,30.521,53.059v58.214
			c0,21.888-11.634,42.114-30.521,53.059L188.767,281.536z"/>
	</g>
	<g id="Layer-2" vectornator:layerName="Layer 2">
		<path vectornator:layerName="Oval 1" class="st0" d="M105.82,170.263c0-17.489,8.563-32.978,21.726-42.502
			c8.629-6.244,19.235-9.924,30.7-9.924c28.954,0,52.426,23.472,52.426,52.426s-23.472,52.426-52.426,52.426
			S105.82,199.217,105.82,170.263z"/>
		<path vectornator:layerName="Curve 1" class="st0" d="M137.01,148.401l21.088,21.027l21.412-21.347 M158.198,214.045
			l-21.215-21.891v-43.782l21.215-21.891l21.216,21.891v43.782L158.198,214.045z M157.991,168.408c0,0-0.314,44.488-0.244,44.612"/>
	</g>
	<g id="Layer-3" vectornator:layerName="Layer 3">
		<path vectornator:layerName="Oval 1" class="st0" d="M71.509,170.263c0-48.052,38.953-87.006,87.005-87.006
			s87.006,38.954,87.006,87.006s-38.954,87.006-87.006,87.006S71.509,218.315,71.509,170.263z"/>
	</g>
</g>
<g id="Layer-1_00000172438341230191005530000014075381938902466733_" vectornator:layerName="Layer 1">
	<path vectornator:layerName="Polygon 1" class="st0" d="M453.278,281.536c-18.886,10.944-42.155,10.944-61.042,0l-50.23-29.107
		c-18.886-10.944-30.521-31.17-30.521-53.059v-58.214c0-21.888,11.635-42.114,30.521-53.059l50.23-29.107
		c18.887-10.944,42.156-10.944,61.042,0l50.23,29.107c18.887,10.944,30.521,31.17,30.521,53.059v58.214
		c0,21.888-11.634,42.114-30.521,53.059L453.278,281.536z"/>
</g>
<g>
	<g id="Layer-1_00000085947623425044148400000014201524713448064130_" vectornator:layerName="Layer 1">
		<path vectornator:layerName="Polygon 1" class="st0" d="M717.789,281.536c-18.886,10.944-42.155,10.944-61.042,0l-50.23-29.107
			c-18.886-10.944-30.521-31.17-30.521-53.059v-58.214c0-21.888,11.635-42.114,30.521-53.059l50.23-29.107
			c18.887-10.944,42.156-10.944,61.042,0l50.23,29.107c18.887,10.944,30.521,31.17,30.521,53.059v58.214
			c0,21.888-11.634,42.114-30.521,53.059L717.789,281.536z"/>
	</g>
	<g id="Layer-2_00000060715517594057612930000009199460380706116740_" vectornator:layerName="Layer 2">
		<path vectornator:layerName="Oval 1" class="st0" d="M634.842,170.263c0-17.489,8.563-32.978,21.726-42.502
			c8.629-6.244,19.235-9.924,30.7-9.924c28.954,0,52.426,23.472,52.426,52.426s-23.472,52.426-52.426,52.426
			S634.842,199.217,634.842,170.263z"/>
		<path vectornator:layerName="Curve 1" class="st0" d="M666.032,148.401l21.089,21.027l21.411-21.347 M687.22,214.045
			l-21.215-21.891v-43.782l21.215-21.891l21.216,21.891v43.782L687.22,214.045z M687.013,168.408c0,0-0.314,44.488-0.244,44.612"/>
	</g>
	<g id="Layer-3_00000114793298852713647950000007652561691445832882_" vectornator:layerName="Layer 3">
		<path vectornator:layerName="Oval 1" class="st0" d="M600.532,170.263c0-48.052,38.953-87.006,87.005-87.006
			s87.006,38.954,87.006,87.006s-38.954,87.006-87.006,87.006S600.532,218.315,600.532,170.263z"/>
	</g>
</g>
<g id="Layer-1_00000119808209661424529950000009055145128681538206_" vectornator:layerName="Layer 1">
	<path vectornator:layerName="Polygon 1" class="st0" d="M982.3,281.536c-18.886,10.944-42.155,10.944-61.042,0l-50.23-29.107
		c-18.886-10.944-30.521-31.17-30.521-53.059v-58.214c0-21.888,11.635-42.114,30.521-53.059l50.23-29.107
		c18.887-10.944,42.156-10.944,61.042,0l50.23,29.107c18.887,10.944,30.521,31.17,30.521,53.059v58.214
		c0,21.888-11.634,42.114-30.521,53.059L982.3,281.536z"/>
</g>
<rect class="st1" width="1260" height="342"/>
<g>
	<path class="st2" d="M461.253,215.405c-2.7,0.9-3.8-1.5-2.8-8.4 M452.953,235.705c4.9-9.4,8.7-19.3,10.7-29.9"/>
	<path class="st2" d="M488.43,212.905c-0.719,13.3-30.329,31.5-45.913,28.2c-18.821-4-29.131-11.6-32.008-18
		c-3.956-9,4.196-33.2,14.745-40.8c10.669-7.8,41.958-6,41.958-6S490.588,174.806,488.43,212.905z"/>
	<path class="st2" d="M441.753,196.305c-0.4,0.6-6.9,11.7-5.5,23.3"/>
	<path class="st2" d="M431.553,207.305c1.7-6.1,4.6-16.8,19.1-21.9c2.4-0.8,10.4-2.2,13.7,0.7c3.2,2.7,3,8.3-3.4,14.6
		c-8.3,8.2-19.4,11.2-19.4,11.2s-1.364,11.622,8.342,16.865"/>
	
		<ellipse transform="matrix(0.3117 -0.9502 0.9502 0.3117 130.7461 595.5301)" class="st3" cx="476.427" cy="207.52" rx="3.9" ry="2.4"/>
	
		<ellipse transform="matrix(0.3117 -0.9502 0.9502 0.3117 106.7487 578.244)" class="st3" cx="452.497" cy="215.441" rx="3.9" ry="2.4"/>
	<line class="st2" x1="472.753" y1="186.905" x2="464.853" y2="213.905"/>
	<path class="st2" d="M472.953,202.305l-6.4,7.2c0,0,3.2,3.1,3.7,3.3"/>
	<path class="st2" d="M431.124,221.064c0,0,0-17.759-4.495-8.021c-1.152,2.495-1.503,8.923-1.503,8.923s0.937-10.309-1.718-10.153
		s-3.671,11.715-3.671,11.715s0.078-13.258-2.421-13.882"/>
</g>
<g>
	<path class="st2" d="M998.379,218.252c-2.7,0.9-3.8-1.5-2.8-8.4 M990.079,238.552c4.9-9.4,8.7-19.3,10.7-29.9"/>
	<path class="st2" d="M1025.556,215.752c-0.719,13.3-30.329,31.5-45.914,28.2c-18.821-4-29.13-11.6-32.008-18
		c-3.956-9,4.196-33.2,14.745-40.8c10.669-7.8,41.958-6,41.958-6S1027.714,177.652,1025.556,215.752z"/>
	<path class="st2" d="M978.879,199.152c-0.4,0.6-6.9,11.7-5.5,23.3"/>
	<path class="st2" d="M968.679,210.152c1.7-6.1,4.6-16.8,19.1-21.9c2.4-0.8,10.4-2.2,13.7,0.7c3.2,2.7,3,8.3-3.4,14.6
		c-8.3,8.2-19.4,11.2-19.4,11.2s-1.364,11.622,8.342,16.865"/>
	
		<ellipse transform="matrix(0.3117 -0.9502 0.9502 0.3117 497.748 1107.8572)" class="st3" cx="1013.553" cy="210.367" rx="3.9" ry="2.4"/>
	
		<ellipse transform="matrix(0.3117 -0.9502 0.9502 0.3117 473.7506 1090.5712)" class="st3" cx="989.623" cy="218.287" rx="3.9" ry="2.4"/>
	<line class="st2" x1="1009.879" y1="189.752" x2="1001.979" y2="216.752"/>
	<path class="st2" d="M1010.079,205.152l-6.4,7.2c0,0,3.2,3.1,3.7,3.3"/>
	<path class="st2" d="M968.25,223.911c0,0,0-17.759-4.495-8.021c-1.152,2.495-1.503,8.923-1.503,8.923s0.937-10.309-1.718-10.153
		s-3.671,11.715-3.671,11.715s0.078-13.258-2.421-13.882"/>
</g>
</svg>
