<?xml version="1.0" encoding="utf-8"?>
<!-- Generator: Adobe Illustrator 28.0.0, SVG Export Plug-In . SVG Version: 6.00 Build 0)  -->
<svg version="1.1" id="Layer_1" xmlns="http://www.w3.org/2000/svg" xmlns:xlink="http://www.w3.org/1999/xlink" x="0px" y="0px"
	 viewBox="0 0 612 342" style="enable-background:new 0 0 612 342;" xml:space="preserve">
<style type="text/css">
	.st0{fill:none;stroke:#000000;stroke-miterlimit:10;}
</style>
<g>
	<path class="st0" d="M150.197,171.732c0-20.126,22.012-35.732,29.269-53.234c7.523-18.143,3.277-44.675,16.949-58.347
		c13.673-13.673,40.204-9.426,58.347-16.949c17.502-7.257,33.107-29.269,53.234-29.269c20.126,0,35.732,22.012,53.234,29.269
		c18.143,7.523,44.675,3.277,58.347,16.949c13.673,13.673,9.426,40.204,16.949,58.347c7.257,17.502,29.269,33.107,29.269,53.234
		c0,20.126-22.012,35.732-29.269,53.234c-7.523,18.143-3.277,44.675-16.949,58.347c-13.673,13.673-40.204,9.426-58.347,16.949
		c-17.502,7.257-33.107,29.269-53.234,29.269s-35.732-22.012-53.234-29.269c-18.143-7.523-44.675-3.277-58.347-16.949
		c-13.673-13.673-9.426-40.204-16.949-58.347C172.209,207.464,150.197,191.859,150.197,171.732z"/>
</g>
<circle class="st0" cx="307.997" cy="171.732" r="122.273"/>
<circle class="st0" cx="307.997" cy="171.732" r="112.078"/>
<rect class="st0" width="612" height="342"/>
</svg>
