<?xml version="1.0" encoding="utf-8"?>
<!-- Generator: Adobe Illustrator 28.0.0, SVG Export Plug-In . SVG Version: 6.00 Build 0)  -->
<svg version="1.1" id="Layer_1" xmlns:vectornator="http://vectornator.io"
	 xmlns="http://www.w3.org/2000/svg" xmlns:xlink="http://www.w3.org/1999/xlink" x="0px" y="0px" viewBox="0 0 612 792"
	 style="enable-background:new 0 0 612 792;" xml:space="preserve">
<style type="text/css">
	.st0{fill:#000205;}
	.st1{fill:none;stroke:#000205;stroke-width:0.7727;stroke-linejoin:round;stroke-miterlimit:7.7273;}
</style>
<g id="Layer-2" vectornator:layerName="Layer 2">
	<g vectornator:layerName="Curve 1">
		<path class="st0" d="M301.1,253.8c-7.7-0.1-15.4,0-23.1,0.2c-12.4,0.3-24.8,1.2-37.2,2.6c-12.1,1.4-24.1,3.4-36,6.3
			c-16.3,4.1-32.6,9.9-46.5,19.4c-6.8,4.7-13.1,10.3-18.1,16.9c-1.7,2.2-3.2,4.6-4.6,7c-1.3,2.4-2.5,4.8-3.8,7.2
			c-3.1,5.7-6.2,11.3-9.1,17c-16,31-28.9,64.1-34,98.7c-1.4,9.9-2.2,19.8-2.1,29.8c0,3.1,0.1,6.2,0.3,9.3c0.1,1.7,0.2,3.5,0.4,5.2
			c0.8,5.3,2.9,10.4,5.5,15.1c3.7,6.6,8.4,12.7,13.5,18.3c8.4,9.3,18,17.4,28.1,24.8c13.1,9.5,27,17.8,41.5,25
			c9.9,5,20.1,9.5,30.5,13.6c3,1.2,6,2.3,9,3.4c2.2,0.8,4.4,1.6,6.7,2.2c4.8,1.3,9.8,1.9,14.7,2c7.9,0.2,15.9-0.9,23.6-2.6
			c10.3-2.3,20.4-5.7,30.2-9.8c12.7-5.3,24.9-11.7,36.7-18.8c10.1-6.2,20-12.9,29.2-20.4c4.6-3.7,8.9-7.7,13.2-11.8
			c4-3.8,8-7.6,11.8-11.5c14.2-14.4,27.9-30.3,34.8-49.6c5.4-15.2,6.1-31.4,4.8-47.3c-0.3-4.1,0-0.1-2.5-19.9c0,0,0,0,0,0
			c-8.1-40.4-4.8-27.1-8.1-40.4c-3.6-14.4-8-28.6-14.2-42.1c-6.3-13.7-14.5-27.2-26.5-36.7c-6.5-5.1-14.1-8.8-22.1-10.5
			c-3.9-0.8-7.9-1.1-11.9-1.4c-3.8-0.2-7.6-0.4-11.5-0.6C316.5,254.1,308.8,253.9,301.1,253.8z M302,254.6
			c7.7,0.1,15.4,0.3,23.1,0.6c3.5,0.1,7,0.3,10.4,0.5c3.5,0.2,7.1,0.4,10.6,1.1c8,1.5,15.5,4.9,22,9.8c12.5,9.4,20.9,23.1,27.3,37.1
			c4.3,9.4,7.7,19.3,10.6,29.2c3.4,11.5,0,0,11.6,53.1c0,0,0,0,0,0c2.2,17.1,1.7,11.5,2.2,17.2c1.6,17.1,1.1,34.5-5,50.8
			c-7.2,19.3-21.1,35.1-35.4,49.4c-3.7,3.7-7.5,7.3-11.3,10.9c-4,3.8-8.1,7.5-12.4,11c-9.2,7.5-19,14.2-29.1,20.4
			c-11.7,7.1-23.9,13.5-36.6,18.8c-9.7,4.1-19.7,7.5-30,9.8c-7.7,1.7-15.5,2.7-23.4,2.6c-4.9-0.1-9.8-0.7-14.5-1.9
			c-2.7-0.7-5.3-1.7-7.9-2.7c-3-1.1-6-2.3-8.9-3.4c-12.5-5-24.7-10.6-36.6-16.9c-13.5-7.2-26.5-15.3-38.6-24.6
			c-9.1-7-17.8-14.7-25.3-23.4c-4.8-5.5-9.1-11.4-12.4-17.9c-1.9-3.8-3.5-7.8-4.2-12c-0.3-2-0.4-4-0.6-6c-0.2-2.7-0.3-5.4-0.3-8.1
			c-0.1-9.6,0.5-19.1,1.8-28.6c4.9-35.8,18.3-70,34.9-101.9c2.9-5.5,5.9-11,8.8-16.5c1.2-2.2,2.2-4.4,3.4-6.5
			c1.4-2.4,2.9-4.7,4.6-6.9c5-6.6,11.2-12.1,17.9-16.7c13.8-9.5,30-15.3,46.2-19.3c24.1-6,49-8.2,73.8-8.9
			C286.6,254.6,294.3,254.5,302,254.6z"/>
	</g>
	<g vectornator:layerName="Group 1">
		<g vectornator:layerName="Curve 1">
			<path class="st0" d="M268.9,292.4c-3.4-0.1-6.9,0.1-10.3,0.4c-6.7,0.5-13.4,1.6-19.9,3.1c-11.8,2.6-23.2,6.7-33.8,12.4
				c-10.6,5.6-20.3,12.9-28.8,21.3c-13.6,13.6-24,30.2-31.1,48.1c-2.6,6.4-4.7,13-6.4,19.8c-0.8,3.4-1.6,6.8-2.1,10.3
				c0,0.2,0.1,0.4,0.3,0.4c0.2,0,0.4-0.1,0.4-0.3c0.5-3.8,1.4-7.5,2.3-11.2c1.6-6.3,3.7-12.6,6.1-18.6c7.1-17.7,17.4-34.3,31-47.8
				c8.4-8.4,18.1-15.6,28.6-21.2c10.6-5.6,21.9-9.7,33.6-12.3c7.5-1.7,15.1-2.8,22.7-3.3c6.2-0.3,12.4-0.2,18.5,0.9
				c7.4,1.4,14.8,4.4,19.7,10.3c8.1,10,5.6,24.2,1.1,35.2c-0.7,1.7-1.4,3.3-2.2,4.9c-1,2-2.1,4-3.2,6c-6.7,11.5-15.5,21.8-25.1,31
				c-15.4,14.8-33.4,27-52.4,36.6c-7.9,4-16,7.6-24.4,10.6c-2.4,0.9-4.8,1.7-7.1,2.5c-0.3,0.1-0.6,0.2-0.9,0.3
				c-0.6,0.2-1.7,0.4-2.1,0.9c-0.1,0.1-0.1,0.4-0.2,0.5c-0.1,0.4-0.2,0.8-0.3,1.2c-0.3,1.3-0.7,2.6-0.9,4c-1,5.1-1.4,10.3-1,15.5
				c0.2,3.6,0.9,7.1,2,10.5c4.8,14,17.7,23.9,30.6,30.1c2.5,1.2,5,2.3,7.6,3.2c4.7,1.7,9.5,3.1,14.5,3.8c2.1,0.3,4.4,0.5,6.5,0
				c0.2-0.1,0.3-0.3,0.3-0.5c-0.1-0.2-0.3-0.3-0.5-0.3c-2.6,0.7-5.8,0.1-8.4-0.3c-5.4-1-10.7-2.7-15.8-4.9
				c-14.4-6-29.5-16.6-34.3-32.2c-1.6-5.3-2-11-1.7-16.5c0.3-4.6,1-9.2,2.3-13.6c0.1,0,0.1,0,0.2,0c0.2-0.1,0.3-0.1,0.5-0.2
				c0.6-0.2,1.2-0.4,1.8-0.6c2.4-0.8,4.8-1.6,7.1-2.5c9.5-3.5,18.7-7.6,27.6-12.3c18.8-9.8,36.5-22.2,51.6-37.1
				c9.4-9.3,17.9-19.6,24.3-31.2c1.3-2.3,2.4-4.6,3.5-7c5.1-11.7,8.4-27.1-0.4-38c-5.2-6.4-13.3-9.5-21.2-10.8
				C275.7,292.7,272.3,292.4,268.9,292.4z"/>
		</g>
		<g vectornator:layerName="Curve 2">
			<path class="st0" d="M181.5,354.8c-0.2-0.1-0.4,0-0.5,0.2c-3.9,10-7.3,20.2-10.5,30.4c-4.4,14-8.2,28.2-10.9,42.6
				c-1.2,6.6-2.2,13.3-2.6,19.9c-0.4,6.2-0.3,12.5,1,18.6c0,0.2,0.3,0.4,0.5,0.3c0.2,0,0.4-0.3,0.3-0.5c-1.3-6-1.4-12.3-1-18.4
				c0.4-6.9,1.4-13.8,2.7-20.6c2.6-14.1,6.4-28.1,10.7-41.8c3.2-10.2,6.6-20.4,10.5-30.3C181.8,355.1,181.7,354.9,181.5,354.8z"/>
		</g>
	</g>
	<g vectornator:layerName="Curve 8">
		<path class="st0" d="M266.6,406.9c-0.2-0.1-0.5,0-0.6,0.2c-1.1,2.4-2.1,4.8-2.9,7.3c-1.3,3.8-2.2,7.7-2.7,11.7
			c-0.5,4.3-0.4,8.8,1,12.9c1.5,4.5,5,9.8,10.3,9.8c1.3,0,2.6-0.3,3.9-0.7c1.1-0.4,2.2-0.9,3.1-1.6c0.2-0.1,0.2-0.4,0.1-0.6
			c-0.1-0.2-0.4-0.2-0.6-0.1c-1,0.7-2.3,1.3-3.5,1.7c-1,0.3-2,0.5-3.1,0.5c-5.3,0-8.6-5.8-9.8-10.3c-1.2-4.4-1.1-9.2-0.4-13.7
			c0.6-3.7,1.6-7.4,2.9-11c0.7-1.9,1.4-3.8,2.3-5.7C266.9,407.3,266.8,407,266.6,406.9z M289.7,402.4c-0.2,0-0.4,0.1-0.5,0.3
			c-3.3,16.2-7.4,32.3-11.8,48.3c-4.5,16.1-9.3,32.2-15.7,47.7c-6.5,15.8-14.3,31-23.2,45.5c-0.1,0.2,0,0.4,0.1,0.5s0.4,0,0.5-0.1
			c8.9-14.6,16.7-29.8,23.2-45.6c6.4-15.5,11.3-31.7,15.8-47.8c4.4-16,8.5-32.1,11.8-48.3C290.1,402.6,290,402.4,289.7,402.4z"/>
	</g>
	<g vectornator:layerName="Curve 9">
		<path class="st0" d="M333.4,309.5c-0.2-0.1-0.4,0.1-0.5,0.3c-11.8,43.5-23.6,86.9-35.4,130.4c-0.1,0.2,0.1,0.4,0.3,0.5
			c0.2,0.1,0.4-0.1,0.5-0.3c11.8-43.5,23.7-86.9,35.5-130.4C333.7,309.8,333.6,309.6,333.4,309.5z M333.3,384.7
			c-0.2-0.1-0.4-0.1-0.5,0c-9.6,11.1-19.2,22.2-28.7,33.3c-0.1,0.2-0.1,0.4,0,0.6c0.2,0.1,0.4,0.1,0.6,0
			c9.6-11.1,19.1-22.2,28.7-33.3C333.5,385.1,333.5,384.8,333.3,384.7z M304.6,418c-0.2-0.2-0.4-0.1-0.6,0c-0.2,0.2-0.1,0.4,0,0.6
			c5.1,4.6,10.1,9.2,15.2,13.9c0.2,0.1,0.4,0.1,0.6,0c0.1-0.2,0.1-0.4,0-0.6C314.8,427.3,309.7,422.6,304.6,418z"/>
	</g>
</g>
<g id="Layer-1" vectornator:layerName="Layer 1">
	<path vectornator:layerName="Oval 3" class="st1" d="M346.5,427.8c6.7,1.8,14.5-5.3,17.3-15.9c2.8-10.6-0.3-20.6-7.1-22.4
		c-3-0.8-6.2,0.2-9.1,2.4c-3.6,2.8-6.7,7.6-8.3,13.5C336.7,416,339.8,426,346.5,427.8z"/>
	<path vectornator:layerName="Oval 4" class="st1" d="M229,466.9c6.7,1.8,14.5-5.3,17.3-15.9c2.8-10.6-0.3-20.6-7.1-22.4
		c-3-0.8-6.2,0.2-9.1,2.4c-3.6,2.8-6.7,7.6-8.3,13.5C219.1,455.1,222.2,465.1,229,466.9z"/>
</g>
</svg>
