<?xml version="1.0" encoding="utf-8"?>
<!-- Generator: Adobe Illustrator 28.0.0, SVG Export Plug-In . SVG Version: 6.00 Build 0)  -->
<svg version="1.1" id="Layer_1" xmlns="http://www.w3.org/2000/svg" xmlns:xlink="http://www.w3.org/1999/xlink" x="0px" y="0px"
	 viewBox="0 0 1320 1135.8" style="enable-background:new 0 0 1320 1135.8;" xml:space="preserve">
<style type="text/css">
	.st0{fill:#FFFFFF;stroke:#000000;stroke-miterlimit:10;}
	.st1{fill:none;stroke:#0068FF;stroke-miterlimit:10;}
</style>
<path class="st0" d="M969.2,852.5c-32,39.1-8.4,153.2,36.6,176.7c54.6,28.5,98.1,28.8,121.0001,16.6c32-17.1,74.2-102.5,68.7-146.2
	c-5.6-44.6-83.5-105.7-83.5-105.7S1060.7,740.5,969.2,852.5z"/>
<path class="st0" d="M89.5,852.5c-32,39.1-8.4,153.2,36.6,176.7c54.6,28.5,98.1,28.8,121,16.6c32-17.1,74.2-102.5,68.7-146.2
	c-5.6-44.6-83.5-105.7-83.5-105.7S181,740.5,89.5,852.5z"/>
<text transform="matrix(1 0 0 1 304.0054 -283.8423)" style="font-family:'ArialMT'; font-size:12px;">X</text>
<rect x="17.5" y="754.5" class="st1" width="1224" height="324"/>
<circle class="st0" cx="228.6" cy="1030.5" r="4.5"/>
<path class="st0" d="M377.1,852.5c-32,39.1-8.4,153.2,36.6,176.7c54.6,28.5,98.1,28.8,121,16.6c32-17.1,74.2-102.5,68.7-146.2
	c-5.6-44.6-83.5-105.7-83.5-105.7S468.6,740.5,377.1,852.5z"/>
<circle class="st0" cx="516.2" cy="1030.5" r="4.5"/>
<path class="st0" d="M676.1,852.5c-32,39.1-8.4,153.2,36.6,176.7c54.6,28.5,98.1,28.8,121,16.6c32-17.1,74.2-102.5,68.7-146.2
	c-5.6-44.6-83.5-105.7-83.5-105.7S767.6,740.5,676.1,852.5z"/>
<circle class="st0" cx="815.3" cy="1030.5" r="4.5"/>
<circle class="st0" cx="195.5134" cy="813.3" r="16.2992"/>
<circle class="st0" cx="483.1135" cy="813.3" r="16.2992"/>
<circle class="st0" cx="782.2" cy="813.3" r="16.2992"/>
<circle class="st0" cx="1075.2" cy="813.3" r="16.2992"/>
<circle class="st0" cx="1108.3" cy="1030.5" r="4.5"/>
<circle class="st0" cx="195.5" cy="813.3" r="9.5"/>
<circle class="st0" cx="483.1" cy="813.3" r="9.5"/>
<circle class="st0" cx="782.2" cy="813.3" r="9.5"/>
<circle class="st0" cx="1075.2" cy="813.3" r="9.5"/>
</svg>
