<?xml version="1.0" encoding="utf-8"?>
<!-- Generator: Adobe Illustrator 28.0.0, SVG Export Plug-In . SVG Version: 6.00 Build 0)  -->
<svg version="1.1" id="Layer_1" xmlns="http://www.w3.org/2000/svg" xmlns:xlink="http://www.w3.org/1999/xlink" x="0px" y="0px"
	 viewBox="0 0 1320 1335.1189" style="enable-background:new 0 0 1320 1335.1189;" xml:space="preserve">
<style type="text/css">
	.st0{fill:#FFFFFF;stroke:#000000;stroke-miterlimit:10;}
	.st1{fill:#FFFFFF;}
	.st2{fill:none;stroke:#000000;stroke-miterlimit:10;}
	.st3{font-family:'MyriadPro-Regular';}
	.st4{font-size:12px;}
	.st5{fill:none;stroke:#231F20;stroke-miterlimit:10;}
	.st6{fill:none;stroke:#231F20;stroke-width:1;stroke-miterlimit:10.0002;}
</style>
<rect x="17.4595" y="36" class="st0" width="1224" height="324"/>
<g>
	<g>
		<path d="M343.1232,133.9262c31.9915,39.1312,8.3793,153.1734-36.6001,176.6792c-54.578,28.5218-98.1471,28.7645-120.9725,16.592
			c-32.0395-17.0863-74.1989-102.5398-68.6861-146.2214c5.6228-44.5531,83.4621-105.6667,83.4621-105.6667
			S251.6161,21.9971,343.1232,133.9262z"/>
		<circle class="st1" cx="237.1919" cy="211.55" r="82.9945"/>
		<circle class="st0" cx="203.9844" cy="311.9837" r="4.5071"/>
	</g>
	<g>
		<circle class="st1" cx="237.1027" cy="94.7773" r="17.1496"/>
		<line class="st2" x1="225.4255" y1="94.7773" x2="248.8078" y2="94.7773"/>
		<line class="st2" x1="237.1654" y1="83.3665" x2="237.2536" y2="105.69"/>
	</g>
</g>
<g>
	<g>
		<path d="M608.2145,133.9262c31.9915,39.1312,8.3793,153.1734-36.6001,176.6792c-54.5779,28.5218-98.1472,28.7645-120.9725,16.592
			c-32.0395-17.0863-74.1989-102.5398-68.6861-146.2214c5.6228-44.5531,83.4621-105.6667,83.4621-105.6667
			S516.7075,21.9971,608.2145,133.9262z"/>
		<circle class="st1" cx="502.2833" cy="211.55" r="82.9945"/>
		<circle class="st0" cx="469.0757" cy="311.9837" r="4.5071"/>
	</g>
	<g>
		<circle class="st1" cx="502.1941" cy="94.7773" r="17.1496"/>
		<line class="st2" x1="490.5169" y1="94.7773" x2="513.8992" y2="94.7773"/>
		<line class="st2" x1="502.2568" y1="83.3665" x2="502.345" y2="105.69"/>
	</g>
</g>
<g>
	<g>
		<path d="M873.3059,133.9262c31.9915,39.1312,8.3793,153.1734-36.6002,176.6792c-54.5779,28.5218-98.1471,28.7645-120.9725,16.592
			c-32.0396-17.0863-74.1989-102.5398-68.6861-146.2214c5.6228-44.5531,83.4621-105.6667,83.4621-105.6667
			S781.7988,21.9971,873.3059,133.9262z"/>
		<circle class="st1" cx="767.3746" cy="211.55" r="82.9945"/>
		<circle class="st0" cx="734.1671" cy="311.9837" r="4.5071"/>
	</g>
	<g>
		<circle class="st1" cx="767.2854" cy="94.7773" r="17.1496"/>
		<line class="st2" x1="755.6082" y1="94.7773" x2="778.9905" y2="94.7773"/>
		<line class="st2" x1="767.3481" y1="83.3665" x2="767.4363" y2="105.69"/>
	</g>
</g>
<g>
	<g>
		<path d="M1138.3972,133.9262c31.9915,39.1312,8.3794,153.1734-36.6001,176.6792c-54.5779,28.5218-98.1471,28.7645-120.9725,16.592
			c-32.0395-17.0863-74.1989-102.5398-68.686-146.2214c5.6228-44.5531,83.4621-105.6667,83.4621-105.6667
			S1046.8903,21.9971,1138.3972,133.9262z"/>
		<circle class="st1" cx="1032.4661" cy="211.55" r="82.9945"/>
		<circle class="st0" cx="999.2584" cy="311.9837" r="4.5071"/>
	</g>
	<g>
		
			<ellipse transform="matrix(0.1602 -0.9871 0.9871 0.1602 773.455 1098.6418)" class="st1" cx="1032.3767" cy="94.7773" rx="17.1496" ry="17.1496"/>
		<line class="st2" x1="1020.6996" y1="94.7773" x2="1044.0819" y2="94.7773"/>
		<line class="st2" x1="1032.4395" y1="83.3665" x2="1032.5277" y2="105.69"/>
	</g>
</g>
<rect x="17.4595" y="403.765" class="st0" width="1224" height="324"/>
<path d="M131.1269,501.6912c-31.9915,39.1312-8.3793,153.1734,36.6001,176.6792c54.5779,28.5218,98.1471,28.7645,120.9725,16.592
	c32.0395-17.0863,74.1989-102.5398,68.6861-146.2214c-5.6228-44.5531-83.4621-105.6667-83.4621-105.6667
	S222.634,389.7621,131.1269,501.6912z"/>
<circle class="st0" cx="270.2657" cy="679.7487" r="4.5071"/>
<g>
	<circle class="st1" cx="237.1474" cy="462.5423" r="9.5244"/>
	<line class="st2" x1="243.6326" y1="462.5423" x2="230.6467" y2="462.5423"/>
	<line class="st2" x1="237.1126" y1="456.2051" x2="237.0636" y2="468.6029"/>
</g>
<path d="M396.2183,501.6912c-31.9915,39.1312-8.3793,153.1734,36.6001,176.6792c54.578,28.5218,98.1472,28.7645,120.9725,16.592
	c32.0395-17.0863,74.1989-102.5398,68.6861-146.2214c-5.6228-44.5531-83.4622-105.6667-83.4622-105.6667
	S487.7253,389.7621,396.2183,501.6912z"/>
<circle class="st0" cx="535.3571" cy="679.7487" r="4.5071"/>
<g>
	<circle class="st1" cx="502.2387" cy="462.5423" r="9.5244"/>
	<line class="st2" x1="508.7239" y1="462.5423" x2="495.738" y2="462.5423"/>
	<line class="st2" x1="502.2039" y1="456.2051" x2="502.1549" y2="468.6029"/>
</g>
<path d="M661.3096,501.6912c-31.9915,39.1312-8.3793,153.1734,36.6001,176.6792c54.5779,28.5218,98.1471,28.7645,120.9725,16.592
	c32.0395-17.0863,74.1989-102.5398,68.6861-146.2214c-5.6228-44.5531-83.4622-105.6667-83.4622-105.6667
	S752.8167,389.7621,661.3096,501.6912z"/>
<circle class="st0" cx="800.4484" cy="679.7487" r="4.5071"/>
<g>
	<circle class="st1" cx="767.3301" cy="462.5423" r="9.5244"/>
	<line class="st2" x1="773.8153" y1="462.5423" x2="760.8294" y2="462.5423"/>
	<line class="st2" x1="767.2953" y1="456.2051" x2="767.2463" y2="468.6029"/>
</g>
<path d="M926.401,501.6912c-31.9915,39.1312-8.3793,153.1734,36.6001,176.6792c54.5779,28.5218,98.1471,28.7645,120.9725,16.592
	c32.0396-17.0863,74.1989-102.5398,68.686-146.2214c-5.6228-44.5531-83.462-105.6667-83.462-105.6667
	S1017.908,389.7621,926.401,501.6912z"/>
<circle class="st0" cx="1065.5398" cy="679.7487" r="4.5071"/>
<g>
	<circle class="st1" cx="1032.4215" cy="462.5423" r="9.5244"/>
	<line class="st2" x1="1038.9066" y1="462.5423" x2="1025.9208" y2="462.5423"/>
	<line class="st2" x1="1032.3866" y1="456.2051" x2="1032.3376" y2="468.6029"/>
</g>
<text transform="matrix(1 0 0 1 304.0054 72.7961)" class="st3 st4">X</text>
<rect x="17.4595" y="755.9328" class="st0" width="1224" height="324"/>
<path d="M200.3266,1042.0773c0,0-77.8393-61.1136-83.4621-105.6667c-5.5128-43.6816,36.6466-129.1351,68.6861-146.2214
	c22.8254-12.1725,66.3945-11.9297,120.9725,16.592c44.9794,23.5058,68.5916,137.548,36.6001,176.6792
	C251.6161,1095.3895,200.3266,1042.0773,200.3266,1042.0773z"/>
<circle class="st1" cx="237.1919" cy="916.8365" r="101.5211"/>
<path d="M465.4179,1042.0773c0,0-77.8393-61.1136-83.4621-105.6667c-5.5128-43.6816,36.6466-129.1351,68.6861-146.2214
	c22.8253-12.1725,66.3946-11.9297,120.9725,16.592c44.9794,23.5058,68.5916,137.548,36.6001,176.6792
	C516.7075,1095.3895,465.4179,1042.0773,465.4179,1042.0773z"/>
<path d="M730.5092,1042.0773c0,0-77.8393-61.1136-83.4621-105.6667c-5.5128-43.6816,36.6465-129.1351,68.6861-146.2214
	c22.8254-12.1725,66.3947-11.9297,120.9725,16.592c44.9795,23.5058,68.5917,137.548,36.6002,176.6792
	C781.7988,1095.3895,730.5092,1042.0773,730.5092,1042.0773z"/>
<path d="M995.6007,1042.0773c0,0-77.8393-61.1136-83.4621-105.6667c-5.5129-43.6816,36.6465-129.1351,68.686-146.2214
	c22.8254-12.1725,66.3947-11.9297,120.9725,16.592c44.9795,23.5058,68.5916,137.548,36.6001,176.6792
	C1046.8903,1095.3895,995.6007,1042.0773,995.6007,1042.0773z"/>
<g>
	<path class="st5" d="M298.6004,956.6337c-0.614,13.3123-25.3311,31.5312-38.2965,28.2221
		c-15.7322-4.0152-24.3241-11.6405-26.6591-18.0488c-3.2777-8.9951,3.499-33.1874,12.2735-40.7877
		c8.9496-7.752,34.9858-6.0353,34.9858-6.0353S300.3568,918.5558,298.6004,956.6337z"/>
	<path class="st5" d="M251.946,940.0878c-0.4485,0.5741-6.8693,11.6554-5.4508,23.3107"/>
	<path class="st5" d="M241.7264,951.004c1.7135-6.1014,4.5645-16.7939,19.1381-21.9131c2.414-0.848,10.3674-2.1693,13.7162,0.6938
		c3.188,2.7257,2.9536,8.3409-3.4071,14.6362c-8.3318,8.246-19.4137,11.2362-19.4137,11.2362s-3.9128,13.3635,12.5576,14.3377"/>
	
		<ellipse transform="matrix(0.3117 -0.9502 0.9502 0.3117 -706.645 927.0101)" class="st6" cx="286.5302" cy="951.2546" rx="3.9309" ry="2.3685"/>
	
		<ellipse transform="matrix(0.3117 -0.9502 0.9502 0.3117 -730.7268 909.7249)" class="st6" cx="262.5585" cy="959.2341" rx="3.9309" ry="2.3685"/>
	<line class="st5" x1="282.9187" y1="930.5909" x2="274.9997" y2="957.6038"/>
	<path class="st5" d="M283.0909,946.0516l-6.4108,7.1625c0,0,3.1936,3.0515,3.7024,3.2587"/>
	<path class="st5" d="M271.432,959.1268c-2.6696,0.8604-3.8178-1.4886-2.813-8.3791 M263.0521,979.4357
		c4.9079-9.4271,8.7252-19.3035,10.7309-29.926"/>
</g>
<circle class="st1" cx="502.2833" cy="916.8365" r="101.5211"/>
<g>
	<path class="st5" d="M563.6918,956.6337c-0.614,13.3123-25.3311,31.5312-38.2965,28.2221
		c-15.7322-4.0152-24.3241-11.6405-26.6591-18.0488c-3.2777-8.9951,3.499-33.1874,12.2735-40.7877
		c8.9496-7.752,34.9858-6.0353,34.9858-6.0353S565.4482,918.5558,563.6918,956.6337z"/>
	<path class="st5" d="M517.0374,940.0878c-0.4485,0.5741-6.8693,11.6554-5.4508,23.3107"/>
	<path class="st5" d="M506.8178,951.004c1.7135-6.1014,4.5645-16.7939,19.1381-21.9131c2.414-0.848,10.3674-2.1693,13.7162,0.6938
		c3.188,2.7257,2.9536,8.3409-3.4071,14.6362c-8.3318,8.246-19.4137,11.2362-19.4137,11.2362s-3.9128,13.3635,12.5576,14.3377"/>
	
		<ellipse transform="matrix(0.3117 -0.9502 0.9502 0.3117 -524.1811 1178.8953)" class="st6" cx="551.6216" cy="951.2546" rx="3.9309" ry="2.3685"/>
	
		<ellipse transform="matrix(0.3117 -0.9502 0.9502 0.3117 -548.2629 1161.6101)" class="st6" cx="527.65" cy="959.2341" rx="3.9309" ry="2.3685"/>
	<line class="st5" x1="548.0101" y1="930.5909" x2="540.0911" y2="957.6038"/>
	<path class="st5" d="M548.1823,946.0516l-6.4108,7.1625c0,0,3.1936,3.0515,3.7024,3.2587"/>
	<path class="st5" d="M536.5234,959.1268c-2.6696,0.8604-3.8178-1.4886-2.813-8.3791 M528.1436,979.4357
		c4.9079-9.4271,8.7252-19.3035,10.7309-29.926"/>
</g>
<circle class="st1" cx="767.3747" cy="916.8365" r="101.5211"/>
<g>
	<path class="st5" d="M828.7832,956.6337c-0.614,13.3123-25.3311,31.5312-38.2965,28.2221
		c-15.7322-4.0152-24.3241-11.6405-26.6591-18.0488c-3.2776-8.9951,3.499-33.1874,12.2735-40.7877
		c8.9496-7.752,34.9858-6.0353,34.9858-6.0353S830.5396,918.5558,828.7832,956.6337z"/>
	<path class="st5" d="M782.1288,940.0878c-0.4485,0.5741-6.8693,11.6554-5.4508,23.3107"/>
	<path class="st5" d="M771.9092,951.004c1.7135-6.1014,4.5645-16.7939,19.1381-21.9131c2.414-0.848,10.3674-2.1693,13.7162,0.6938
		c3.188,2.7257,2.9536,8.3409-3.4071,14.6362c-8.3318,8.246-19.4137,11.2362-19.4137,11.2362s-3.9128,13.3635,12.5576,14.3377"/>
	
		<ellipse transform="matrix(0.3117 -0.9502 0.9502 0.3117 -341.7172 1430.7805)" class="st6" cx="816.713" cy="951.2546" rx="3.9309" ry="2.3685"/>
	
		<ellipse transform="matrix(0.3117 -0.9502 0.9502 0.3117 -365.7989 1413.4952)" class="st6" cx="792.7413" cy="959.2341" rx="3.9309" ry="2.3685"/>
	<line class="st5" x1="813.1015" y1="930.5909" x2="805.1826" y2="957.6038"/>
	<path class="st5" d="M813.2737,946.0516l-6.4108,7.1625c0,0,3.1936,3.0515,3.7024,3.2587"/>
	<path class="st5" d="M801.6148,959.1268c-2.6696,0.8604-3.8178-1.4886-2.813-8.3791 M793.2349,979.4357
		c4.9079-9.4271,8.7252-19.3035,10.7309-29.926"/>
</g>
<circle class="st1" cx="1032.4661" cy="916.8365" r="101.5211"/>
<g>
	<path class="st5" d="M1093.8746,956.6337c-0.614,13.3123-25.3311,31.5312-38.2965,28.2221
		c-15.7322-4.0152-24.3241-11.6405-26.6592-18.0488c-3.2776-8.9951,3.499-33.1874,12.2736-40.7877
		c8.9496-7.752,34.9858-6.0353,34.9858-6.0353S1095.631,918.5558,1093.8746,956.6337z"/>
	<path class="st5" d="M1047.2202,940.0878c-0.4485,0.5741-6.8693,11.6554-5.4508,23.3107"/>
	<path class="st5" d="M1037.0006,951.004c1.7135-6.1014,4.5645-16.7939,19.1381-21.9131c2.4141-0.848,10.3674-2.1693,13.7162,0.6938
		c3.188,2.7257,2.9536,8.3409-3.4071,14.6362c-8.3318,8.246-19.4137,11.2362-19.4137,11.2362s-3.9127,13.3635,12.5576,14.3377"/>
	
		<ellipse transform="matrix(0.3117 -0.9502 0.9502 0.3117 -159.2532 1682.6656)" class="st6" cx="1081.8044" cy="951.2546" rx="3.9309" ry="2.3685"/>
	
		<ellipse transform="matrix(0.3117 -0.9502 0.9502 0.3117 -183.335 1665.3805)" class="st6" cx="1057.8328" cy="959.2341" rx="3.9309" ry="2.3685"/>
	<line class="st5" x1="1078.1929" y1="930.5909" x2="1070.2739" y2="957.6038"/>
	<path class="st5" d="M1078.3651,946.0516l-6.4108,7.1625c0,0,3.1936,3.0515,3.7024,3.2587"/>
	<path class="st5" d="M1066.7062,959.1268c-2.6696,0.8604-3.8177-1.4886-2.813-8.3791 M1058.3263,979.4357
		c4.908-9.4271,8.7252-19.3035,10.731-29.926"/>
</g>
</svg>
