<?xml version="1.0" encoding="utf-8"?>
<!-- Generator: Adobe Illustrator 28.0.0, SVG Export Plug-In . SVG Version: 6.00 Build 0)  -->
<svg version="1.1" id="Layer_1" xmlns="http://www.w3.org/2000/svg" xmlns:xlink="http://www.w3.org/1999/xlink" x="0px" y="0px"
	 viewBox="0 0 1320 1135.8" style="enable-background:new 0 0 1320 1135.8;" xml:space="preserve">
<style type="text/css">
	.st0{fill:none;stroke:#0068FF;stroke-miterlimit:10;}
	.st1{stroke:#000000;stroke-miterlimit:10;}
	.st2{fill:#FFFFFF;stroke:#000000;stroke-miterlimit:10;}
</style>
<rect x="17.5" y="35.8264" class="st0" width="1224" height="342"/>
<path class="st1" d="M301.5,142c32,39.1,8.4,153.2-36.6,176.7c-54.6,28.5-98.1,28.8-121,16.6c-32-17.1-74.2-102.5-68.7-146.2
	c5.6-44.6,83.5-105.7,83.5-105.7S210,30.1,301.5,142z"/>
<circle class="st2" cx="162.3" cy="320" r="4.5"/>
<circle class="st2" cx="195.5" cy="102.8" r="17.1"/>
<ellipse transform="matrix(0.8487 -0.5289 0.5289 0.8487 -86.6242 136.5814)" class="st2" cx="195.3908" cy="219.6836" rx="101.1042" ry="87.2036"/>
<path class="st1" d="M589.1,142c32,39.1,8.4,153.2-36.6,176.7c-54.6,28.5-98.1,28.8-121,16.6c-32-17.1-74.2-102.5-68.7-146.2
	c5.6-44.6,83.5-105.7,83.5-105.7S497.5,30.1,589.1,142z"/>
<circle class="st2" cx="449.9" cy="320" r="4.5"/>
<circle class="st2" cx="483" cy="102.8" r="17.1"/>
<ellipse transform="matrix(0.8487 -0.5289 0.5289 0.8487 -43.1217 288.7107)" class="st2" cx="483.0178" cy="219.7191" rx="101.104" ry="87.2036"/>
<path class="st1" d="M888.1,142c32,39.1,8.4,153.2-36.6,176.7c-54.6,28.5-98.1,28.8-121,16.6c-32-17.1-74.2-102.5-68.7-146.2
	c5.6-44.6,83.5-105.7,83.5-105.7S796.6,30.1,888.1,142z"/>
<circle class="st2" cx="749" cy="320" r="4.5"/>
<circle class="st2" cx="782.1" cy="102.8" r="17.1"/>
<ellipse transform="matrix(0.8487 -0.5289 0.5289 0.8487 2.1623 446.9591)" class="st2" cx="782.23" cy="219.7005" rx="101.1041" ry="87.2036"/>
<path class="st1" d="M1181.2,142c32,39.1,8.4,153.2-36.6,176.7c-54.6,28.5-98.1,28.8-121,16.6c-32-17.1-74.2-102.5-68.7-146.2
	c5.6-44.6,83.4999-105.7,83.4999-105.7S1089.7,30.1,1181.2,142z"/>
<circle class="st2" cx="1042" cy="320" r="4.5"/>
<ellipse transform="matrix(0.1602 -0.9871 0.9871 0.1602 801.394 1147.5906)" class="st2" cx="1075.1232" cy="102.825" rx="17.1007" ry="17.1009"/>
<ellipse transform="matrix(0.8487 -0.5289 0.5289 0.8487 46.55 602.0273)" class="st2" cx="1075.4352" cy="219.6584" rx="101.104" ry="87.2036"/>
<text transform="matrix(1 0 0 1 304.0054 -283.8423)" style="font-family:'ArialMT'; font-size:12px;">X</text>
</svg>
