<?xml version="1.0" encoding="utf-8"?>
<!-- Generator: Adobe Illustrator 28.0.0, SVG Export Plug-In . SVG Version: 6.00 Build 0)  -->
<svg version="1.1" id="Layer_1" xmlns="http://www.w3.org/2000/svg" xmlns:xlink="http://www.w3.org/1999/xlink" x="0px" y="0px"
	 viewBox="0 0 1320 1335.1189" style="enable-background:new 0 0 1320 1335.1189;" xml:space="preserve">
<style type="text/css">
	.st0{fill:#FFFFFF;stroke:#000000;stroke-miterlimit:10;}
	.st1{font-family:'MyriadPro-Regular';}
	.st2{font-size:12px;}
	.st3{fill:#FFFFFF;}
	.st4{fill:none;stroke:#000000;stroke-miterlimit:10;}
	.st5{fill:none;stroke:#231F20;stroke-miterlimit:10;}
</style>
<rect x="17.4595" y="36" class="st0" width="1224" height="324"/>
<g>
	<g>
		<path d="M115.8306,368.1875h-0.0239l-1.3555,0.7319l-0.2041-0.8037l1.7031-0.9116h0.8999V375h-1.0195V368.1875z"/>
		<path d="M119.7793,374.3765c0-0.4438,0.2998-0.7559,0.7197-0.7559s0.7075,0.312,0.7075,0.7559
			c0,0.4316-0.2759,0.7554-0.7197,0.7554C120.0674,375.1318,119.7793,374.8081,119.7793,374.3765z"/>
		<path d="M136.0132,374.7842c-0.2759,0.144-0.8872,0.3359-1.667,0.3359c-1.751,0-2.8906-1.1875-2.8906-2.9624
			c0-1.7871,1.2236-3.0825,3.1187-3.0825c0.6235,0,1.1753,0.1558,1.4629,0.2998l-0.2397,0.8154
			c-0.252-0.1436-0.6475-0.2754-1.2231-0.2754c-1.3315,0-2.0513,0.9834-2.0513,2.1943c0,1.3433,0.8638,2.1709,2.0151,2.1709
			c0.5996,0,0.9956-0.1558,1.2954-0.2876L136.0132,374.7842z"/>
		<path d="M142.1089,373.417c0,0.5996,0.0117,1.1274,0.0479,1.583h-0.9355l-0.0601-0.9473h-0.0239
			c-0.2759,0.4678-0.8872,1.0791-1.9189,1.0791c-0.9111,0-2.0029-0.5034-2.0029-2.5425v-3.394h1.0557v3.2139
			c0,1.1035,0.3359,1.8472,1.2954,1.8472c0.7075,0,1.1992-0.4917,1.3911-0.9595c0.0601-0.1558,0.0957-0.3477,0.0957-0.5396v-3.562
			h1.0557V373.417z"/>
		<path d="M145.1348,367.5283v1.667h1.5112v0.8032h-1.5112v3.1304c0,0.7197,0.2036,1.1274,0.7915,1.1274
			c0.2759,0,0.4795-0.0361,0.6118-0.0718l0.0479,0.7915c-0.2041,0.084-0.5278,0.144-0.9355,0.144
			c-0.4917,0-0.8877-0.1562-1.1396-0.4438c-0.2998-0.312-0.4077-0.8276-0.4077-1.5112v-3.1665h-0.8994v-0.8032h0.8994v-1.3916
			L145.1348,367.5283z"/>
		<path d="M155.6323,372.0498c0,2.1465-1.4868,3.082-2.8901,3.082c-1.5713,0-2.7827-1.1514-2.7827-2.9863
			c0-1.9429,1.2715-3.082,2.8784-3.082C154.5054,369.0635,155.6323,370.2744,155.6323,372.0498z M151.0269,372.1094
			c0,1.2715,0.7319,2.231,1.7632,2.231c1.0073,0,1.7632-0.9473,1.7632-2.2549c0-0.9834-0.4917-2.2305-1.7393-2.2305
			C151.5669,369.855,151.0269,371.0063,151.0269,372.1094z"/>
		<path d="M161.8247,373.417c0,0.5996,0.0117,1.1274,0.0479,1.583h-0.9355l-0.0601-0.9473h-0.0239
			c-0.2759,0.4678-0.8872,1.0791-1.9189,1.0791c-0.9111,0-2.0029-0.5034-2.0029-2.5425v-3.394h1.0557v3.2139
			c0,1.1035,0.3359,1.8472,1.2954,1.8472c0.7075,0,1.1992-0.4917,1.3911-0.9595c0.0601-0.1558,0.0957-0.3477,0.0957-0.5396v-3.562
			h1.0557V373.417z"/>
		<path d="M164.8506,367.5283v1.667h1.5112v0.8032h-1.5112v3.1304c0,0.7197,0.2036,1.1274,0.7915,1.1274
			c0.2759,0,0.4795-0.0361,0.6118-0.0718l0.0479,0.7915c-0.2041,0.084-0.5278,0.144-0.9355,0.144
			c-0.4917,0-0.8877-0.1562-1.1396-0.4438c-0.2998-0.312-0.4077-0.8276-0.4077-1.5112v-3.1665h-0.8994v-0.8032h0.8994v-1.3916
			L164.8506,367.5283z"/>
		<path d="M167.4072,373.9204c0.312,0.2041,0.8638,0.4199,1.3916,0.4199c0.7676,0,1.127-0.3838,1.127-0.8633
			c0-0.5039-0.2998-0.7798-1.0791-1.0679c-1.0435-0.3716-1.5352-0.9473-1.5352-1.6431c0-0.9351,0.7554-1.7026,2.0029-1.7026
			c0.5874,0,1.1035,0.1675,1.4272,0.3594l-0.2642,0.7676c-0.2275-0.1436-0.6475-0.3354-1.187-0.3354
			c-0.624,0-0.9717,0.3599-0.9717,0.7915c0,0.4795,0.3477,0.6953,1.1035,0.9834c1.0073,0.3838,1.5229,0.8877,1.5229,1.751
			c0,1.0195-0.7915,1.7393-2.1709,1.7393c-0.6353,0-1.2231-0.1562-1.6309-0.396L167.4072,373.9204z"/>
		<path d="M173.4785,367.564c0.0122,0.3599-0.252,0.6479-0.6714,0.6479c-0.3721,0-0.6357-0.2881-0.6357-0.6479
			c0-0.3716,0.2759-0.6597,0.6597-0.6597C173.2266,366.9043,173.4785,367.1924,173.4785,367.564z M172.3032,375v-5.8047h1.0557V375
			H172.3032z"/>
		<path d="M180.124,366.4849v7.0161c0,0.5156,0.0122,1.103,0.0479,1.499h-0.9473l-0.0479-1.0073h-0.0239
			c-0.3242,0.6475-1.0317,1.1392-1.979,1.1392c-1.4033,0-2.4829-1.1875-2.4829-2.9502c-0.0117-1.9312,1.1875-3.1182,2.6025-3.1182
			c0.8877,0,1.4873,0.4194,1.7515,0.8872h0.0239v-3.4658H180.124z M179.0688,371.5581c0-0.1323-0.0122-0.312-0.0483-0.4438
			c-0.1558-0.6719-0.7314-1.2236-1.5229-1.2236c-1.0913,0-1.7393,0.9595-1.7393,2.2432c0,1.1753,0.5757,2.1465,1.7153,2.1465
			c0.7075,0,1.355-0.4678,1.5469-1.2593c0.0361-0.144,0.0483-0.2876,0.0483-0.4556V371.5581z"/>
		<path d="M182.4668,372.2896c0.0239,1.4272,0.9355,2.0146,1.9907,2.0146c0.7554,0,1.2114-0.1318,1.6069-0.2998l0.1802,0.7559
			c-0.3721,0.168-1.0073,0.3599-1.9312,0.3599c-1.7871,0-2.8545-1.1758-2.8545-2.9268s1.0317-3.1299,2.7227-3.1299
			c1.895,0,2.3989,1.667,2.3989,2.7344c0,0.2158-0.0244,0.3838-0.0361,0.4917H182.4668z M185.561,371.5337
			c0.0117-0.6714-0.2759-1.7148-1.4634-1.7148c-1.0674,0-1.5352,0.9834-1.6191,1.7148H185.561z"/>
		<path d="M191.7061,367.5283v1.667h1.5112v0.8032h-1.5112v3.1304c0,0.7197,0.2036,1.1274,0.7915,1.1274
			c0.2759,0,0.4795-0.0361,0.6118-0.0718l0.0479,0.7915c-0.2041,0.084-0.5278,0.144-0.9355,0.144
			c-0.4917,0-0.8877-0.1562-1.1396-0.4438c-0.2998-0.312-0.4077-0.8276-0.4077-1.5112v-3.1665h-0.8994v-0.8032h0.8994v-1.3916
			L191.7061,367.5283z"/>
		<path d="M199.6597,372.0498c0,2.1465-1.4868,3.082-2.8901,3.082c-1.5713,0-2.7827-1.1514-2.7827-2.9863
			c0-1.9429,1.2715-3.082,2.8784-3.082C198.5327,369.0635,199.6597,370.2744,199.6597,372.0498z M195.0542,372.1094
			c0,1.2715,0.7319,2.231,1.7632,2.231c1.0073,0,1.7632-0.9473,1.7632-2.2549c0-0.9834-0.4917-2.2305-1.7393-2.2305
			C195.5942,369.855,195.0542,371.0063,195.0542,372.1094z"/>
		<path d="M208.5518,366.4849v7.0161c0,0.5156,0.0122,1.103,0.0479,1.499h-0.9473l-0.0479-1.0073h-0.0239
			c-0.3242,0.6475-1.0317,1.1392-1.979,1.1392c-1.4033,0-2.4829-1.1875-2.4829-2.9502c-0.0117-1.9312,1.1875-3.1182,2.6025-3.1182
			c0.8877,0,1.4873,0.4194,1.7515,0.8872h0.0239v-3.4658H208.5518z M207.4966,371.5581c0-0.1323-0.0122-0.312-0.0483-0.4438
			c-0.1558-0.6719-0.7314-1.2236-1.5229-1.2236c-1.0913,0-1.7393,0.9595-1.7393,2.2432c0,1.1753,0.5757,2.1465,1.7153,2.1465
			c0.7075,0,1.355-0.4678,1.5469-1.2593c0.0361-0.144,0.0483-0.2876,0.0483-0.4556V371.5581z"/>
		<path d="M210.894,372.2896c0.0239,1.4272,0.9351,2.0146,1.9907,2.0146c0.7554,0,1.2114-0.1318,1.6069-0.2998l0.1802,0.7559
			c-0.3721,0.168-1.0073,0.3599-1.9312,0.3599c-1.7871,0-2.8545-1.1758-2.8545-2.9268s1.0317-3.1299,2.7227-3.1299
			c1.895,0,2.3989,1.667,2.3989,2.7344c0,0.2158-0.0244,0.3838-0.0361,0.4917H210.894z M213.9883,371.5337
			c0.0117-0.6714-0.2759-1.7148-1.4634-1.7148c-1.0674,0-1.5352,0.9834-1.6191,1.7148H213.9883z"/>
		<path d="M216.3184,371.0903c0-0.7437-0.0239-1.3433-0.0479-1.895h0.9473l0.0479,0.9951h0.0244
			c0.4316-0.7075,1.1152-1.127,2.0625-1.127c1.4033,0,2.459,1.187,2.459,2.9502c0,2.0869-1.2715,3.1182-2.6387,3.1182
			c-0.7676,0-1.4395-0.3359-1.7871-0.9116h-0.0239v3.1543h-1.0435V371.0903z M217.3618,372.6372
			c0,0.1558,0.0239,0.2998,0.0479,0.4316c0.1919,0.7319,0.8276,1.2354,1.5835,1.2354c1.1152,0,1.7627-0.9111,1.7627-2.2427
			c0-1.1631-0.6113-2.1587-1.7271-2.1587c-0.7197,0-1.3911,0.5156-1.5952,1.3071c-0.0356,0.1318-0.0718,0.2881-0.0718,0.4316
			V372.6372z"/>
		<path d="M224.4175,367.5283v1.667h1.5112v0.8032h-1.5112v3.1304c0,0.7197,0.2036,1.1274,0.7915,1.1274
			c0.2759,0,0.4795-0.0361,0.6113-0.0718l0.0483,0.7915c-0.2041,0.084-0.5278,0.144-0.9355,0.144
			c-0.4917,0-0.8877-0.1562-1.1396-0.4438c-0.2998-0.312-0.4077-0.8276-0.4077-1.5112v-3.1665h-0.8994v-0.8032h0.8994v-1.3916
			L224.4175,367.5283z"/>
		<path d="M227.1182,366.4849h1.0557v3.6216h0.0239c0.168-0.2998,0.4316-0.5635,0.7554-0.7432
			c0.312-0.1802,0.6836-0.2998,1.0796-0.2998c0.7793,0,2.0269,0.4795,2.0269,2.4824V375h-1.0557v-3.334
			c0-0.9355-0.3477-1.7271-1.3433-1.7271c-0.6836,0-1.2231,0.4795-1.415,1.0552c-0.0601,0.144-0.0718,0.2998-0.0718,0.5039V375
			h-1.0557V366.4849z"/>
		<path d="M241.5747,372.0498c0,2.1465-1.4868,3.082-2.8901,3.082c-1.5713,0-2.7827-1.1514-2.7827-2.9863
			c0-1.9429,1.2715-3.082,2.8784-3.082C240.4478,369.0635,241.5747,370.2744,241.5747,372.0498z M236.9692,372.1094
			c0,1.2715,0.7319,2.231,1.7632,2.231c1.0073,0,1.7632-0.9473,1.7632-2.2549c0-0.9834-0.4917-2.2305-1.7393-2.2305
			C237.5093,369.855,236.9692,371.0063,236.9692,372.1094z"/>
		<path d="M243.0176,375v-5.0015h-0.8154v-0.8032h0.8154v-0.2759c0-0.8154,0.1802-1.5591,0.6719-2.0269
			c0.3955-0.3838,0.9233-0.54,1.415-0.54c0.3716,0,0.6958,0.084,0.8994,0.168l-0.144,0.8159
			c-0.1558-0.0723-0.3716-0.1323-0.6714-0.1323c-0.8994,0-1.1274,0.792-1.1274,1.6792v0.312h1.4033v0.8032h-1.4033V375H243.0176z"/>
		<path d="M248.7056,374.3765c0-0.4438,0.2998-0.7559,0.7197-0.7559s0.7075,0.312,0.7075,0.7559
			c0,0.4316-0.2759,0.7554-0.7197,0.7554C248.9937,375.1318,248.7056,374.8081,248.7056,374.3765z"/>
		<path d="M256.167,367.2041v0.6958L252.7725,375h-1.0913l3.3823-6.896v-0.0244h-3.814v-0.8755H256.167z"/>
		<path d="M261.915,368.0918h-2.9746l-0.2998,2.0029c0.1797-0.0239,0.3477-0.0479,0.6357-0.0479
			c0.5996,0,1.1992,0.1318,1.6792,0.4194c0.6113,0.3481,1.1152,1.0195,1.1152,2.0029c0,1.5234-1.2114,2.6626-2.9023,2.6626
			c-0.8516,0-1.5713-0.2397-1.9429-0.4795l0.2637-0.8037c0.3237,0.1919,0.9595,0.4316,1.667,0.4316
			c0.9956,0,1.8472-0.6475,1.8472-1.6909c-0.0122-1.0073-0.6836-1.7271-2.2427-1.7271c-0.4438,0-0.792,0.0479-1.0796,0.084
			l0.5039-3.7422h3.73V368.0918z"/>
	</g>
</g>
<text transform="matrix(1 0 0 1 284.8213 375)" class="st1 st2">2. cut inner circle to dept of .75”</text>
<text transform="matrix(1 0 0 1 459.2305 375)" class="st1 st2">3. Cut magnet to depth of </text>
<text transform="matrix(1 0 0 1 591 374)" class="st1 st2">Xmm</text>
<g>
	<g>
		<path d="M343.1232,133.9262c31.9915,39.1312,8.3793,153.1734-36.6001,176.6792c-54.578,28.5218-98.1471,28.7645-120.9725,16.592
			c-32.0395-17.0863-74.1989-102.5398-68.6861-146.2214c5.6228-44.5531,83.4621-105.6667,83.4621-105.6667
			S251.6161,21.9971,343.1232,133.9262z"/>
		<circle class="st3" cx="237.1919" cy="211.55" r="82.9945"/>
		<circle class="st0" cx="203.9844" cy="311.9837" r="4.5071"/>
	</g>
	<g>
		<circle class="st3" cx="237.1027" cy="94.7773" r="17.1496"/>
		<line class="st4" x1="225.4255" y1="94.7773" x2="248.8078" y2="94.7773"/>
		<line class="st4" x1="237.1654" y1="83.3665" x2="237.2536" y2="105.69"/>
	</g>
</g>
<g>
	<g>
		<path d="M608.2145,133.9262c31.9915,39.1312,8.3793,153.1734-36.6001,176.6792c-54.5779,28.5218-98.1472,28.7645-120.9725,16.592
			c-32.0395-17.0863-74.1989-102.5398-68.6861-146.2214c5.6228-44.5531,83.4621-105.6667,83.4621-105.6667
			S516.7075,21.9971,608.2145,133.9262z"/>
		<circle class="st3" cx="502.2833" cy="211.55" r="82.9945"/>
		<circle class="st0" cx="469.0757" cy="311.9837" r="4.5071"/>
	</g>
	<g>
		<circle class="st3" cx="502.1941" cy="94.7773" r="17.1496"/>
		<line class="st4" x1="490.5169" y1="94.7773" x2="513.8992" y2="94.7773"/>
		<line class="st4" x1="502.2568" y1="83.3665" x2="502.345" y2="105.69"/>
	</g>
</g>
<g>
	<g>
		<path d="M873.3059,133.9262c31.9915,39.1312,8.3793,153.1734-36.6002,176.6792c-54.5779,28.5218-98.1471,28.7645-120.9725,16.592
			c-32.0396-17.0863-74.1989-102.5398-68.6861-146.2214c5.6228-44.5531,83.4621-105.6667,83.4621-105.6667
			S781.7988,21.9971,873.3059,133.9262z"/>
		<circle class="st3" cx="767.3746" cy="211.55" r="82.9945"/>
		<circle class="st0" cx="734.1671" cy="311.9837" r="4.5071"/>
	</g>
	<g>
		<circle class="st3" cx="767.2854" cy="94.7773" r="17.1496"/>
		<line class="st4" x1="755.6082" y1="94.7773" x2="778.9905" y2="94.7773"/>
		<line class="st4" x1="767.3481" y1="83.3665" x2="767.4363" y2="105.69"/>
	</g>
</g>
<g>
	<g>
		<path d="M1138.3972,133.9262c31.9915,39.1312,8.3794,153.1734-36.6001,176.6792c-54.5779,28.5218-98.1471,28.7645-120.9725,16.592
			c-32.0395-17.0863-74.1989-102.5398-68.686-146.2214c5.6228-44.5531,83.4621-105.6667,83.4621-105.6667
			S1046.8903,21.9971,1138.3972,133.9262z"/>
		<circle class="st3" cx="1032.4661" cy="211.55" r="82.9945"/>
		<circle class="st0" cx="999.2584" cy="311.9837" r="4.5071"/>
	</g>
	<g>
		<circle class="st3" cx="1032.3767" cy="94.7773" r="17.1496"/>
		<line class="st4" x1="1020.6996" y1="94.7773" x2="1044.0819" y2="94.7773"/>
		<line class="st4" x1="1032.4395" y1="83.3665" x2="1032.5277" y2="105.69"/>
	</g>
</g>
<rect x="17.4595" y="403.765" class="st0" width="1224" height="324"/>
<g>
	<g>
		<path d="M115.8306,735.9521h-0.0239l-1.3555,0.7324l-0.2041-0.8037l1.7031-0.9121h0.8999v7.7959h-1.0195V735.9521z"/>
		<path d="M119.7793,742.1416c0-0.4443,0.2998-0.7559,0.7197-0.7559s0.7075,0.3115,0.7075,0.7559
			c0,0.4316-0.2759,0.7549-0.7197,0.7549C120.0674,742.8965,119.7793,742.5732,119.7793,742.1416z"/>
		<path d="M136.0132,742.5488c-0.2759,0.1445-0.8872,0.3359-1.667,0.3359c-1.751,0-2.8906-1.1875-2.8906-2.9619
			c0-1.7871,1.2236-3.083,3.1187-3.083c0.6235,0,1.1753,0.1562,1.4629,0.2998l-0.2397,0.8154
			c-0.252-0.1436-0.6475-0.2754-1.2231-0.2754c-1.3315,0-2.0513,0.9834-2.0513,2.1943c0,1.3438,0.8638,2.1709,2.0151,2.1709
			c0.5996,0,0.9956-0.1553,1.2954-0.2871L136.0132,742.5488z"/>
		<path d="M142.1089,741.1816c0,0.5996,0.0117,1.1279,0.0479,1.583h-0.9355l-0.0601-0.9473h-0.0239
			c-0.2759,0.4678-0.8872,1.0791-1.9189,1.0791c-0.9111,0-2.0029-0.5029-2.0029-2.542V736.96h1.0557v3.2139
			c0,1.1035,0.3359,1.8477,1.2954,1.8477c0.7075,0,1.1992-0.4922,1.3911-0.96c0.0601-0.1553,0.0957-0.3477,0.0957-0.5391V736.96
			h1.0557V741.1816z"/>
		<path d="M145.1348,735.293v1.667h1.5112v0.8037h-1.5112v3.1299c0,0.7197,0.2036,1.1279,0.7915,1.1279
			c0.2759,0,0.4795-0.0361,0.6118-0.0723l0.0479,0.792c-0.2041,0.084-0.5278,0.1436-0.9355,0.1436
			c-0.4917,0-0.8877-0.1562-1.1396-0.4434c-0.2998-0.3125-0.4077-0.8281-0.4077-1.5117v-3.166h-0.8994V736.96h0.8994v-1.3916
			L145.1348,735.293z"/>
		<path d="M155.6323,739.8145c0,2.1465-1.4868,3.082-2.8901,3.082c-1.5713,0-2.7827-1.1514-2.7827-2.9863
			c0-1.9424,1.2715-3.082,2.8784-3.082C154.5054,736.8281,155.6323,738.0391,155.6323,739.8145z M151.0269,739.874
			c0,1.2715,0.7319,2.2314,1.7632,2.2314c1.0073,0,1.7632-0.9473,1.7632-2.2549c0-0.9834-0.4917-2.2305-1.7393-2.2305
			C151.5669,737.6201,151.0269,738.7715,151.0269,739.874z"/>
		<path d="M161.8247,741.1816c0,0.5996,0.0117,1.1279,0.0479,1.583h-0.9355l-0.0601-0.9473h-0.0239
			c-0.2759,0.4678-0.8872,1.0791-1.9189,1.0791c-0.9111,0-2.0029-0.5029-2.0029-2.542V736.96h1.0557v3.2139
			c0,1.1035,0.3359,1.8477,1.2954,1.8477c0.7075,0,1.1992-0.4922,1.3911-0.96c0.0601-0.1553,0.0957-0.3477,0.0957-0.5391V736.96
			h1.0557V741.1816z"/>
		<path d="M164.8506,735.293v1.667h1.5112v0.8037h-1.5112v3.1299c0,0.7197,0.2036,1.1279,0.7915,1.1279
			c0.2759,0,0.4795-0.0361,0.6118-0.0723l0.0479,0.792c-0.2041,0.084-0.5278,0.1436-0.9355,0.1436
			c-0.4917,0-0.8877-0.1562-1.1396-0.4434c-0.2998-0.3125-0.4077-0.8281-0.4077-1.5117v-3.166h-0.8994V736.96h0.8994v-1.3916
			L164.8506,735.293z"/>
		<path d="M167.4072,741.6855c0.312,0.2041,0.8638,0.4199,1.3916,0.4199c0.7676,0,1.127-0.3838,1.127-0.8633
			c0-0.5039-0.2998-0.7803-1.0791-1.0684c-1.0435-0.3711-1.5352-0.9473-1.5352-1.6426c0-0.9355,0.7554-1.7031,2.0029-1.7031
			c0.5874,0,1.1035,0.168,1.4272,0.3594l-0.2642,0.7676c-0.2275-0.1436-0.6475-0.335-1.187-0.335
			c-0.624,0-0.9717,0.3594-0.9717,0.791c0,0.4795,0.3477,0.6953,1.1035,0.9834c1.0073,0.3838,1.5229,0.8877,1.5229,1.751
			c0,1.0195-0.7915,1.7393-2.1709,1.7393c-0.6353,0-1.2231-0.1562-1.6309-0.3955L167.4072,741.6855z"/>
		<path d="M173.4785,735.3291c0.0122,0.3594-0.252,0.6475-0.6714,0.6475c-0.3721,0-0.6357-0.2881-0.6357-0.6475
			c0-0.3721,0.2759-0.6602,0.6597-0.6602C173.2266,734.6689,173.4785,734.957,173.4785,735.3291z M172.3032,742.7646V736.96h1.0557
			v5.8047H172.3032z"/>
		<path d="M180.124,734.25v7.0156c0,0.5156,0.0122,1.1035,0.0479,1.499h-0.9473l-0.0479-1.0068h-0.0239
			c-0.3242,0.6475-1.0317,1.1387-1.979,1.1387c-1.4033,0-2.4829-1.1875-2.4829-2.9502c-0.0117-1.9307,1.1875-3.1182,2.6025-3.1182
			c0.8877,0,1.4873,0.4199,1.7515,0.8877h0.0239V734.25H180.124z M179.0688,739.3232c0-0.1328-0.0122-0.3125-0.0483-0.4443
			c-0.1558-0.6719-0.7314-1.2236-1.5229-1.2236c-1.0913,0-1.7393,0.96-1.7393,2.2432c0,1.1758,0.5757,2.1465,1.7153,2.1465
			c0.7075,0,1.355-0.4678,1.5469-1.2588c0.0361-0.1445,0.0483-0.2881,0.0483-0.4561V739.3232z"/>
		<path d="M182.4668,740.0547c0.0239,1.4268,0.9355,2.0146,1.9907,2.0146c0.7554,0,1.2114-0.1318,1.6069-0.2998l0.1802,0.7559
			c-0.3721,0.168-1.0073,0.3594-1.9312,0.3594c-1.7871,0-2.8545-1.1758-2.8545-2.9268s1.0317-3.1299,2.7227-3.1299
			c1.895,0,2.3989,1.667,2.3989,2.7344c0,0.2158-0.0244,0.3838-0.0361,0.4922H182.4668z M185.561,739.2988
			c0.0117-0.6719-0.2759-1.7148-1.4634-1.7148c-1.0674,0-1.5352,0.9834-1.6191,1.7148H185.561z"/>
		<path d="M191.7061,735.293v1.667h1.5112v0.8037h-1.5112v3.1299c0,0.7197,0.2036,1.1279,0.7915,1.1279
			c0.2759,0,0.4795-0.0361,0.6118-0.0723l0.0479,0.792c-0.2041,0.084-0.5278,0.1436-0.9355,0.1436
			c-0.4917,0-0.8877-0.1562-1.1396-0.4434c-0.2998-0.3125-0.4077-0.8281-0.4077-1.5117v-3.166h-0.8994V736.96h0.8994v-1.3916
			L191.7061,735.293z"/>
		<path d="M199.6597,739.8145c0,2.1465-1.4868,3.082-2.8901,3.082c-1.5713,0-2.7827-1.1514-2.7827-2.9863
			c0-1.9424,1.2715-3.082,2.8784-3.082C198.5327,736.8281,199.6597,738.0391,199.6597,739.8145z M195.0542,739.874
			c0,1.2715,0.7319,2.2314,1.7632,2.2314c1.0073,0,1.7632-0.9473,1.7632-2.2549c0-0.9834-0.4917-2.2305-1.7393-2.2305
			C195.5942,737.6201,195.0542,738.7715,195.0542,739.874z"/>
		<path d="M208.5518,734.25v7.0156c0,0.5156,0.0122,1.1035,0.0479,1.499h-0.9473l-0.0479-1.0068h-0.0239
			c-0.3242,0.6475-1.0317,1.1387-1.979,1.1387c-1.4033,0-2.4829-1.1875-2.4829-2.9502c-0.0117-1.9307,1.1875-3.1182,2.6025-3.1182
			c0.8877,0,1.4873,0.4199,1.7515,0.8877h0.0239V734.25H208.5518z M207.4966,739.3232c0-0.1328-0.0122-0.3125-0.0483-0.4443
			c-0.1558-0.6719-0.7314-1.2236-1.5229-1.2236c-1.0913,0-1.7393,0.96-1.7393,2.2432c0,1.1758,0.5757,2.1465,1.7153,2.1465
			c0.7075,0,1.355-0.4678,1.5469-1.2588c0.0361-0.1445,0.0483-0.2881,0.0483-0.4561V739.3232z"/>
		<path d="M210.894,740.0547c0.0239,1.4268,0.9351,2.0146,1.9907,2.0146c0.7554,0,1.2114-0.1318,1.6069-0.2998l0.1802,0.7559
			c-0.3721,0.168-1.0073,0.3594-1.9312,0.3594c-1.7871,0-2.8545-1.1758-2.8545-2.9268s1.0317-3.1299,2.7227-3.1299
			c1.895,0,2.3989,1.667,2.3989,2.7344c0,0.2158-0.0244,0.3838-0.0361,0.4922H210.894z M213.9883,739.2988
			c0.0117-0.6719-0.2759-1.7148-1.4634-1.7148c-1.0674,0-1.5352,0.9834-1.6191,1.7148H213.9883z"/>
		<path d="M216.3184,738.8555c0-0.7441-0.0239-1.3438-0.0479-1.8955h0.9473l0.0479,0.9951h0.0244
			c0.4316-0.707,1.1152-1.127,2.0625-1.127c1.4033,0,2.459,1.1875,2.459,2.9502c0,2.0869-1.2715,3.1182-2.6387,3.1182
			c-0.7676,0-1.4395-0.3359-1.7871-0.9111h-0.0239v3.1543h-1.0435V738.8555z M217.3618,740.4023
			c0,0.1553,0.0239,0.2998,0.0479,0.4316c0.1919,0.7314,0.8276,1.2354,1.5835,1.2354c1.1152,0,1.7627-0.9111,1.7627-2.2432
			c0-1.1631-0.6113-2.1582-1.7271-2.1582c-0.7197,0-1.3911,0.5156-1.5952,1.3066c-0.0356,0.1318-0.0718,0.2881-0.0718,0.4316
			V740.4023z"/>
		<path d="M224.4175,735.293v1.667h1.5112v0.8037h-1.5112v3.1299c0,0.7197,0.2036,1.1279,0.7915,1.1279
			c0.2759,0,0.4795-0.0361,0.6113-0.0723l0.0483,0.792c-0.2041,0.084-0.5278,0.1436-0.9355,0.1436
			c-0.4917,0-0.8877-0.1562-1.1396-0.4434c-0.2998-0.3125-0.4077-0.8281-0.4077-1.5117v-3.166h-0.8994V736.96h0.8994v-1.3916
			L224.4175,735.293z"/>
		<path d="M227.1182,734.25h1.0557v3.6211h0.0239c0.168-0.2998,0.4316-0.5635,0.7554-0.7432
			c0.312-0.1797,0.6836-0.2998,1.0796-0.2998c0.7793,0,2.0269,0.4795,2.0269,2.4824v3.4541h-1.0557v-3.334
			c0-0.9355-0.3477-1.7266-1.3433-1.7266c-0.6836,0-1.2231,0.4795-1.415,1.0547c-0.0601,0.1445-0.0718,0.2998-0.0718,0.5039v3.502
			h-1.0557V734.25z"/>
		<path d="M241.5747,739.8145c0,2.1465-1.4868,3.082-2.8901,3.082c-1.5713,0-2.7827-1.1514-2.7827-2.9863
			c0-1.9424,1.2715-3.082,2.8784-3.082C240.4478,736.8281,241.5747,738.0391,241.5747,739.8145z M236.9692,739.874
			c0,1.2715,0.7319,2.2314,1.7632,2.2314c1.0073,0,1.7632-0.9473,1.7632-2.2549c0-0.9834-0.4917-2.2305-1.7393-2.2305
			C237.5093,737.6201,236.9692,738.7715,236.9692,739.874z"/>
		<path d="M243.0176,742.7646v-5.001h-0.8154V736.96h0.8154v-0.2754c0-0.8154,0.1802-1.5596,0.6719-2.0273
			c0.3955-0.3838,0.9233-0.54,1.415-0.54c0.3716,0,0.6958,0.084,0.8994,0.168l-0.144,0.8164
			c-0.1558-0.0723-0.3716-0.1328-0.6714-0.1328c-0.8994,0-1.1274,0.792-1.1274,1.6797v0.3115h1.4033v0.8037h-1.4033v5.001H243.0176z
			"/>
		<path d="M248.7056,742.1416c0-0.4443,0.2998-0.7559,0.7197-0.7559s0.7075,0.3115,0.7075,0.7559
			c0,0.4316-0.2759,0.7549-0.7197,0.7549C248.9937,742.8965,248.7056,742.5732,248.7056,742.1416z"/>
		<path d="M256.167,734.9688v0.6963l-3.3945,7.0996h-1.0913l3.3823-6.8955v-0.0244h-3.814v-0.876H256.167z"/>
		<path d="M261.915,735.8564h-2.9746l-0.2998,2.0029c0.1797-0.0234,0.3477-0.0479,0.6357-0.0479
			c0.5996,0,1.1992,0.1318,1.6792,0.4199c0.6113,0.3477,1.1152,1.0195,1.1152,2.0029c0,1.5234-1.2114,2.6621-2.9023,2.6621
			c-0.8516,0-1.5713-0.2393-1.9429-0.4795l0.2637-0.8037c0.3237,0.1924,0.9595,0.4316,1.667,0.4316
			c0.9956,0,1.8472-0.6475,1.8472-1.6904c-0.0122-1.0078-0.6836-1.7275-2.2427-1.7275c-0.4438,0-0.792,0.0479-1.0796,0.084
			l0.5039-3.7422h3.73V735.8564z"/>
	</g>
</g>
<text transform="matrix(1 0 0 1 284.8213 742.765)" class="st1 st2">2. cut inner circle to dept of .75”</text>
<text transform="matrix(1 0 0 1 459.2305 742.765)" class="st1 st2">3. Cut magnet to depth of </text>
<text transform="matrix(1 0 0 1 591 741.765)" class="st1 st2">Xmm</text>
<path d="M131.1269,501.6912c-31.9915,39.1312-8.3793,153.1734,36.6001,176.6792c54.5779,28.5218,98.1471,28.7645,120.9725,16.592
	c32.0395-17.0863,74.1989-102.5398,68.6861-146.2214c-5.6228-44.5531-83.4621-105.6667-83.4621-105.6667
	S222.634,389.7621,131.1269,501.6912z"/>
<circle class="st0" cx="270.2657" cy="679.7487" r="4.5071"/>
<g>
	<circle class="st3" cx="237.1474" cy="462.5423" r="9.5244"/>
	<line class="st4" x1="243.6326" y1="462.5423" x2="230.6467" y2="462.5423"/>
	<line class="st4" x1="237.1126" y1="456.2051" x2="237.0636" y2="468.6029"/>
</g>
<path d="M396.2183,501.6912c-31.9915,39.1312-8.3793,153.1734,36.6001,176.6792c54.578,28.5218,98.1472,28.7645,120.9725,16.592
	c32.0395-17.0863,74.1989-102.5398,68.6861-146.2214c-5.6228-44.5531-83.4622-105.6667-83.4622-105.6667
	S487.7253,389.7621,396.2183,501.6912z"/>
<circle class="st0" cx="535.3571" cy="679.7487" r="4.5071"/>
<g>
	<circle class="st3" cx="502.2387" cy="462.5423" r="9.5244"/>
	<line class="st4" x1="508.7239" y1="462.5423" x2="495.738" y2="462.5423"/>
	<line class="st4" x1="502.2039" y1="456.2051" x2="502.1549" y2="468.6029"/>
</g>
<path d="M661.3096,501.6912c-31.9915,39.1312-8.3793,153.1734,36.6001,176.6792c54.5779,28.5218,98.1471,28.7645,120.9725,16.592
	c32.0395-17.0863,74.1989-102.5398,68.6861-146.2214c-5.6228-44.5531-83.4622-105.6667-83.4622-105.6667
	S752.8167,389.7621,661.3096,501.6912z"/>
<circle class="st0" cx="800.4484" cy="679.7487" r="4.5071"/>
<g>
	<circle class="st3" cx="767.3301" cy="462.5423" r="9.5244"/>
	<line class="st4" x1="773.8153" y1="462.5423" x2="760.8294" y2="462.5423"/>
	<line class="st4" x1="767.2953" y1="456.2051" x2="767.2463" y2="468.6029"/>
</g>
<path d="M926.401,501.6912c-31.9915,39.1312-8.3793,153.1734,36.6001,176.6792c54.5779,28.5218,98.1471,28.7645,120.9725,16.592
	c32.0396-17.0863,74.1989-102.5398,68.686-146.2214c-5.6228-44.5531-83.462-105.6667-83.462-105.6667
	S1017.908,389.7621,926.401,501.6912z"/>
<circle class="st0" cx="1065.5398" cy="679.7487" r="4.5071"/>
<g>
	<circle class="st3" cx="1032.4215" cy="462.5423" r="9.5244"/>
	<line class="st4" x1="1038.9066" y1="462.5423" x2="1025.9208" y2="462.5423"/>
	<line class="st4" x1="1032.3866" y1="456.2051" x2="1032.3376" y2="468.6029"/>
</g>
<rect x="17.4595" y="773.7861" class="st0" width="1224" height="324"/>
<g>
	<g>
		<path d="M115.8306,1105.9736h-0.0239l-1.3555,0.7314l-0.2041-0.8027l1.7031-0.9121h0.8999v7.7959h-1.0195V1105.9736z"/>
		<path d="M119.7793,1112.1621c0-0.4434,0.2998-0.7559,0.7197-0.7559s0.7075,0.3125,0.7075,0.7559
			c0,0.4316-0.2759,0.7559-0.7197,0.7559C120.0674,1112.918,119.7793,1112.5938,119.7793,1112.1621z"/>
		<path d="M136.0132,1112.5703c-0.2759,0.1445-0.8872,0.3359-1.667,0.3359c-1.751,0-2.8906-1.1875-2.8906-2.9629
			c0-1.7871,1.2236-3.082,3.1187-3.082c0.6235,0,1.1753,0.1562,1.4629,0.2998l-0.2397,0.8154
			c-0.252-0.1436-0.6475-0.2754-1.2231-0.2754c-1.3315,0-2.0513,0.9834-2.0513,2.1943c0,1.3428,0.8638,2.1709,2.0151,2.1709
			c0.5996,0,0.9956-0.1562,1.2954-0.2871L136.0132,1112.5703z"/>
		<path d="M142.1089,1111.2031c0,0.5996,0.0117,1.127,0.0479,1.583h-0.9355l-0.0601-0.9473h-0.0239
			c-0.2759,0.4678-0.8872,1.0791-1.9189,1.0791c-0.9111,0-2.0029-0.5039-2.0029-2.543v-3.3936h1.0557v3.2139
			c0,1.1035,0.3359,1.8477,1.2954,1.8477c0.7075,0,1.1992-0.4922,1.3911-0.96c0.0601-0.1553,0.0957-0.3477,0.0957-0.54v-3.5615
			h1.0557V1111.2031z"/>
		<path d="M145.1348,1105.3145v1.667h1.5112v0.8037h-1.5112v3.1299c0,0.7197,0.2036,1.1279,0.7915,1.1279
			c0.2759,0,0.4795-0.0371,0.6118-0.0723l0.0479,0.791c-0.2041,0.084-0.5278,0.1445-0.9355,0.1445
			c-0.4917,0-0.8877-0.1562-1.1396-0.4434c-0.2998-0.3125-0.4077-0.8281-0.4077-1.5117v-3.166h-0.8994v-0.8037h0.8994v-1.3916
			L145.1348,1105.3145z"/>
		<path d="M155.6323,1109.8359c0,2.1465-1.4868,3.082-2.8901,3.082c-1.5713,0-2.7827-1.1514-2.7827-2.9863
			c0-1.9434,1.2715-3.082,2.8784-3.082C154.5054,1106.8496,155.6323,1108.0605,155.6323,1109.8359z M151.0269,1109.8955
			c0,1.2715,0.7319,2.2314,1.7632,2.2314c1.0073,0,1.7632-0.9473,1.7632-2.2559c0-0.9824-0.4917-2.2305-1.7393-2.2305
			C151.5669,1107.6406,151.0269,1108.793,151.0269,1109.8955z"/>
		<path d="M161.8247,1111.2031c0,0.5996,0.0117,1.127,0.0479,1.583h-0.9355l-0.0601-0.9473h-0.0239
			c-0.2759,0.4678-0.8872,1.0791-1.9189,1.0791c-0.9111,0-2.0029-0.5039-2.0029-2.543v-3.3936h1.0557v3.2139
			c0,1.1035,0.3359,1.8477,1.2954,1.8477c0.7075,0,1.1992-0.4922,1.3911-0.96c0.0601-0.1553,0.0957-0.3477,0.0957-0.54v-3.5615
			h1.0557V1111.2031z"/>
		<path d="M164.8506,1105.3145v1.667h1.5112v0.8037h-1.5112v3.1299c0,0.7197,0.2036,1.1279,0.7915,1.1279
			c0.2759,0,0.4795-0.0371,0.6118-0.0723l0.0479,0.791c-0.2041,0.084-0.5278,0.1445-0.9355,0.1445
			c-0.4917,0-0.8877-0.1562-1.1396-0.4434c-0.2998-0.3125-0.4077-0.8281-0.4077-1.5117v-3.166h-0.8994v-0.8037h0.8994v-1.3916
			L164.8506,1105.3145z"/>
		<path d="M167.4072,1111.707c0.312,0.2031,0.8638,0.4199,1.3916,0.4199c0.7676,0,1.127-0.3848,1.127-0.8633
			c0-0.5039-0.2998-0.7803-1.0791-1.0684c-1.0435-0.3711-1.5352-0.9473-1.5352-1.6426c0-0.9355,0.7554-1.7031,2.0029-1.7031
			c0.5874,0,1.1035,0.168,1.4272,0.3594l-0.2642,0.7676c-0.2275-0.1436-0.6475-0.3359-1.187-0.3359
			c-0.624,0-0.9717,0.3604-0.9717,0.792c0,0.4795,0.3477,0.6953,1.1035,0.9834c1.0073,0.3838,1.5229,0.8877,1.5229,1.751
			c0,1.0195-0.7915,1.7393-2.1709,1.7393c-0.6353,0-1.2231-0.1562-1.6309-0.3965L167.4072,1111.707z"/>
		<path d="M173.4785,1105.3496c0.0122,0.3604-0.252,0.6484-0.6714,0.6484c-0.3721,0-0.6357-0.2881-0.6357-0.6484
			c0-0.3711,0.2759-0.6592,0.6597-0.6592C173.2266,1104.6904,173.4785,1104.9785,173.4785,1105.3496z M172.3032,1112.7861v-5.8047
			h1.0557v5.8047H172.3032z"/>
		<path d="M180.124,1104.2715v7.0156c0,0.5156,0.0122,1.1035,0.0479,1.499h-0.9473l-0.0479-1.0068h-0.0239
			c-0.3242,0.6465-1.0317,1.1387-1.979,1.1387c-1.4033,0-2.4829-1.1875-2.4829-2.9502c-0.0117-1.9307,1.1875-3.1182,2.6025-3.1182
			c0.8877,0,1.4873,0.4199,1.7515,0.8867h0.0239v-3.4648H180.124z M179.0688,1109.3438c0-0.1318-0.0122-0.3115-0.0483-0.4434
			c-0.1558-0.6719-0.7314-1.2236-1.5229-1.2236c-1.0913,0-1.7393,0.96-1.7393,2.2432c0,1.1758,0.5757,2.1465,1.7153,2.1465
			c0.7075,0,1.355-0.4678,1.5469-1.2598c0.0361-0.1436,0.0483-0.2871,0.0483-0.4551V1109.3438z"/>
		<path d="M182.4668,1110.0762c0.0239,1.4268,0.9355,2.0137,1.9907,2.0137c0.7554,0,1.2114-0.1309,1.6069-0.2988l0.1802,0.7559
			c-0.3721,0.168-1.0073,0.3594-1.9312,0.3594c-1.7871,0-2.8545-1.1758-2.8545-2.9268s1.0317-3.1299,2.7227-3.1299
			c1.895,0,2.3989,1.667,2.3989,2.7344c0,0.2158-0.0244,0.3838-0.0361,0.4922H182.4668z M185.561,1109.3203
			c0.0117-0.6719-0.2759-1.7148-1.4634-1.7148c-1.0674,0-1.5352,0.9824-1.6191,1.7148H185.561z"/>
		<path d="M191.7061,1105.3145v1.667h1.5112v0.8037h-1.5112v3.1299c0,0.7197,0.2036,1.1279,0.7915,1.1279
			c0.2759,0,0.4795-0.0371,0.6118-0.0723l0.0479,0.791c-0.2041,0.084-0.5278,0.1445-0.9355,0.1445
			c-0.4917,0-0.8877-0.1562-1.1396-0.4434c-0.2998-0.3125-0.4077-0.8281-0.4077-1.5117v-3.166h-0.8994v-0.8037h0.8994v-1.3916
			L191.7061,1105.3145z"/>
		<path d="M199.6597,1109.8359c0,2.1465-1.4868,3.082-2.8901,3.082c-1.5713,0-2.7827-1.1514-2.7827-2.9863
			c0-1.9434,1.2715-3.082,2.8784-3.082C198.5327,1106.8496,199.6597,1108.0605,199.6597,1109.8359z M195.0542,1109.8955
			c0,1.2715,0.7319,2.2314,1.7632,2.2314c1.0073,0,1.7632-0.9473,1.7632-2.2559c0-0.9824-0.4917-2.2305-1.7393-2.2305
			C195.5942,1107.6406,195.0542,1108.793,195.0542,1109.8955z"/>
		<path d="M208.5518,1104.2715v7.0156c0,0.5156,0.0122,1.1035,0.0479,1.499h-0.9473l-0.0479-1.0068h-0.0239
			c-0.3242,0.6465-1.0317,1.1387-1.979,1.1387c-1.4033,0-2.4829-1.1875-2.4829-2.9502c-0.0117-1.9307,1.1875-3.1182,2.6025-3.1182
			c0.8877,0,1.4873,0.4199,1.7515,0.8867h0.0239v-3.4648H208.5518z M207.4966,1109.3438c0-0.1318-0.0122-0.3115-0.0483-0.4434
			c-0.1558-0.6719-0.7314-1.2236-1.5229-1.2236c-1.0913,0-1.7393,0.96-1.7393,2.2432c0,1.1758,0.5757,2.1465,1.7153,2.1465
			c0.7075,0,1.355-0.4678,1.5469-1.2598c0.0361-0.1436,0.0483-0.2871,0.0483-0.4551V1109.3438z"/>
		<path d="M210.894,1110.0762c0.0239,1.4268,0.9351,2.0137,1.9907,2.0137c0.7554,0,1.2114-0.1309,1.6069-0.2988l0.1802,0.7559
			c-0.3721,0.168-1.0073,0.3594-1.9312,0.3594c-1.7871,0-2.8545-1.1758-2.8545-2.9268s1.0317-3.1299,2.7227-3.1299
			c1.895,0,2.3989,1.667,2.3989,2.7344c0,0.2158-0.0244,0.3838-0.0361,0.4922H210.894z M213.9883,1109.3203
			c0.0117-0.6719-0.2759-1.7148-1.4634-1.7148c-1.0674,0-1.5352,0.9824-1.6191,1.7148H213.9883z"/>
		<path d="M216.3184,1108.877c0-0.7441-0.0239-1.3438-0.0479-1.8955h0.9473l0.0479,0.9951h0.0244
			c0.4316-0.707,1.1152-1.127,2.0625-1.127c1.4033,0,2.459,1.1875,2.459,2.9502c0,2.0869-1.2715,3.1182-2.6387,3.1182
			c-0.7676,0-1.4395-0.3359-1.7871-0.9121h-0.0239v3.1543h-1.0435V1108.877z M217.3618,1110.4238
			c0,0.1553,0.0239,0.2988,0.0479,0.4316c0.1919,0.7314,0.8276,1.2344,1.5835,1.2344c1.1152,0,1.7627-0.9102,1.7627-2.2422
			c0-1.1631-0.6113-2.1582-1.7271-2.1582c-0.7197,0-1.3911,0.5156-1.5952,1.3066c-0.0356,0.1318-0.0718,0.2881-0.0718,0.4316
			V1110.4238z"/>
		<path d="M224.4175,1105.3145v1.667h1.5112v0.8037h-1.5112v3.1299c0,0.7197,0.2036,1.1279,0.7915,1.1279
			c0.2759,0,0.4795-0.0371,0.6113-0.0723l0.0483,0.791c-0.2041,0.084-0.5278,0.1445-0.9355,0.1445
			c-0.4917,0-0.8877-0.1562-1.1396-0.4434c-0.2998-0.3125-0.4077-0.8281-0.4077-1.5117v-3.166h-0.8994v-0.8037h0.8994v-1.3916
			L224.4175,1105.3145z"/>
		<path d="M227.1182,1104.2715h1.0557v3.6211h0.0239c0.168-0.2998,0.4316-0.5635,0.7554-0.7432
			c0.312-0.1807,0.6836-0.2998,1.0796-0.2998c0.7793,0,2.0269,0.4795,2.0269,2.4824v3.4541h-1.0557v-3.334
			c0-0.9355-0.3477-1.7275-1.3433-1.7275c-0.6836,0-1.2231,0.4805-1.415,1.0557c-0.0601,0.1436-0.0718,0.2998-0.0718,0.5039v3.502
			h-1.0557V1104.2715z"/>
		<path d="M241.5747,1109.8359c0,2.1465-1.4868,3.082-2.8901,3.082c-1.5713,0-2.7827-1.1514-2.7827-2.9863
			c0-1.9434,1.2715-3.082,2.8784-3.082C240.4478,1106.8496,241.5747,1108.0605,241.5747,1109.8359z M236.9692,1109.8955
			c0,1.2715,0.7319,2.2314,1.7632,2.2314c1.0073,0,1.7632-0.9473,1.7632-2.2559c0-0.9824-0.4917-2.2305-1.7393-2.2305
			C237.5093,1107.6406,236.9692,1108.793,236.9692,1109.8955z"/>
		<path d="M243.0176,1112.7861v-5.001h-0.8154v-0.8037h0.8154v-0.2764c0-0.8145,0.1802-1.5586,0.6719-2.0264
			c0.3955-0.3838,0.9233-0.54,1.415-0.54c0.3716,0,0.6958,0.084,0.8994,0.168l-0.144,0.8164
			c-0.1558-0.0723-0.3716-0.1328-0.6714-0.1328c-0.8994,0-1.1274,0.792-1.1274,1.6797v0.3115h1.4033v0.8037h-1.4033v5.001H243.0176z
			"/>
		<path d="M248.7056,1112.1621c0-0.4434,0.2998-0.7559,0.7197-0.7559s0.7075,0.3125,0.7075,0.7559
			c0,0.4316-0.2759,0.7559-0.7197,0.7559C248.9937,1112.918,248.7056,1112.5938,248.7056,1112.1621z"/>
		<path d="M256.167,1104.9902v0.6953l-3.3945,7.1006h-1.0913l3.3823-6.8955v-0.0254h-3.814v-0.875H256.167z"/>
		<path d="M261.915,1105.8779h-2.9746l-0.2998,2.0029c0.1797-0.0234,0.3477-0.0479,0.6357-0.0479
			c0.5996,0,1.1992,0.1318,1.6792,0.4189c0.6113,0.3486,1.1152,1.0195,1.1152,2.0039c0,1.5234-1.2114,2.6621-2.9023,2.6621
			c-0.8516,0-1.5713-0.2402-1.9429-0.4795l0.2637-0.8037c0.3237,0.1914,0.9595,0.4316,1.667,0.4316
			c0.9956,0,1.8472-0.6475,1.8472-1.6914c-0.0122-1.0068-0.6836-1.7266-2.2427-1.7266c-0.4438,0-0.792,0.0479-1.0796,0.084
			l0.5039-3.7422h3.73V1105.8779z"/>
	</g>
</g>
<text transform="matrix(1 0 0 1 284.8213 1112.7861)" class="st1 st2">2. cut inner circle to dept of .75”</text>
<text transform="matrix(1 0 0 1 459.2305 1112.7861)" class="st1 st2">3. Cut magnet to depth of </text>
<text transform="matrix(1 0 0 1 591 1111.7861)" class="st1 st2">Xmm</text>
<path d="M131.1269,871.7123c-31.9915,39.1312-8.3793,153.1734,36.6001,176.6791c54.5779,28.5219,98.1471,28.7645,120.9725,16.592
	c32.0395-17.0863,74.1989-102.5398,68.6861-146.2214c-5.6228-44.5531-83.4621-105.6666-83.4621-105.6666
	S222.634,759.7833,131.1269,871.7123z"/>
<path d="M396.2183,871.7123c-31.9915,39.1312-8.3793,153.1734,36.6001,176.6791c54.578,28.5219,98.1472,28.7645,120.9725,16.592
	c32.0395-17.0863,74.1989-102.5398,68.6861-146.2214c-5.6228-44.5531-83.4622-105.6666-83.4622-105.6666
	S487.7253,759.7833,396.2183,871.7123z"/>
<path d="M661.3096,871.7123c-31.9915,39.1312-8.3793,153.1734,36.6001,176.6791c54.5779,28.5219,98.1471,28.7645,120.9725,16.592
	c32.0395-17.0863,74.1989-102.5398,68.6861-146.2214c-5.6228-44.5531-83.4622-105.6666-83.4622-105.6666
	S752.8167,759.7833,661.3096,871.7123z"/>
<path d="M926.401,871.7123c-31.9915,39.1312-8.3793,153.1734,36.6001,176.6791c54.5779,28.5219,98.1471,28.7645,120.9725,16.592
	c32.0396-17.0863,74.1989-102.5398,68.686-146.2214c-5.6228-44.5531-83.462-105.6666-83.462-105.6666
	S1017.908,759.7833,926.401,871.7123z"/>
<circle class="st3" cx="237.37" cy="936.5131" r="99.4205"/>
<path class="st5" d="M304.0897,975.2827c-0.614,13.3123-25.3311,31.5312-38.2965,28.2221
	c-15.7322-4.0152-24.3241-11.6405-26.6591-18.0488c-3.2777-8.9951,3.499-33.1874,12.2735-40.7877
	c8.9496-7.752,34.9858-6.0353,34.9858-6.0353S305.8461,937.2048,304.0897,975.2827z"/>
<path class="st5" d="M257.4353,958.7368c-0.4485,0.5741-6.8693,11.6554-5.4508,23.3107"/>
<path class="st5" d="M247.2157,969.653c1.7135-6.1014,4.5645-16.7939,19.1381-21.9131c2.414-0.848,10.3674-2.1693,13.7162,0.6938
	c3.188,2.7257,2.9536,8.3409-3.4071,14.6362c-8.3318,8.246-19.4137,11.2362-19.4137,11.2362s-3.9128,13.3635,12.5576,14.3377"/>
<ellipse transform="matrix(0.3117 -0.9502 0.9502 0.3117 -720.6299 945.033)" class="st5" cx="292" cy="969.9358" rx="3.9308" ry="2.3684"/>
<ellipse transform="matrix(0.3117 -0.9502 0.9502 0.3117 -744.711 927.7467)" class="st5" cx="268.0275" cy="977.9148" rx="3.9308" ry="2.3684"/>
<line class="st5" x1="288.408" y1="949.2399" x2="280.489" y2="976.2528"/>
<path class="st5" d="M288.5802,964.7006l-6.4108,7.1625c0,0,3.1936,3.0515,3.7024,3.2587"/>
<path class="st5" d="M276.9213,977.7758c-2.6696,0.8604-3.8178-1.4886-2.813-8.3791 M268.5414,998.0847
	c4.9079-9.4271,8.7252-19.3035,10.7309-29.926"/>
<circle class="st3" cx="502.1941" cy="936.5131" r="99.4205"/>
<path class="st5" d="M568.9137,975.2827c-0.614,13.3123-25.3311,31.5312-38.2966,28.2221
	c-15.7322-4.0152-24.324-11.6405-26.6591-18.0488c-3.2777-8.9951,3.4991-33.1874,12.2735-40.7877
	c8.9495-7.752,34.9858-6.0353,34.9858-6.0353S570.6701,937.2048,568.9137,975.2827z"/>
<path class="st5" d="M522.2593,958.7368c-0.4485,0.5741-6.8693,11.6554-5.4509,23.3107"/>
<path class="st5" d="M512.0398,969.653c1.7135-6.1014,4.5645-16.7939,19.1381-21.9131c2.414-0.848,10.3674-2.1693,13.7162,0.6938
	c3.188,2.7257,2.9536,8.3409-3.4071,14.6362c-8.3318,8.246-19.4137,11.2362-19.4137,11.2362s-3.9128,13.3635,12.5576,14.3377"/>
<ellipse transform="matrix(0.3117 -0.9502 0.9502 0.3117 -538.3581 1196.6615)" class="st5" cx="556.824" cy="969.9358" rx="3.9308" ry="2.3684"/>
<ellipse transform="matrix(0.3117 -0.9502 0.9502 0.3117 -562.4392 1179.3752)" class="st5" cx="532.8516" cy="977.9148" rx="3.9308" ry="2.3684"/>
<line class="st5" x1="553.232" y1="949.2399" x2="545.313" y2="976.2528"/>
<path class="st5" d="M553.4042,964.7006l-6.4108,7.1625c0,0,3.1936,3.0515,3.7024,3.2587"/>
<path class="st5" d="M541.7454,977.7758c-2.6696,0.8604-3.8177-1.4886-2.813-8.3791 M533.3655,998.0847
	c4.9079-9.4271,8.7252-19.3035,10.7309-29.926"/>
<circle class="st3" cx="767.0181" cy="936.5131" r="99.4205"/>
<path class="st5" d="M833.7377,975.2827c-0.614,13.3123-25.3311,31.5312-38.2965,28.2221
	c-15.7322-4.0152-24.324-11.6405-26.6591-18.0488c-3.2777-8.9951,3.499-33.1874,12.2735-40.7877
	c8.9495-7.752,34.9858-6.0353,34.9858-6.0353S835.4941,937.2048,833.7377,975.2827z"/>
<path class="st5" d="M787.0834,958.7368c-0.4485,0.5741-6.8693,11.6554-5.4509,23.3107"/>
<path class="st5" d="M776.8638,969.653c1.7135-6.1014,4.5645-16.7939,19.1381-21.9131c2.414-0.848,10.3674-2.1693,13.7162,0.6938
	c3.188,2.7257,2.9536,8.3409-3.4071,14.6362c-8.3318,8.246-19.4137,11.2362-19.4137,11.2362s-3.9128,13.3635,12.5576,14.3377"/>
<ellipse transform="matrix(0.3117 -0.9502 0.9502 0.3117 -356.0863 1448.2899)" class="st5" cx="821.6481" cy="969.9358" rx="3.9308" ry="2.3684"/>
<ellipse transform="matrix(0.3117 -0.9502 0.9502 0.3117 -380.1674 1431.0037)" class="st5" cx="797.6756" cy="977.9148" rx="3.9308" ry="2.3684"/>
<line class="st5" x1="818.0561" y1="949.2399" x2="810.137" y2="976.2528"/>
<path class="st5" d="M818.2283,964.7006l-6.4108,7.1625c0,0,3.1936,3.0515,3.7024,3.2587"/>
<path class="st5" d="M806.5694,977.7758c-2.6696,0.8604-3.8177-1.4886-2.813-8.3791 M798.1895,998.0847
	c4.908-9.4271,8.7252-19.3035,10.7309-29.926"/>
<circle class="st3" cx="1031.8422" cy="936.5131" r="99.4205"/>
<path class="st5" d="M1098.5618,975.2827c-0.614,13.3123-25.3312,31.5312-38.2965,28.2221
	c-15.7322-4.0152-24.3241-11.6405-26.6592-18.0488c-3.2776-8.9951,3.4991-33.1874,12.2736-40.7877
	c8.9496-7.752,34.9857-6.0353,34.9857-6.0353S1100.3182,937.2048,1098.5618,975.2827z"/>
<path class="st5" d="M1051.9075,958.7368c-0.4485,0.5741-6.8694,11.6554-5.4509,23.3107"/>
<path class="st5" d="M1041.6879,969.653c1.7135-6.1014,4.5646-16.7939,19.1381-21.9131c2.4139-0.848,10.3674-2.1693,13.7162,0.6938
	c3.188,2.7257,2.9536,8.3409-3.4071,14.6362c-8.3318,8.246-19.4137,11.2362-19.4137,11.2362s-3.9127,13.3635,12.5576,14.3377"/>
<ellipse transform="matrix(0.3117 -0.9502 0.9502 0.3117 -173.8145 1699.9185)" class="st5" cx="1086.4722" cy="969.9358" rx="3.9308" ry="2.3684"/>
<ellipse transform="matrix(0.3117 -0.9502 0.9502 0.3117 -197.8956 1682.6322)" class="st5" cx="1062.4996" cy="977.9148" rx="3.9308" ry="2.3684"/>
<line class="st5" x1="1082.8801" y1="949.2399" x2="1074.9611" y2="976.2528"/>
<path class="st5" d="M1083.0522,964.7006l-6.4108,7.1625c0,0,3.1936,3.0515,3.7024,3.2587"/>
<path class="st5" d="M1071.3934,977.7758c-2.6696,0.8604-3.8177-1.4886-2.813-8.3791 M1063.0135,998.0847
	c4.908-9.4271,8.7252-19.3035,10.731-29.926"/>
</svg>
