<?xml version="1.0" encoding="utf-8"?>
<!-- Generator: Adobe Illustrator 28.0.0, SVG Export Plug-In . SVG Version: 6.00 Build 0)  -->
<svg version="1.1" id="Layer_3" xmlns="http://www.w3.org/2000/svg" xmlns:xlink="http://www.w3.org/1999/xlink" x="0px" y="0px"
	 viewBox="0 0 1920 1080" style="enable-background:new 0 0 1920 1080;" xml:space="preserve">
<style type="text/css">
	.st0{fill:none;stroke:#231F20;stroke-miterlimit:10;}
</style>
<path class="st0" d="M1530.7,602.9c-0.6,13.3-25.3,31.5-38.3,28.2c-15.7-4-24.3-11.6-26.7-18c-3.3-9,3.5-33.2,12.3-40.8
	c8.9-7.8,35-6,35-6S1532.5,564.8,1530.7,602.9z"/>
<path class="st0" d="M1063.2,581.6c-2.2,47-89.5,111.4-135.3,99.7c-55.6-14.2-85.9-41.1-94.2-63.7c-11.6-31.8,12.4-117.2,43.3-144
	c31.6-27.4,123.6-21.3,123.6-21.3S1069.4,447.1,1063.2,581.6z"/>
<path class="st0" d="M1484.1,586.3c-0.4,0.6-6.9,11.7-5.5,23.3"/>
<path class="st0" d="M1473.9,597.2c1.7-6.1,4.6-16.8,19.1-21.9c2.4-0.8,10.4-2.2,13.7,0.7c3.2,2.7,3,8.3-3.4,14.6
	c-8.3,8.2-19.4,11.2-19.4,11.2s-3.9,13.4,12.6,14.3"/>
<ellipse transform="matrix(0.3117 -0.9502 0.9502 0.3117 477.5106 1854.2222)" class="st0" cx="1518.6" cy="597.5" rx="3.9" ry="2.4"/>
<ellipse transform="matrix(0.3117 -0.9502 0.9502 0.3117 453.4295 1836.9359)" class="st0" cx="1494.7" cy="605.5" rx="3.9" ry="2.4"/>
<line class="st0" x1="1515.1" y1="576.8" x2="1507.1" y2="603.8"/>
<path class="st0" d="M1515.2,592.3l-6.4,7.2c0,0,3.2,3.1,3.7,3.3"/>
<path class="st0" d="M1500.8,597c-1,6.9,0.1,9.2,2.8,8.4"/>
<path class="st0" d="M1505.9,595.7c-2,10.6-5.8,20.5-10.7,29.9"/>
<circle class="st0" cx="947.3" cy="567.1" r="87.3"/>
<path class="st0" d="M1597.2,582.1c-2.2,47-89.5,111.4-135.3,99.7c-55.6-14.2-85.9-41.1-94.2-63.7c-11.6-31.8,12.4-117.2,43.3-144
	c31.6-27.4,123.6-21.3,123.6-21.3S1603.4,447.6,1597.2,582.1z"/>
<circle class="st0" cx="1481.3" cy="567.6" r="87.3"/>
<path class="st0" d="M1102.8,587c-2.9,63.1-120,149.4-181.4,133.7c-74.5-19-115.2-55.1-126.3-85.5C779.6,592.6,811.7,478,853.3,442
	c42.4-36.7,165.7-28.6,165.7-28.6S1111.2,406.7,1102.8,587z"/>
<rect x="587.4" y="270.1" class="st0" width="720" height="576"/>
<path class="st0" d="M1154.9,270.1l152.5,87.4L1154.9,270.1z"/>
<circle cx="1012.8" cy="479.3" r="15.6"/>
</svg>
