<?xml version="1.0" encoding="utf-8"?>
<!-- Generator: Adobe Illustrator 28.0.0, SVG Export Plug-In . SVG Version: 6.00 Build 0)  -->
<svg version="1.1" id="Layer_1" xmlns="http://www.w3.org/2000/svg" xmlns:xlink="http://www.w3.org/1999/xlink" x="0px" y="0px"
	 viewBox="0 0 1320 1135.8" style="enable-background:new 0 0 1320 1135.8;" xml:space="preserve">
<style type="text/css">
	.st0{fill:none;stroke:#0068FF;stroke-miterlimit:10;}
	.st1{stroke:#000000;stroke-miterlimit:10;}
	.st2{fill:none;stroke:#7F7F7F;stroke-miterlimit:10;}
	.st3{fill:none;stroke:#7F7F7F;stroke-width:1;stroke-miterlimit:10.0012;}
</style>
<text transform="matrix(1 0 0 1 304.0054 -283.8423)" style="font-family:'ArialMT'; font-size:12px;">X</text>
<rect x="17.5" y="390.8535" class="st0" width="1224" height="342"/>
<path class="st1" d="M158.7,685.2617c0,0-77.8-61.1-83.5-105.7c-5.5-43.7,36.6-129.1,68.7-146.2c22.8-12.2,66.4-11.9,121,16.6
	c45,23.5,68.6,137.5,36.6,176.7C210,738.6616,158.7,685.2617,158.7,685.2617z"/>
<path class="st1" d="M446.3,685.2617c0,0-77.8-61.1-83.5-105.7c-5.5-43.7,36.6-129.1,68.7-146.2c22.8-12.2,66.4-11.9,121,16.6
	c45,23.5,68.6,137.5,36.6,176.7C497.5,738.6616,446.3,685.2617,446.3,685.2617z"/>
<path class="st1" d="M745.3,685.2617c0,0-77.8-61.1-83.5-105.7c-5.5-43.7,36.6-129.1,68.7-146.2c22.8-12.2,66.4-11.9,121,16.6
	c45,23.5,68.6,137.5,36.6,176.7C796.6,738.6616,745.3,685.2617,745.3,685.2617z"/>
<path class="st1" d="M1038.4,685.2617c0,0-77.8-61.1-83.5-105.7c-5.5-43.7,36.6-129.1,68.7-146.2c22.8-12.2,66.4-11.9,121.0001,16.6
	c45,23.5,68.6,137.5,36.6,176.7C1089.7,738.6616,1038.4,685.2617,1038.4,685.2617z"/>
<g>
	<path class="st2" d="M240.023,532.0513c-2.7,0.9-3.8-1.5-2.8-8.4 M231.7229,552.3513c4.9-9.4,8.7-19.3,10.7-29.9"/>
	<path class="st2" d="M267.1996,529.5513c-0.7192,13.3-30.3293,31.5-45.9135,28.2c-18.821-4-29.1305-11.6-32.0076-18
		c-3.956-9,4.1958-33.2,14.7451-40.8c10.6692-7.8,41.9575-6,41.9575-6S269.3575,491.4515,267.1996,529.5513z"/>
	<path class="st2" d="M220.523,512.9514c-0.4,0.6-6.9,11.7-5.5,23.3"/>
	<path class="st2" d="M210.323,523.9514c1.7-6.1,4.6-16.8,19.1-21.9c2.4-0.8,10.4-2.2,13.7,0.7c3.2,2.7,3,8.3-3.4,14.6
		c-8.3,8.2-19.4,11.2-19.4,11.2s-1.3642,11.6222,8.3418,16.8647"/>
	
		<ellipse transform="matrix(0.3117 -0.9502 0.9502 0.3117 -322.4079 603.2611)" class="st3" cx="255.1866" cy="524.1671" rx="3.9004" ry="2.4001"/>
	
		<ellipse transform="matrix(0.3117 -0.9502 0.9502 0.3117 -346.405 585.9747)" class="st3" cx="231.2565" cy="532.0875" rx="3.9004" ry="2.4001"/>
	<line class="st2" x1="251.523" y1="503.5513" x2="243.623" y2="530.5513"/>
	<path class="st2" d="M251.7229,518.9514l-6.4,7.2c0,0,3.2,3.1,3.7,3.3"/>
	<path class="st2" d="M209.894,537.7102c0,0,0-17.7588-4.4953-8.0215c-1.1516,2.4946-1.5034,8.9229-1.5034,8.9229
		s0.9372-10.3092-1.7182-10.153c-2.6554,0.1562-3.6707,11.715-3.6707,11.715s0.0781-13.2575-2.4211-13.8823"/>
	<path class="st2" d="M258.5058,554.7513c-0.5776-1.815,1.9801-5.313,4.2075-2.7967c2.3362,2.639-3.3826,4.2485-2.475,8.103
		c0.0299,0.1271,2.6076-2.823,6.105-3.3181"/>
	<path class="st2" d="M263.5002,548.9186c0,0-0.5363-2.9359,1.8562-2.4822c2.1461,0.407,0.4477,3.2,0.4477,3.2
		c-0.8602,1.1796,2.7286-1.5428,3.3474,1.3035c0.4189,1.9268-0.6491,4.3676-4.0012,3.3412"/>
</g>
<g>
	<path class="st2" d="M525.3,532.0513c-2.7,0.9-3.8-1.5-2.8-8.4 M516.9999,552.3513c4.9-9.4,8.7-19.3,10.7-29.9"/>
	<path class="st2" d="M552.4766,529.5513c-0.7192,13.3-30.3293,31.5-45.9135,28.2c-18.821-4-29.1305-11.6-32.0076-18
		c-3.956-9,4.1958-33.2,14.7451-40.8c10.6692-7.8,41.9575-6,41.9575-6S554.6345,491.4515,552.4766,529.5513z"/>
	<path class="st2" d="M505.8,512.9514c-0.4,0.6-6.9,11.7-5.5,23.3"/>
	<path class="st2" d="M495.6,523.9514c1.7-6.1,4.6-16.8,19.1-21.9c2.4-0.8,10.4-2.2,13.7,0.7c3.2,2.7,3,8.3-3.4,14.6
		c-8.3,8.2-19.4,11.2-19.4,11.2s-1.3642,11.6222,8.3418,16.8647"/>
	
		<ellipse transform="matrix(0.3117 -0.9502 0.9502 0.3117 -126.0501 874.3263)" class="st3" cx="540.4637" cy="524.1671" rx="3.9004" ry="2.4001"/>
	
		<ellipse transform="matrix(0.3117 -0.9502 0.9502 0.3117 -150.0472 857.0399)" class="st3" cx="516.5335" cy="532.0875" rx="3.9004" ry="2.4001"/>
	<line class="st2" x1="536.8" y1="503.5513" x2="528.9" y2="530.5513"/>
	<path class="st2" d="M536.9999,518.9514l-6.4,7.2c0,0,3.2,3.1,3.7,3.3"/>
	<path class="st2" d="M495.171,537.7102c0,0,0-17.7588-4.4953-8.0215c-1.1516,2.4946-1.5034,8.9229-1.5034,8.9229
		s0.9372-10.3092-1.7182-10.153c-2.6554,0.1562-3.6707,11.715-3.6707,11.715s0.0781-13.2575-2.4211-13.8823"/>
	<path class="st2" d="M543.7828,554.7513c-0.5776-1.815,1.9801-5.313,4.2075-2.7967c2.3362,2.639-3.3826,4.2485-2.475,8.103
		c0.0299,0.1271,2.6076-2.823,6.105-3.3181"/>
	<path class="st2" d="M548.7772,548.9186c0,0-0.5363-2.9359,1.8562-2.4822c2.1461,0.407,0.4477,3.2,0.4477,3.2
		c-0.8602,1.1796,2.7286-1.5428,3.3474,1.3035c0.4189,1.9268-0.649,4.3676-4.0012,3.3412"/>
</g>
<g>
	<path class="st2" d="M823.577,532.0513c-2.7,0.9-3.8-1.5-2.8-8.4 M815.2769,552.3513c4.9-9.4,8.7-19.3,10.7-29.9"/>
	<path class="st2" d="M850.7536,529.5513c-0.7192,13.3-30.3293,31.5-45.9135,28.2c-18.821-4-29.1306-11.6-32.0076-18
		c-3.956-9,4.1958-33.2,14.7451-40.8c10.6692-7.8,41.9575-6,41.9575-6S852.9116,491.4515,850.7536,529.5513z"/>
	<path class="st2" d="M804.077,512.9514c-0.4,0.6-6.9,11.7-5.5,23.3"/>
	<path class="st2" d="M793.877,523.9514c1.7-6.1,4.6-16.8,19.1-21.9c2.4-0.8,10.4-2.2,13.7,0.7c3.2,2.7,3,8.3-3.4,14.6
		c-8.3,8.2-19.4,11.2-19.4,11.2s-1.3642,11.6222,8.3418,16.8647"/>
	
		<ellipse transform="matrix(0.3117 -0.9502 0.9502 0.3117 79.2557 1157.7439)" class="st3" cx="838.7407" cy="524.1671" rx="3.9004" ry="2.4001"/>
	
		<ellipse transform="matrix(0.3117 -0.9502 0.9502 0.3117 55.2586 1140.4575)" class="st3" cx="814.8105" cy="532.0875" rx="3.9004" ry="2.4001"/>
	<line class="st2" x1="835.077" y1="503.5513" x2="827.177" y2="530.5513"/>
	<path class="st2" d="M835.2769,518.9514l-6.4,7.2c0,0,3.2,3.1,3.7,3.3"/>
	<path class="st2" d="M793.448,537.7102c0,0,0-17.7588-4.4953-8.0215c-1.1516,2.4946-1.5034,8.9229-1.5034,8.9229
		s0.9372-10.3092-1.7182-10.153s-3.6707,11.715-3.6707,11.715s0.0781-13.2575-2.4211-13.8823"/>
	<path class="st2" d="M842.0598,554.7513c-0.5776-1.815,1.9801-5.313,4.2075-2.7967c2.3362,2.639-3.3826,4.2485-2.475,8.103
		c0.0299,0.1271,2.6076-2.823,6.105-3.3181"/>
	<path class="st2" d="M847.0543,548.9186c0,0-0.5363-2.9359,1.8562-2.4822c2.1461,0.407,0.4477,3.2,0.4477,3.2
		c-0.8602,1.1796,2.7286-1.5428,3.3474,1.3035c0.4189,1.9268-0.649,4.3676-4.0012,3.3412"/>
</g>
<g>
	<path class="st2" d="M1121.854,532.0513c-2.7,0.9-3.7999-1.5-2.7999-8.4 M1113.554,552.3513c4.9-9.4,8.7-19.3,10.7-29.9"/>
	<path class="st2" d="M1149.0306,529.5513c-0.7192,13.3-30.3293,31.5-45.9135,28.2c-18.821-4-29.1305-11.6-32.0077-18
		c-3.9559-9,4.1958-33.2,14.7451-40.8c10.6692-7.8,41.9575-6,41.9575-6S1151.1886,491.4515,1149.0306,529.5513z"/>
	<path class="st2" d="M1102.354,512.9514c-0.3999,0.6-6.8999,11.7-5.5,23.3"/>
	<path class="st2" d="M1092.1541,523.9514c1.7-6.1,4.6-16.8,19.1-21.9c2.4-0.8,10.4-2.2,13.7001,0.7c3.2,2.7,3,8.3-3.4,14.6
		c-8.3,8.2-19.4,11.2-19.4,11.2s-1.3641,11.6222,8.3418,16.8647"/>
	
		<ellipse transform="matrix(0.3117 -0.9502 0.9502 0.3117 284.5615 1441.1615)" class="st3" cx="1137.0177" cy="524.1671" rx="3.9004" ry="2.4001"/>
	
		<ellipse transform="matrix(0.3117 -0.9502 0.9502 0.3117 260.5644 1423.8751)" class="st3" cx="1113.0875" cy="532.0875" rx="3.9004" ry="2.4001"/>
	<line class="st2" x1="1133.354" y1="503.5513" x2="1125.4541" y2="530.5513"/>
	<path class="st2" d="M1133.554,518.9514l-6.4,7.2c0,0,3.2001,3.1,3.7001,3.3"/>
	<path class="st2" d="M1091.7251,537.7102c0,0,0-17.7588-4.4954-8.0215c-1.1516,2.4946-1.5034,8.9229-1.5034,8.9229
		s0.9373-10.3092-1.7181-10.153s-3.6708,11.715-3.6708,11.715s0.0781-13.2575-2.421-13.8823"/>
	<path class="st2" d="M1140.3369,554.7513c-0.5776-1.815,1.9801-5.313,4.2074-2.7967c2.3363,2.639-3.3826,4.2485-2.475,8.103
		c0.0299,0.1271,2.6077-2.823,6.105-3.3181"/>
	<path class="st2" d="M1145.3313,548.9186c0,0-0.5364-2.9359,1.8562-2.4822c2.1461,0.407,0.4476,3.2,0.4476,3.2
		c-0.8602,1.1796,2.7286-1.5428,3.3474,1.3035c0.4189,1.9268-0.649,4.3676-4.0012,3.3412"/>
</g>
</svg>
