<?xml version="1.0" encoding="utf-8"?>
<!-- Generator: Adobe Illustrator 28.0.0, SVG Export Plug-In . SVG Version: 6.00 Build 0)  -->
<svg version="1.1" id="Layer_1" xmlns="http://www.w3.org/2000/svg" xmlns:xlink="http://www.w3.org/1999/xlink" x="0px" y="0px"
	 viewBox="0 0 1320 1135.7798" style="enable-background:new 0 0 1320 1135.7798;" xml:space="preserve">
<style type="text/css">
	.st0{stroke:#000000;stroke-miterlimit:10;}
	.st1{fill:#FFFFFF;}
</style>
<rect x="17.4595" y="44.0604" class="st0" width="1224" height="324"/>
<g>
	<path class="st1" d="M301.4762,141.9866c31.9915,39.1312,8.3793,153.1734-36.6001,176.6792
		c-54.578,28.5218-98.1471,28.7645-120.9725,16.592c-32.0395-17.0863-74.1989-102.5398-68.6861-146.2214
		c5.6228-44.5531,83.4621-105.6667,83.4621-105.6667S209.9691,30.0575,301.4762,141.9866z"/>
	<circle cx="162.3374" cy="320.0441" r="4.5071"/>
	<circle cx="195.4557" cy="102.8377" r="17.1496"/>
	
		<ellipse transform="matrix(0.8487 -0.5289 0.5289 0.8487 -86.6521 136.5689)" cx="195.355" cy="219.7261" rx="101.1426" ry="87.2087"/>
</g>
<g>
	<path class="st1" d="M589.0519,141.9866c31.9915,39.1312,8.3793,153.1734-36.6001,176.6792
		c-54.5779,28.5218-98.1472,28.7645-120.9725,16.592c-32.0395-17.0863-74.1989-102.5398-68.6861-146.2214
		c5.6228-44.5531,83.4621-105.6667,83.4621-105.6667S497.545,30.0575,589.0519,141.9866z"/>
	<circle cx="449.9132" cy="320.0441" r="4.5071"/>
	<circle cx="483.0316" cy="102.8377" r="17.1496"/>
	
		<ellipse transform="matrix(0.8487 -0.5289 0.5289 0.8487 -43.1178 288.7201)" cx="483.0359" cy="219.7168" rx="101.1425" ry="87.2087"/>
</g>
<g>
	<path class="st1" d="M888.127,141.9866c31.9915,39.1312,8.3793,153.1734-36.6002,176.6792
		c-54.5779,28.5218-98.1471,28.7645-120.9725,16.592c-32.0396-17.0863-74.1989-102.5398-68.6861-146.2214
		c5.6228-44.5531,83.4621-105.6667,83.4621-105.6667S796.6199,30.0575,888.127,141.9866z"/>
	<circle cx="748.9882" cy="320.0441" r="4.5071"/>
	<circle cx="782.1065" cy="102.8377" r="17.1496"/>
	
		<ellipse transform="matrix(0.8487 -0.5289 0.5289 0.8487 2.1565 446.9528)" cx="782.216" cy="219.7075" rx="101.1425" ry="87.2087"/>
</g>
<g>
	<path class="st1" d="M1181.1578,141.9866c31.9915,39.1312,8.3794,153.1734-36.6001,176.6792
		c-54.5779,28.5218-98.1471,28.7645-120.9725,16.592c-32.0395-17.0863-74.1989-102.5398-68.686-146.2214
		c5.6228-44.5531,83.4621-105.6667,83.4621-105.6667S1089.6509,30.0575,1181.1578,141.9866z"/>
	<circle cx="1042.019" cy="320.0441" r="4.5071"/>
	
		<ellipse transform="matrix(0.1602 -0.9871 0.9871 0.1602 801.4098 1147.6195)" cx="1075.1373" cy="102.8377" rx="17.1496" ry="17.1496"/>
	
		<ellipse transform="matrix(0.8487 -0.5289 0.5289 0.8487 46.5161 601.9884)" cx="1075.3521" cy="219.6982" rx="101.1426" ry="87.2087"/>
</g>
<text transform="matrix(1 0 0 1 304.0054 -283.8423)" style="font-family:'ArialMT'; font-size:12px;">X</text>
</svg>
