<?xml version="1.0" encoding="utf-8"?>
<!-- Generator: Adobe Illustrator 28.0.0, SVG Export Plug-In . SVG Version: 6.00 Build 0)  -->
<svg version="1.1" id="Layer_1" xmlns="http://www.w3.org/2000/svg" xmlns:xlink="http://www.w3.org/1999/xlink" x="0px" y="0px"
	 viewBox="0 0 1320 1135.8" style="enable-background:new 0 0 1320 1135.8;" xml:space="preserve">
<style type="text/css">
	.st0{fill:#FFFFFF;stroke:#000000;stroke-miterlimit:10;}
	.st1{fill:#FFFFFF;}
	.st2{fill:none;stroke:#000000;stroke-miterlimit:10;}
	.st3{stroke:#000000;stroke-miterlimit:10;}
</style>
<rect x="17.5" y="427.5" class="st0" width="1224" height="324"/>
<path d="M131.1,655c-32-39.1-8.4-153.2,36.6-176.7c54.6-28.5,98.1-28.8,121-16.6c32,17.1,74.2,102.5,68.7,146.2
	c-5.6,44.6-83.5,105.7-83.5,105.7S222.6,766.9,131.1,655z"/>
<path d="M396.2,655c-32-39.1-8.4-153.2,36.6-176.7c54.6-28.5,98.1-28.8,121-16.6c32,17.1,74.2,102.5,68.7,146.2
	c-5.6,44.6-83.5,105.7-83.5,105.7S487.7,766.9,396.2,655z"/>
<path d="M661.3,655c-32-39.1-8.4-153.2,36.6-176.7c54.6-28.5,98.1-28.8,121-16.6c32,17.1,74.2,102.5,68.7,146.2
	c-5.6,44.6-83.5,105.7-83.5,105.7S752.8,766.9,661.3,655z"/>
<path d="M926.4,655c-32-39.1-8.4-153.2,36.6-176.7c54.6-28.5,98.1-28.8,121-16.6c32,17.1,74.2,102.5,68.7,146.2
	c-5.6,44.6-83.5,105.7-83.5,105.7S1017.9,766.9,926.4,655z"/>
<rect x="17.5" y="772.6" class="st0" width="1224" height="324"/>
<g>
	<g>
		<path d="M131.1,870.5c-32,39.1-8.4,153.2,36.6,176.7c54.6,28.5,98.1,28.8,121,16.6c32-17.1,74.2-102.5,68.7-146.2
			c-5.6-44.6-83.5-105.7-83.5-105.7S222.6,758.6,131.1,870.5z"/>
		<circle class="st1" cx="237.1" cy="948.1" r="83"/>
		<circle class="st0" cx="270.3" cy="1048.6" r="4.5"/>
	</g>
	<g>
		<circle class="st1" cx="237.1" cy="831.4" r="9.6"/>
		<line class="st2" x1="225.4" y1="831.4" x2="248.8" y2="831.4"/>
		<line class="st2" x1="237.2" y1="820" x2="237.3" y2="842.3"/>
	</g>
</g>
<g>
	<g>
		<path d="M396.2,870.5c-32,39.1-8.4,153.2,36.6,176.7c54.6,28.5,98.1,28.8,121,16.6c32-17.1,74.2-102.5,68.7-146.2
			C616.9,873,539,811.9,539,811.9S487.7,758.6,396.2,870.5z"/>
		<circle class="st1" cx="502.1" cy="948.1" r="83"/>
		<circle class="st0" cx="535.4" cy="1048.6" r="4.5"/>
	</g>
	<g>
		<circle class="st1" cx="502.2" cy="831.4" r="9.6"/>
		<line class="st2" x1="490.5" y1="831.4" x2="513.9" y2="831.4"/>
		<line class="st2" x1="502.3" y1="820" x2="502.3" y2="842.3"/>
	</g>
</g>
<g>
	<g>
		<path d="M661.3,870.5c-32,39.1-8.4,153.2,36.6,176.7c54.6,28.5,98.1,28.8,121,16.6c32-17.1,74.2-102.5,68.7-146.2
			c-5.6-44.6-83.5-105.7-83.5-105.7S752.8,758.6,661.3,870.5z"/>
		<circle class="st1" cx="767.2" cy="948.1" r="83"/>
		<circle class="st0" cx="800.4" cy="1048.6" r="4.5"/>
	</g>
	<g>
		<circle class="st1" cx="767.3" cy="831.4" r="9.6"/>
		<line class="st2" x1="755.6" y1="831.4" x2="779" y2="831.4"/>
		<line class="st2" x1="767.3" y1="820" x2="767.4" y2="842.3"/>
	</g>
</g>
<g>
	<g>
		<path d="M926.4,870.5c-32,39.1-8.4,153.2,36.6,176.7c54.6,28.5,98.1,28.8,121,16.6c32-17.1,74.2-102.5,68.7-146.2
			c-5.6-44.6-83.5-105.7-83.5-105.7S1017.9,758.6,926.4,870.5z"/>
		<circle class="st1" cx="1032.3" cy="948.1" r="83"/>
		<circle class="st0" cx="1065.5" cy="1048.6" r="4.5"/>
	</g>
	<g>
		
			<ellipse transform="matrix(0.1602 -0.9871 0.9871 0.1602 46.3809 1717.2394)" class="st1" cx="1032.4" cy="831.4" rx="9.6" ry="9.6"/>
		<line class="st2" x1="1020.7" y1="831.4" x2="1044.1" y2="831.4"/>
		<line class="st2" x1="1032.4" y1="820" x2="1032.5" y2="842.3"/>
	</g>
</g>
<circle class="st1" cx="237.1" cy="589.5" r="100.7"/>
<circle class="st1" cx="502.2" cy="589.5" r="100.7"/>
<circle class="st1" cx="767.3" cy="589.5" r="100.7"/>
<ellipse transform="matrix(0.7071 -0.7071 0.7071 0.7071 -114.4423 902.6524)" class="st1" cx="1032.4" cy="589.5" rx="100.7" ry="100.7"/>
<rect x="17.5" y="44.1" class="st3" width="1224" height="324"/>
<path class="st1" d="M343.1,142c32,39.1,8.4,153.2-36.6,176.7c-54.6,28.5-98.1,28.8-121,16.6c-32-17.1-74.2-102.5-68.7-146.2
	c5.6-44.6,83.5-105.7,83.5-105.7S251.6,30.1,343.1,142z"/>
<circle cx="204" cy="320" r="4.5"/>
<circle cx="237.1" cy="102.8" r="17.1"/>
<path class="st1" d="M608.2,142c32,39.1,8.4,153.2-36.6,176.7c-54.6,28.5-98.1,28.8-121,16.6c-32-17.1-74.2-102.5-68.7-146.2
	c5.6-44.6,83.5-105.7,83.5-105.7S516.7,30.1,608.2,142z"/>
<circle cx="469.1" cy="320" r="4.5"/>
<circle cx="502.2" cy="102.8" r="17.1"/>
<path class="st1" d="M873.3,142c32,39.1,8.4,153.2-36.6,176.7c-54.6,28.5-98.1,28.8-121,16.6c-32-17.1-74.2-102.5-68.7-146.2
	c5.6-44.6,83.5-105.7,83.5-105.7S781.8,30.1,873.3,142z"/>
<circle cx="734.2" cy="320" r="4.5"/>
<circle cx="767.3" cy="102.8" r="17.1"/>
<path class="st1" d="M1138.4,142c32,39.1,8.4,153.2-36.6,176.7c-54.6,28.5-98.1,28.8-121,16.6c-32-17.1-74.2-102.5-68.7-146.2
	c5.6-44.6,83.5-105.7,83.5-105.7S1046.9,30.1,1138.4,142z"/>
<circle cx="999.3" cy="320" r="4.5"/>
<ellipse transform="matrix(0.1602 -0.9871 0.9871 0.1602 765.4987 1105.411)" cx="1032.4" cy="102.8" rx="17.1" ry="17.1"/>
<ellipse transform="matrix(0.8487 -0.5289 0.5289 0.8487 -80.3505 158.5957)" cx="237" cy="219.7" rx="101.1" ry="87.2"/>
<ellipse transform="matrix(0.8487 -0.5289 0.5289 0.8487 -40.2183 298.855)" cx="502.2" cy="219.7" rx="101.1" ry="87.2"/>
<ellipse transform="matrix(0.8487 -0.5289 0.5289 0.8487 -8.610787e-02 439.114)" cx="767.4" cy="219.7" rx="101.1" ry="87.2"/>
<ellipse transform="matrix(0.8487 -0.5289 0.5289 0.8487 40.0459 579.3727)" cx="1032.6" cy="219.7" rx="101.1" ry="87.2"/>
</svg>
