<?xml version="1.0" encoding="utf-8"?>
<!-- Generator: Adobe Illustrator 28.0.0, SVG Export Plug-In . SVG Version: 6.00 Build 0)  -->
<svg version="1.1" id="Layer_1" xmlns="http://www.w3.org/2000/svg" xmlns:xlink="http://www.w3.org/1999/xlink" x="0px" y="0px"
	 viewBox="0 0 1320 396.7968" style="enable-background:new 0 0 1320 396.7968;" xml:space="preserve">
<style type="text/css">
	.st0{fill:#FFFFFF;stroke:#000000;stroke-miterlimit:10;}
	.st1{fill:#FFFFFF;}
	.st2{fill:none;stroke:#231F20;stroke-miterlimit:10;}
	.st3{fill:none;stroke:#231F20;stroke-width:1;stroke-miterlimit:10.0002;}
</style>
<rect x="17.4595" y="37.4634" class="st0" width="1224" height="324.0001"/>
<path d="M131.1269,135.3896c-31.9915,39.1312-8.3793,153.1735,36.6001,176.6791c54.5779,28.5219,98.1471,28.7645,120.9725,16.592
	c32.0395-17.0863,74.1989-102.5398,68.6861-146.2215c-5.6228-44.5531-83.4621-105.6666-83.4621-105.6666
	S222.634,23.4607,131.1269,135.3896z"/>
<path d="M396.2183,135.3896c-31.9915,39.1312-8.3793,153.1735,36.6001,176.6791c54.578,28.5219,98.1472,28.7645,120.9725,16.592
	c32.0395-17.0863,74.1989-102.5398,68.6861-146.2215c-5.6228-44.5531-83.4622-105.6666-83.4622-105.6666
	S487.7253,23.4607,396.2183,135.3896z"/>
<path d="M661.3096,135.3896c-31.9915,39.1312-8.3793,153.1735,36.6001,176.6791c54.5779,28.5219,98.1471,28.7645,120.9725,16.592
	c32.0395-17.0863,74.1989-102.5398,68.6861-146.2215c-5.6228-44.5531-83.4622-105.6666-83.4622-105.6666
	S752.8167,23.4607,661.3096,135.3896z"/>
<path d="M926.401,135.3896c-31.9915,39.1312-8.3793,153.1735,36.6001,176.6791c54.5779,28.5219,98.1471,28.7645,120.9725,16.592
	c32.0396-17.0863,74.1989-102.5398,68.686-146.2215c-5.6228-44.5531-83.462-105.6666-83.462-105.6666
	S1017.908,23.4607,926.401,135.3896z"/>
<circle class="st1" cx="237.37" cy="200.1905" r="99.4205"/>
<path class="st2" d="M304.0897,238.9601c-0.614,13.3123-25.3311,31.5312-38.2965,28.2221
	c-15.7322-4.0152-24.3241-11.6405-26.6591-18.0488c-3.2777-8.9951,3.499-33.1874,12.2735-40.7877
	c8.9496-7.752,34.9858-6.0353,34.9858-6.0353S305.8461,200.8821,304.0897,238.9601z"/>
<path class="st2" d="M257.4353,222.4142c-0.4485,0.5741-6.8693,11.6554-5.4508,23.3107"/>
<path class="st2" d="M247.2157,233.3304c1.7135-6.1014,4.5645-16.7939,19.1381-21.9131c2.414-0.848,10.3674-2.1693,13.7162,0.6938
	c3.188,2.7257,2.9536,8.3409-3.4071,14.6362c-8.3318,8.246-19.4137,11.2362-19.4137,11.2362s-3.9128,13.3635,12.5576,14.3377"/>
<ellipse transform="matrix(0.3117 -0.9502 0.9502 0.3117 -20.9458 438.2469)" class="st3" cx="292.0195" cy="233.5809" rx="3.9309" ry="2.3685"/>
<ellipse transform="matrix(0.3117 -0.9502 0.9502 0.3117 -45.0275 420.9617)" class="st3" cx="268.0478" cy="241.5603" rx="3.9309" ry="2.3685"/>
<line class="st2" x1="288.408" y1="212.9173" x2="280.489" y2="239.9302"/>
<path class="st2" d="M288.5802,228.378l-6.4108,7.1625c0,0,3.1936,3.0515,3.7024,3.2587"/>
<path class="st2" d="M276.9213,241.4532c-2.6696,0.8604-3.8178-1.4886-2.813-8.3791 M268.5414,261.7621
	c4.9079-9.4271,8.7252-19.3035,10.7309-29.926"/>
<circle class="st1" cx="502.1941" cy="200.1905" r="99.4205"/>
<path class="st2" d="M568.9137,238.9601c-0.614,13.3123-25.3311,31.5312-38.2966,28.2221
	c-15.7322-4.0152-24.324-11.6405-26.6591-18.0488c-3.2777-8.9951,3.4991-33.1874,12.2735-40.7877
	c8.9495-7.752,34.9858-6.0353,34.9858-6.0353S570.6701,200.8821,568.9137,238.9601z"/>
<path class="st2" d="M522.2593,222.4142c-0.4485,0.5741-6.8693,11.6554-5.4509,23.3107"/>
<path class="st2" d="M512.0398,233.3304c1.7135-6.1014,4.5645-16.7939,19.1381-21.9131c2.414-0.848,10.3674-2.1693,13.7162,0.6938
	c3.188,2.7257,2.9536,8.3409-3.4071,14.6362c-8.3318,8.246-19.4137,11.2362-19.4137,11.2362s-3.9128,13.3635,12.5576,14.3377"/>
<ellipse transform="matrix(0.3117 -0.9502 0.9502 0.3117 161.3365 689.8668)" class="st3" cx="556.8369" cy="233.5737" rx="3.9309" ry="2.3685"/>
<ellipse transform="matrix(0.3117 -0.9502 0.9502 0.3117 137.2548 672.5816)" class="st3" cx="532.8653" cy="241.553" rx="3.9309" ry="2.3685"/>
<line class="st2" x1="553.232" y1="212.9173" x2="545.313" y2="239.9302"/>
<path class="st2" d="M553.4042,228.378l-6.4108,7.1625c0,0,3.1936,3.0515,3.7024,3.2587"/>
<path class="st2" d="M541.7454,241.4532c-2.6696,0.8604-3.8177-1.4886-2.813-8.3791 M533.3655,261.7621
	c4.9079-9.4271,8.7252-19.3035,10.7309-29.926"/>
<circle class="st1" cx="767.0181" cy="200.1905" r="99.4205"/>
<path class="st2" d="M833.7377,238.9601c-0.614,13.3123-25.3311,31.5312-38.2965,28.2221
	c-15.7322-4.0152-24.324-11.6405-26.6591-18.0488c-3.2777-8.9951,3.499-33.1874,12.2735-40.7877
	c8.9495-7.752,34.9858-6.0353,34.9858-6.0353S835.4941,200.8821,833.7377,238.9601z"/>
<path class="st2" d="M787.0834,222.4142c-0.4485,0.5741-6.8693,11.6554-5.4509,23.3107"/>
<path class="st2" d="M776.8638,233.3304c1.7135-6.1014,4.5645-16.7939,19.1381-21.9131c2.414-0.848,10.3674-2.1693,13.7162,0.6938
	c3.188,2.7257,2.9536,8.3409-3.4071,14.6362c-8.3318,8.246-19.4137,11.2362-19.4137,11.2362s-3.9128,13.3635,12.5576,14.3377"/>
<ellipse transform="matrix(0.3117 -0.9502 0.9502 0.3117 343.6189 941.4866)" class="st3" cx="821.6544" cy="233.5662" rx="3.9309" ry="2.3685"/>
<ellipse transform="matrix(0.3117 -0.9502 0.9502 0.3117 319.5372 924.2014)" class="st3" cx="797.6827" cy="241.5457" rx="3.9309" ry="2.3685"/>
<line class="st2" x1="818.0561" y1="212.9173" x2="810.137" y2="239.9302"/>
<path class="st2" d="M818.2283,228.378l-6.4108,7.1625c0,0,3.1936,3.0515,3.7024,3.2587"/>
<path class="st2" d="M806.5694,241.4532c-2.6696,0.8604-3.8177-1.4886-2.813-8.3791 M798.1895,261.7621
	c4.908-9.4271,8.7252-19.3035,10.7309-29.926"/>
<circle class="st1" cx="1031.8422" cy="200.1905" r="99.4205"/>
<path class="st2" d="M1098.5618,238.9601c-0.614,13.3123-25.3312,31.5312-38.2965,28.2221
	c-15.7322-4.0152-24.3241-11.6405-26.6592-18.0488c-3.2776-8.9951,3.4991-33.1874,12.2736-40.7877
	c8.9496-7.752,34.9857-6.0353,34.9857-6.0353S1100.3182,200.8821,1098.5618,238.9601z"/>
<path class="st2" d="M1051.9075,222.4142c-0.4485,0.5741-6.8694,11.6554-5.4509,23.3107"/>
<path class="st2" d="M1041.6879,233.3304c1.7135-6.1014,4.5646-16.7939,19.1381-21.9131c2.4139-0.848,10.3674-2.1693,13.7162,0.6938
	c3.188,2.7257,2.9536,8.3409-3.4071,14.6362c-8.3318,8.246-19.4137,11.2362-19.4137,11.2362s-3.9127,13.3635,12.5576,14.3377"/>
<ellipse transform="matrix(0.3117 -0.9502 0.9502 0.3117 525.9013 1193.1064)" class="st3" cx="1086.4719" cy="233.5589" rx="3.9309" ry="2.3685"/>
<ellipse transform="matrix(0.3117 -0.9502 0.9502 0.3117 501.8195 1175.8213)" class="st3" cx="1062.5001" cy="241.5384" rx="3.9309" ry="2.3685"/>
<line class="st2" x1="1082.8801" y1="212.9173" x2="1074.9611" y2="239.9302"/>
<path class="st2" d="M1083.0522,228.378l-6.4108,7.1625c0,0,3.1936,3.0515,3.7024,3.2587"/>
<path class="st2" d="M1071.3934,241.4532c-2.6696,0.8604-3.8177-1.4886-2.813-8.3791 M1063.0135,261.7621
	c4.908-9.4271,8.7252-19.3035,10.731-29.926"/>
</svg>
