<?xml version="1.0" encoding="UTF-8" standalone="no"?>
<!DOCTYPE svg PUBLIC "-//W3C//DTD SVG 1.1//EN" "http://www.w3.org/Graphics/SVG/1.1/DTD/svg11.dtd">
<!-- Created with Vectornator (http://vectornator.io/) -->
<svg height="100%" stroke-miterlimit="10" style="fill-rule:nonzero;clip-rule:evenodd;stroke-linecap:round;stroke-linejoin:round;" version="1.1" viewBox="0 0 792 612" width="100%" xml:space="preserve" xmlns="http://www.w3.org/2000/svg" xmlns:vectornator="http://vectornator.io" xmlns:xlink="http://www.w3.org/1999/xlink">
<defs/>
<g id="Outline" vectornator:layerName="Outline">
<g opacity="1" vectornator:layerName="Curve 1">
<path d="M317.062 176C311.919 175.952 306.767 175.997 301.625 176.156C284.965 176.672 268.177 178.273 252.031 182.562C242.118 185.196 232.183 188.895 223.688 194.75C219.185 197.853 215.067 201.51 211.75 205.875C209.532 208.794 207.949 212.014 206.219 215.219C204.215 218.93 202.186 222.627 200.25 226.375C189.87 246.47 181.448 267.947 178.062 290.406C177.01 297.387 176.453 304.439 176.531 311.5C176.563 314.416 176.591 317.389 177 320.281C177.499 323.805 178.92 327.182 180.625 330.281C183.196 334.955 186.553 339.148 190.156 343.062C195.06 348.389 200.589 353.132 206.375 357.469C215.589 364.376 225.571 370.224 235.875 375.344C242.437 378.604 249.144 381.552 255.969 384.219C259.073 385.432 262.21 386.738 265.438 387.594C268.273 388.345 271.167 388.708 274.094 388.844C278.702 389.058 283.349 388.554 287.875 387.719C295.638 386.287 303.194 383.784 310.469 380.75C318.801 377.275 326.823 373.069 334.531 368.375C341.183 364.324 347.654 359.899 353.688 354.969C359.628 350.115 365.188 344.72 370.562 339.25C379.741 329.908 388.521 319.569 392.969 307.062C396.644 296.729 392.98 307.068 394.5 262.906C394.499 262.89 394.534 262.892 394.531 262.875C389.023 235.659 391.278 244.629 389 235.656C386.811 227.034 384.18 218.508 380.625 210.344C376.54 200.961 371.133 191.718 363.125 185.156C358.468 181.34 352.951 178.675 347.031 177.531C342.316 176.621 337.296 176.611 332.5 176.406C327.361 176.187 322.206 176.048 317.062 176ZM318.281 177.062C323.447 177.125 328.621 177.299 333.781 177.531C338.116 177.727 342.573 177.738 346.844 178.562C352.044 179.567 356.922 181.795 361.156 184.969C369.134 190.949 374.562 199.72 378.688 208.656C384.674 221.625 378.696 208.661 393.469 263.062C393.47 263.072 393.498 263.053 393.5 263.062C393.501 263.069 393.498 263.087 393.5 263.094C392.031 306.711 396.999 292.753 392.031 306.719C387.496 319.47 378.363 329.936 368.969 339.406C363.875 344.541 358.666 349.61 353.062 354.188C347.677 358.588 341.922 362.56 336.031 366.25C328.446 371.002 320.549 375.262 312.344 378.844C301.104 383.751 288.543 387.872 276.156 387.875C272.947 387.876 269.721 387.583 266.594 386.844C264.228 386.284 261.96 385.415 259.688 384.562C257.474 383.732 255.284 382.858 253.094 381.969C244.539 378.495 236.149 374.585 228.062 370.125C219.315 365.301 210.885 359.857 203.094 353.594C197.78 349.322 192.716 344.685 188.312 339.469C183.894 334.236 179.602 328.09 178.219 321.25C177.586 318.121 177.597 314.654 177.562 311.469C177.497 305.456 177.906 299.462 178.688 293.5C181.836 269.486 190.827 246.597 202 225.25C203.753 221.901 205.586 218.58 207.375 215.25C208.991 212.242 210.514 209.235 212.594 206.5C215.844 202.224 219.87 198.664 224.281 195.625C233.089 189.557 243.452 185.807 253.75 183.188C269.744 179.12 286.35 177.642 302.812 177.188C307.977 177.045 313.116 177 318.281 177.062Z" fill="#000205" stroke="none"/>
</g>
<g opacity="1" vectornator:layerName="Curve 2">
<path d="M590.406 176C585.262 175.952 580.11 175.997 574.969 176.156C558.309 176.672 541.52 178.273 525.375 182.562C515.462 185.196 505.527 188.895 497.031 194.75C492.529 197.853 488.411 201.51 485.094 205.875C482.876 208.794 481.293 212.014 479.562 215.219C477.559 218.93 475.53 222.627 473.594 226.375C463.214 246.47 454.792 267.947 451.406 290.406C450.354 297.387 449.797 304.439 449.875 311.5C449.907 314.416 449.935 317.389 450.344 320.281C450.843 323.805 452.264 327.182 453.969 330.281C456.54 334.955 459.897 339.148 463.5 343.062C468.404 348.389 473.933 353.132 479.719 357.469C488.933 364.376 498.914 370.224 509.219 375.344C515.781 378.604 522.487 381.552 529.312 384.219C532.417 385.432 535.554 386.738 538.781 387.594C541.617 388.345 544.542 388.708 547.469 388.844C552.077 389.058 556.724 388.554 561.25 387.719C569.013 386.287 576.538 383.784 583.812 380.75C592.145 377.275 600.167 373.069 607.875 368.375C614.526 364.324 620.997 359.899 627.031 354.969C632.971 350.115 638.532 344.72 643.906 339.25C653.084 329.908 661.864 319.569 666.312 307.062C669.988 296.729 666.324 307.068 667.844 262.906C667.843 262.89 667.878 262.892 667.875 262.875C662.366 235.659 664.622 244.629 662.344 235.656C660.155 227.034 657.524 218.508 653.969 210.344C649.883 200.961 644.477 191.718 636.469 185.156C631.812 181.34 626.295 178.675 620.375 177.531C615.66 176.621 610.64 176.611 605.844 176.406C600.705 176.187 595.55 176.048 590.406 176ZM591.625 177.062C596.79 177.125 601.965 177.299 607.125 177.531C611.46 177.727 615.917 177.738 620.188 178.562C625.388 179.567 630.266 181.795 634.5 184.969C642.478 190.949 647.906 199.72 652.031 208.656C658.018 221.625 652.04 208.661 666.812 263.062C666.814 263.072 666.842 263.053 666.844 263.062C666.845 263.069 666.842 263.087 666.844 263.094C665.374 306.711 670.342 292.753 665.375 306.719C660.84 319.47 651.707 329.936 642.312 339.406C637.219 344.541 632.009 349.61 626.406 354.188C621.02 358.588 615.266 362.56 609.375 366.25C601.789 371.002 593.893 375.262 585.688 378.844C574.448 383.751 561.886 387.872 549.5 387.875C546.29 387.876 543.064 387.583 539.938 386.844C537.572 386.284 535.303 385.415 533.031 384.562C530.818 383.732 528.628 382.858 526.438 381.969C517.883 378.495 509.492 374.585 501.406 370.125C492.659 365.301 484.228 359.857 476.438 353.594C471.124 349.322 466.06 344.685 461.656 339.469C457.238 334.236 452.945 328.09 451.562 321.25C450.93 318.121 450.941 314.654 450.906 311.469C450.841 305.456 451.25 299.462 452.031 293.5C455.18 269.486 464.202 246.597 475.375 225.25C477.128 221.901 478.93 218.58 480.719 215.25C482.335 212.242 483.858 209.235 485.938 206.5C489.188 202.224 493.214 198.664 497.625 195.625C506.433 189.557 516.796 185.807 527.094 183.188C543.087 179.12 559.694 177.642 576.156 177.188C581.32 177.045 586.46 177 591.625 177.062Z" fill="#000205" stroke="none"/>
</g>
</g>
<g id="Logo" vectornator:layerName="Logo">
<g opacity="1" vectornator:layerName="Curve 1">
<path d="M607.938 279.562C602.516 279.732 596.992 280.273 591.812 281.969C588.945 282.908 586.101 284.243 583.844 286.281C581.775 288.15 580.594 290.669 579.312 293.094C577.229 297.038 575.429 301.135 574.125 305.406C572.977 309.166 572.195 313.062 572.094 317C572.058 318.375 572.01 319.863 572.281 321.219C572.764 323.633 574.429 325.77 576.062 327.531C579.397 331.126 583.585 333.865 587.906 336.125C590.159 337.303 592.48 338.348 594.844 339.281C596.557 339.958 598.263 340.587 600.125 340.625C604.096 340.707 607.969 339.474 611.562 337.875C617.762 335.115 623.014 331.261 627.75 326.438C629.007 325.157 629.07 324.987 629.531 322.906C628.43 324.229 627.273 325.531 626.062 326.719C621.389 331.303 615.957 335.022 609.875 337.5C606.785 338.759 603.517 339.663 600.156 339.594C597.792 339.545 595.54 338.495 593.406 337.594C591.176 336.652 588.987 335.59 586.875 334.406C582.912 332.185 579.049 329.491 576.094 326C574.885 324.571 573.685 322.873 573.312 321C572.955 319.202 573.064 317.159 573.219 315.344C573.543 311.543 574.378 307.832 575.594 304.219C576.928 300.253 578.706 296.461 580.688 292.781C581.634 291.023 582.483 289.179 583.875 287.719C586.096 285.39 589.106 283.956 592.125 282.969C597.209 281.306 602.649 280.76 607.969 280.594C610.742 280.507 613.509 280.546 616.281 280.656C619.573 280.787 622.279 280.829 624.938 283C627.21 284.855 624.984 283.043 633.625 304.625C633.632 304.641 633.618 304.64 633.625 304.656C633.56 306.655 633.676 306.452 633.688 307.688C634.053 306.48 634.154 305.932 634.594 304.531C634.595 304.498 634.662 304.503 634.656 304.469C630.274 288.564 632.646 293.548 630.281 288.562C629.154 286.186 627.683 283.867 625.625 282.188C622.767 279.856 619.851 279.734 616.312 279.594C613.515 279.483 610.736 279.475 607.938 279.562ZM633.688 307.688C631.07 316.341 629.975 320.901 629.531 322.906C631.067 321.061 632.44 319.111 633.25 316.844C634.42 313.57 633.747 313.952 633.688 307.688Z" fill="#000205" stroke="none"/>
</g>
<path d="M620.851 312.305C622.102 312.64 623.544 311.316 624.071 309.348C624.598 307.38 624.012 305.513 622.76 305.178C622.205 305.029 621.612 305.207 621.078 305.624C620.409 306.145 619.833 307.04 619.54 308.134C619.013 310.102 619.599 311.969 620.851 312.305Z" fill="none" opacity="1" stroke="#000205" stroke-linecap="butt" stroke-linejoin="round" stroke-width="1" vectornator:layerName="o2 1"/>
<g opacity="1" vectornator:layerName="k 1">
<path d="M618.531 289.875C618.248 289.798 617.952 289.967 617.875 290.25C615.682 298.332 613.508 306.419 611.312 314.5C611.24 314.768 611.388 315.052 611.656 315.125C611.924 315.198 612.208 315.018 612.281 314.75C614.48 306.67 616.706 298.611 618.906 290.531C618.983 290.248 618.814 289.952 618.531 289.875ZM618.688 303.969C618.477 303.788 618.15 303.821 617.969 304.031C617.313 304.787 617.602 304.448 617.312 304.781C617.536 304.524 616.848 305.305 616.625 305.562C616.402 305.82 616.193 306.087 615.969 306.344C615.75 306.596 615.06 307.349 615.281 307.094C614.831 307.609 614.386 308.139 613.938 308.656C613.714 308.914 613.058 309.663 613.281 309.406C614.845 307.606 613.293 309.414 612.625 310.188C612.434 310.41 612.434 310.746 612.656 310.938C612.878 311.129 613.215 311.097 613.406 310.875C614.734 309.323 614.556 309.571 614.75 309.344C614.972 309.085 615.185 308.822 615.406 308.562C616.069 307.785 616.742 306.996 617.406 306.219C617.628 305.96 618.284 305.178 618.062 305.438C616.513 307.251 618.052 305.462 618.719 304.688C618.9 304.477 618.898 304.15 618.688 303.969ZM613.375 310.156C613.159 309.958 612.823 309.971 612.625 310.188C612.427 310.404 612.44 310.74 612.656 310.938C613.603 311.79 614.553 312.648 615.5 313.5C615.705 313.687 616.031 313.674 616.219 313.469C616.406 313.264 616.392 312.937 616.188 312.75C615.254 311.883 614.309 311.023 613.375 310.156Z" fill="#000205" stroke="none"/>
</g>
<g opacity="1" vectornator:layerName="y 1">
<path d="M606.188 308.031C605.923 307.904 605.596 307.986 605.469 308.25C605.475 308.267 605.462 308.264 605.469 308.281C605.471 308.287 605.466 308.306 605.469 308.312C605.46 308.328 605.446 308.357 605.438 308.375C605.394 308.469 605.353 308.561 605.312 308.656C605.259 308.784 605.171 309 605.125 309.125C604.961 309.573 604.843 309.906 604.719 310.375C604.365 311.714 604.17 313.19 604.625 314.531C604.935 315.446 605.61 316.441 606.625 316.625C607.113 316.714 607.616 316.606 608.062 316.406C608.073 316.402 608.479 316.214 608.469 316.188C608.064 315.074 608.123 315.177 608.188 315.344C608.095 315.347 608.02 315.256 607.938 315.312C607.189 312.016 607.635 313.072 607.188 312.031C606.742 310.994 607.682 314.206 607.906 315.312C607.915 315.358 607.53 315.52 607.5 315.531C607.175 315.648 606.772 315.704 606.469 315.5C604.982 314.498 605.365 312.063 605.75 310.625C605.795 310.457 605.853 310.291 605.906 310.125C606.156 311.585 605.991 312.087 607 312.219C607.166 312.24 607.12 312.087 607.188 312.031C607.552 311.729 606.86 310.602 606.156 309.469C606.183 309.398 606.191 309.32 606.219 309.25C606.266 309.133 606.293 309.052 606.344 308.938C606.37 308.878 606.423 308.686 606.438 308.75C606.437 308.748 606.437 308.719 606.438 308.719C606.565 308.455 606.452 308.159 606.188 308.031ZM608.188 315.344C608.318 315.686 608.485 316.167 608.5 316.156C608.729 315.999 608.782 315.666 608.625 315.438C608.524 315.291 608.353 315.339 608.188 315.344ZM610.375 307.125C610.088 307.066 609.809 307.244 609.75 307.531C607.871 316.648 605.28 325.727 600.406 333.719C600.262 333.956 600.357 334.262 600.594 334.406C600.831 334.551 601.137 334.487 601.281 334.25C606.22 326.16 608.901 316.982 610.812 307.75C610.872 307.463 610.662 307.184 610.375 307.125Z" fill="#000205" stroke="none"/>
</g>
<path d="M598.997 319.578C600.248 319.914 601.69 318.59 602.218 316.622C602.745 314.654 602.158 312.787 600.907 312.452C600.352 312.303 599.758 312.481 599.224 312.897C598.556 313.419 597.98 314.314 597.687 315.408C597.159 317.376 597.746 319.243 598.997 319.578Z" fill="none" opacity="1" stroke="#000205" stroke-linecap="butt" stroke-linejoin="round" stroke-width="1" vectornator:layerName="o 1"/>
<g opacity="1" vectornator:layerName="R 1">
<g opacity="1" vectornator:layerName="Curve 1">
<path d="M607.562 286.75C605.584 286.563 603.503 286.826 601.844 287.125C601.077 287.263 600.346 287.425 599.594 287.625C591.661 289.738 585.874 295.391 582.906 302.938C582.209 304.711 581.6 306.605 581.344 308.5C581.307 308.775 581.506 309.025 581.781 309.062C582.056 309.1 582.307 308.9 582.344 308.625C582.613 306.617 583.287 304.642 584.062 302.781C587.142 295.393 593.012 290.101 600.906 288.344C601.757 288.154 602.29 288.066 603.156 287.938C605.805 287.545 609.945 287.38 611.812 289.688C613.75 292.081 612.199 295.67 610.844 297.938C607.634 303.309 602.23 307.384 596.719 310.156C595.1 310.971 593.445 311.646 591.75 312.281C591.21 312.484 590.518 312.568 590.094 313.062C589.886 313.304 589.835 314.017 589.781 314.312C589.566 315.499 589.504 316.711 589.688 317.906C590.308 321.949 594.078 324.557 597.688 325.812C598.867 326.223 600.271 326.649 601.531 326.406C601.819 326.349 601.995 326.1 601.938 325.812C601.88 325.525 601.6 325.318 601.312 325.375C600.264 325.595 599.005 325.151 598.031 324.812C595.39 323.895 592.577 322.229 591.312 319.625C590.576 318.107 590.518 316.359 590.781 314.719C590.841 314.345 590.931 313.991 591.031 313.625C591.826 313.418 592.739 313.056 593.438 312.781C594.718 312.278 595.99 311.713 597.219 311.094C602.13 308.618 606.733 305.211 610.125 300.844C612.397 297.918 615.431 292.53 612.594 289.031C611.4 287.559 609.541 286.937 607.562 286.75Z" fill="#000205" stroke="none"/>
</g>
<g opacity="1" vectornator:layerName="Curve 2">
<path d="M590.344 298.344C590.085 298.243 589.788 298.366 589.688 298.625C588.094 302.715 586.767 306.956 585.875 311.25C585.305 313.991 584.899 316.812 585.375 319.594C585.425 319.883 585.68 320.081 585.969 320.031C586.258 319.981 586.456 319.695 586.406 319.406C585.882 316.384 586.458 313.27 587.125 310.312C587.993 306.465 589.193 302.68 590.625 299C590.726 298.741 590.602 298.445 590.344 298.344Z" fill="#000205" stroke="none"/>
</g>
</g>
<path d="M204.706 280.031C204.706 233.421 242.491 195.635 289.102 195.635C335.712 195.635 373.497 233.421 373.497 280.031C373.497 326.641 335.712 364.426 289.102 364.426C242.491 364.426 204.706 326.641 204.706 280.031Z" fill="none" opacity="1" stroke="#000205" stroke-linecap="butt" stroke-linejoin="round" stroke-width="1" vectornator:layerName="Oval 1"/>
<path d="M222.636 280.031C222.636 243.323 252.393 213.565 289.102 213.565C325.81 213.565 355.568 243.323 355.568 280.031C355.568 316.739 325.81 346.497 289.102 346.497C252.393 346.497 222.636 316.739 222.636 280.031Z" fill="none" opacity="1" stroke="#000205" stroke-linecap="butt" stroke-linejoin="round" stroke-width="1" vectornator:layerName="Oval 2"/>
<path d="M353.247 466.778C353.247 464.293 353.118 462.16 352.861 460.379C352.603 458.598 352.263 457.045 351.841 455.721C351.419 454.397 350.939 453.242 350.4 452.258C349.861 451.274 349.31 450.348 348.747 449.481C348.185 448.614 347.634 447.746 347.095 446.879C346.556 446.012 346.075 445.028 345.654 443.926C345.232 442.824 344.892 441.553 344.634 440.112C344.376 438.67 344.247 436.942 344.247 434.926L344.247 426.453C344.247 425.891 344.335 425.252 344.511 424.537C344.687 423.823 345.021 423.155 345.513 422.533C346.005 421.912 346.691 421.385 347.57 420.951C348.448 420.518 349.591 420.301 350.997 420.301C352.404 420.301 353.546 420.518 354.425 420.951C355.304 421.385 355.989 421.912 356.482 422.533C356.974 423.155 357.308 423.823 357.484 424.537C357.659 425.252 357.747 425.891 357.747 426.453L357.747 442.203L353.247 442.203L353.247 426.453C353.247 425.891 353.183 425.428 353.054 425.065C352.925 424.701 352.755 424.42 352.544 424.221C352.333 424.022 352.093 423.881 351.823 423.799C351.554 423.717 351.279 423.676 350.997 423.676C350.716 423.676 350.441 423.717 350.171 423.799C349.902 423.881 349.661 424.022 349.45 424.221C349.239 424.42 349.07 424.701 348.941 425.065C348.812 425.428 348.747 425.891 348.747 426.453L348.747 433.309C348.747 435.957 348.97 438.172 349.415 439.953C349.861 441.735 350.417 443.287 351.085 444.612C351.753 445.936 352.474 447.137 353.247 448.215C354.021 449.293 354.741 450.459 355.409 451.713C356.077 452.967 356.634 454.42 357.079 456.073C357.525 457.725 357.747 459.782 357.747 462.242L357.747 475.953C357.747 476.235 357.712 476.744 357.642 477.483C357.571 478.221 357.325 478.977 356.904 479.75C356.482 480.524 355.814 481.209 354.9 481.807C353.986 482.405 352.685 482.703 350.997 482.703C349.31 482.703 348.009 482.405 347.095 481.807C346.181 481.209 345.513 480.524 345.091 479.75C344.669 478.977 344.423 478.221 344.353 477.483C344.282 476.744 344.247 476.235 344.247 475.953L344.247 455.703L348.747 455.703L348.747 475.953C348.747 476.235 348.759 476.569 348.782 476.955C348.806 477.342 348.888 477.711 349.029 478.063C349.169 478.414 349.392 478.713 349.696 478.959C350.001 479.205 350.435 479.328 350.997 479.328C351.56 479.328 351.993 479.205 352.298 478.959C352.603 478.713 352.825 478.414 352.966 478.063C353.107 477.711 353.189 477.342 353.212 476.955C353.236 476.569 353.247 476.235 353.247 475.953L353.247 466.778Z" fill="#000205" fill-rule="nonzero" opacity="1" stroke="none"/>
<path d="M375.497 475.578L370.997 475.578L370.435 460.953L367.095 460.953L366.497 475.578L361.997 475.578L365.372 414.828L372.122 414.828L375.497 475.578ZM369.872 444.078L368.747 417.078L367.622 444.078L367.095 457.578L370.435 457.578L369.872 444.078Z" fill="#000205" fill-rule="nonzero" opacity="1" stroke="none"/>
<path d="M383.372 408.828L383.372 466.203L387.872 466.203L387.872 469.578L378.872 469.578L378.872 408.828L383.372 408.828Z" fill="#000205" fill-rule="nonzero" opacity="1" stroke="none"/>
<path d="M401.747 402.828L401.747 406.203L397.247 406.203L397.247 463.578L392.747 463.578L392.747 406.203L388.247 406.203L388.247 402.828L401.747 402.828Z" fill="#000205" fill-rule="nonzero" opacity="1" stroke="none"/>
</g>
</svg>
