<?xml version="1.0" encoding="utf-8"?>
<!-- Generator: Adobe Illustrator 28.0.0, SVG Export Plug-In . SVG Version: 6.00 Build 0)  -->
<svg version="1.1" id="Layer_1" xmlns="http://www.w3.org/2000/svg" xmlns:xlink="http://www.w3.org/1999/xlink" x="0px" y="0px"
	 viewBox="0 0 1320 387.1831" style="enable-background:new 0 0 1320 387.1831;" xml:space="preserve">
<style type="text/css">
	.st0{stroke:#000000;stroke-miterlimit:10;}
	.st1{fill:#FFFFFF;}
</style>
<rect x="17.4595" y="36" class="st0" width="1224" height="324"/>
<path class="st1" d="M343.1232,133.9262c31.9915,39.1312,8.3793,153.1734-36.6001,176.6792
	c-54.578,28.5218-98.1471,28.7645-120.9725,16.592c-32.0395-17.0863-74.1989-102.5398-68.6861-146.2214
	c5.6228-44.5531,83.4621-105.6667,83.4621-105.6667S251.6161,21.9971,343.1232,133.9262z"/>
<circle cx="203.9844" cy="311.9837" r="4.5071"/>
<circle cx="237.1027" cy="94.7773" r="17.1496"/>
<path class="st1" d="M608.2145,133.9262c31.9915,39.1312,8.3793,153.1734-36.6001,176.6792
	c-54.5779,28.5218-98.1472,28.7645-120.9725,16.592c-32.0395-17.0863-74.1989-102.5398-68.6861-146.2214
	c5.6228-44.5531,83.4621-105.6667,83.4621-105.6667S516.7075,21.9971,608.2145,133.9262z"/>
<circle cx="469.0757" cy="311.9837" r="4.5071"/>
<circle cx="502.1941" cy="94.7773" r="17.1496"/>
<path class="st1" d="M873.3059,133.9262c31.9915,39.1312,8.3793,153.1734-36.6002,176.6792
	c-54.5779,28.5218-98.1471,28.7645-120.9725,16.592c-32.0396-17.0863-74.1989-102.5398-68.6861-146.2214
	c5.6228-44.5531,83.4621-105.6667,83.4621-105.6667S781.7988,21.9971,873.3059,133.9262z"/>
<circle cx="734.1671" cy="311.9837" r="4.5071"/>
<circle cx="767.2854" cy="94.7773" r="17.1496"/>
<path class="st1" d="M1138.3972,133.9262c31.9915,39.1312,8.3794,153.1734-36.6001,176.6792
	c-54.5779,28.5218-98.1471,28.7645-120.9725,16.592c-32.0395-17.0863-74.1989-102.5398-68.686-146.2214
	c5.6228-44.5531,83.4621-105.6667,83.4621-105.6667S1046.8903,21.9971,1138.3972,133.9262z"/>
<circle cx="999.2584" cy="311.9837" r="4.5071"/>
<circle cx="1032.3767" cy="94.7773" r="17.1496"/>
<ellipse transform="matrix(0.8487 -0.5289 0.5289 0.8487 -76.0916 157.3641)" cx="236.996" cy="211.6753" rx="101.1412" ry="87.2075"/>
<ellipse transform="matrix(0.8487 -0.5289 0.5289 0.8487 -35.9687 297.6181)" cx="502.1941" cy="211.6753" rx="101.1412" ry="87.2075"/>
<ellipse transform="matrix(0.8487 -0.5289 0.5289 0.8487 4.1542 437.872)" cx="767.3921" cy="211.6753" rx="101.1412" ry="87.2075"/>
<ellipse transform="matrix(0.8487 -0.5289 0.5289 0.8487 44.2771 578.126)" cx="1032.5902" cy="211.6753" rx="101.1412" ry="87.2075"/>
</svg>
