<?xml version="1.0" encoding="utf-8"?>
<!-- Generator: Adobe Illustrator 28.0.0, SVG Export Plug-In . SVG Version: 6.00 Build 0)  -->
<svg version="1.1" id="Layer_1" xmlns="http://www.w3.org/2000/svg" xmlns:xlink="http://www.w3.org/1999/xlink" x="0px" y="0px"
	 viewBox="0 0 1320 1135.8" style="enable-background:new 0 0 1320 1135.8;" xml:space="preserve">
<style type="text/css">
	.st0{stroke:#000000;stroke-miterlimit:10;}
	.st1{fill:#FFFFFF;}
	.st2{fill:none;stroke:#000000;stroke-miterlimit:10;}
	.st3{fill:none;stroke:#231F20;stroke-miterlimit:10;}
	.st4{fill:none;stroke:#231F20;stroke-width:1;stroke-miterlimit:10.0006;}
	.st5{fill:#FFFFFF;stroke:#000000;stroke-miterlimit:10;}
</style>
<rect x="17.5" y="35.8264" class="st0" width="1224" height="342"/>
<g>
	<path class="st1" d="M301.5,142c32,39.1,8.4,153.2-36.6,176.7c-54.6,28.5-98.1,28.8-121,16.6c-32-17.1-74.2-102.5-68.7-146.2
		c5.6-44.6,83.5-105.7,83.5-105.7S210,30.1,301.5,142z"/>
	<circle cx="162.3" cy="320" r="4.5"/>
	<circle cx="195.5" cy="102.8" r="17.1"/>
	
		<ellipse transform="matrix(0.8487 -0.5289 0.5289 0.8487 -86.6241 136.5771)" cx="195.3832" cy="219.6812" rx="101.1014" ry="87.2012"/>
</g>
<g>
	<path class="st1" d="M589.1,142c32,39.1,8.4,153.2-36.6,176.7c-54.6,28.5-98.1,28.8-121,16.6c-32-17.1-74.2-102.5-68.7-146.2
		c5.6-44.6,83.5-105.7,83.5-105.7S497.5,30.1,589.1,142z"/>
	<circle cx="449.9" cy="320" r="4.5"/>
	<circle cx="483" cy="102.8" r="17.1"/>
	
		<ellipse transform="matrix(0.8487 -0.5289 0.5289 0.8487 -43.1248 288.7036)" cx="483.0036" cy="219.7208" rx="101.1013" ry="87.2012"/>
</g>
<g>
	<path class="st1" d="M888.1,142c32,39.1,8.4,153.2-36.6,176.7c-54.6,28.5-98.1,28.8-121,16.6c-32-17.1-74.2-102.5-68.7-146.2
		c5.6-44.6,83.5-105.7,83.5-105.7S796.6,30.1,888.1,142z"/>
	<circle cx="749" cy="320" r="4.5"/>
	<circle cx="782.1" cy="102.8" r="17.1"/>
	
		<ellipse transform="matrix(0.8487 -0.5289 0.5289 0.8487 2.1559 446.9489)" cx="782.209" cy="219.7066" rx="101.1013" ry="87.2012"/>
</g>
<g>
	<path class="st1" d="M1181.2,142c32,39.1,8.4,153.2-36.6,176.7c-54.6,28.5-98.1,28.8-121,16.6c-32-17.1-74.2-102.5-68.7-146.2
		c5.6-44.6,83.4999-105.7,83.4999-105.7S1089.7,30.1,1181.2,142z"/>
	<circle cx="1042" cy="320" r="4.5"/>
	
		<ellipse transform="matrix(0.1602 -0.9871 0.9871 0.1602 801.3555 1147.609)" cx="1075.1147" cy="102.8569" rx="17.1002" ry="17.1003"/>
	
		<ellipse transform="matrix(0.8487 -0.5289 0.5289 0.8487 46.5402 602.0137)" cx="1075.4075" cy="219.6687" rx="101.1013" ry="87.2012"/>
</g>
<text transform="matrix(1 0 0 1 304.0054 -283.8423)" style="font-family:'ArialMT'; font-size:12px;">X</text>
<rect x="17.5" y="390.8535" class="st2" width="1224" height="342"/>
<g>
	<path d="M158.7,685.2617c0,0-77.8-61.1-83.5-105.7c-5.5-43.7,36.6-129.1,68.7-146.2c22.8-12.2,66.4-11.9,121,16.6
		c45,23.5,68.6,137.5,36.6,176.7C210,738.6616,158.7,685.2617,158.7,685.2617z"/>
	<circle class="st1" cx="195.5" cy="560.0616" r="101.5"/>
	<g>
		<path class="st3" d="M257,599.8616c-0.6,13.3-25.3,31.5-38.3,28.2c-15.7-4-24.3-11.6-26.7-18c-3.3-9,3.5-33.2,12.3-40.8
			c8.9-7.8,35-6,35-6S258.7,561.7617,257,599.8616z"/>
		<path class="st3" d="M210.3,583.2617c-0.4,0.6-6.9,11.7-5.5,23.3"/>
		<path class="st3" d="M200.1,594.2617c1.7-6.1,4.6-16.8,19.1-21.9c2.4-0.8,10.4-2.2,13.7,0.7c3.2,2.7,3,8.3-3.4,14.6
			c-8.3,8.2-19.4,11.2-19.4,11.2s-3.9,13.4,12.6,14.3"/>
		
			<ellipse transform="matrix(0.3117 -0.9502 0.9502 0.3117 -396.2834 641.8616)" class="st4" cx="244.8922" cy="594.4586" rx="3.9001" ry="2.4001"/>
		
			<ellipse transform="matrix(0.3117 -0.9502 0.9502 0.3117 -420.3904 624.6096)" class="st4" cx="220.9308" cy="602.472" rx="3.9001" ry="2.4001"/>
		<line class="st3" x1="241.3" y1="573.8616" x2="233.4" y2="600.8616"/>
		<path class="st3" d="M241.4,589.2617l-6.4,7.2c0,0,3.2,3.1,3.7,3.3"/>
		<path class="st3" d="M229.8,602.3616c-2.7,0.9-3.8-1.5-2.8-8.4 M221.4,622.6616c4.9-9.4,8.7-19.3,10.7-29.9"/>
	</g>
</g>
<g>
	<path d="M446.3,685.2617c0,0-77.8-61.1-83.5-105.7c-5.5-43.7,36.6-129.1,68.7-146.2c22.8-12.2,66.4-11.9,121,16.6
		c45,23.5,68.6,137.5,36.6,176.7C497.5,738.6616,446.3,685.2617,446.3,685.2617z"/>
	<circle class="st1" cx="483.1" cy="560.0616" r="101.5"/>
	<g>
		<path class="st3" d="M544.5,599.8616c-0.6,13.3-25.3,31.5-38.3,28.2c-15.7-4-24.3-11.6-26.7-18c-3.3-9,3.5-33.2,12.3-40.8
			c8.9-7.8,35-6,35-6S546.3,561.7617,544.5,599.8616z"/>
		<path class="st3" d="M497.9,583.2617c-0.4,0.6-6.9,11.7-5.5,23.3"/>
		<path class="st3" d="M487.7,594.2617c1.7-6.1,4.6-16.8,19.1-21.9c2.4-0.8,10.4-2.2,13.7,0.7c3.2,2.7,3,8.3-3.4,14.6
			c-8.3,8.2-19.4,11.2-19.4,11.2s-3.9,13.4,12.6,14.3"/>
		
			<ellipse transform="matrix(0.3117 -0.9502 0.9502 0.3117 -198.3049 915.1045)" class="st4" cx="532.4827" cy="594.4288" rx="3.9001" ry="2.4001"/>
		
			<ellipse transform="matrix(0.3117 -0.9502 0.9502 0.3117 -222.4124 897.8511)" class="st4" cx="508.5214" cy="602.4422" rx="3.9001" ry="2.4001"/>
		<line class="st3" x1="528.8" y1="573.8616" x2="520.9" y2="600.8616"/>
		<path class="st3" d="M529,589.2617l-6.4,7.2c0,0,3.2,3.1,3.7,3.3"/>
		<path class="st3" d="M517.4,602.3616c-2.7,0.9-3.8-1.5-2.8-8.4 M509,622.6616c4.9-9.4,8.7-19.3,10.7-29.9"/>
	</g>
</g>
<g>
	<path d="M745.3,685.2617c0,0-77.8-61.1-83.5-105.7c-5.5-43.7,36.6-129.1,68.7-146.2c22.8-12.2,66.4-11.9,121,16.6
		c45,23.5,68.6,137.5,36.6,176.7C796.6,738.6616,745.3,685.2617,745.3,685.2617z"/>
	<circle class="st1" cx="782.2" cy="560.0616" r="101.5"/>
	<g>
		<path class="st3" d="M843.6,599.8616c-0.6,13.3-25.3,31.5-38.3,28.2c-15.7-4-24.3-11.6-26.7-18c-3.3-9,3.5-33.2,12.3-40.8
			c8.9-7.8,35-6,35-6S845.4,561.7617,843.6,599.8616z"/>
		<path class="st3" d="M796.9,583.2617c-0.4,0.6-6.9,11.7-5.5,23.3"/>
		<path class="st3" d="M786.7,594.2617c1.7-6.1,4.6-16.8,19.1-21.9c2.4-0.8,10.4-2.2,13.7,0.7c3.2,2.7,3,8.3-3.4,14.6
			c-8.3,8.2-19.4,11.2-19.4,11.2s-3.9,13.4,12.6,14.3"/>
		
			<ellipse transform="matrix(0.3117 -0.9502 0.9502 0.3117 7.4781 1199.3091)" class="st4" cx="831.5416" cy="594.493" rx="3.9001" ry="2.4001"/>
		
			<ellipse transform="matrix(0.3117 -0.9502 0.9502 0.3117 -16.5174 1182.0215)" class="st4" cx="807.6113" cy="602.4116" rx="3.9001" ry="2.4001"/>
		<line class="st3" x1="827.9" y1="573.8616" x2="820" y2="600.8616"/>
		<path class="st3" d="M828.1,589.2617l-6.4,7.2c0,0,3.2,3.1,3.7,3.3"/>
		<path class="st3" d="M816.4,602.3616c-2.7,0.9-3.8-1.5-2.8-8.4 M808.1,622.6616c4.9-9.4,8.7-19.3,10.7-29.9"/>
	</g>
</g>
<g>
	<path d="M1038.4,685.2617c0,0-77.8-61.1-83.5-105.7c-5.5-43.7,36.6-129.1,68.7-146.2c22.8-12.2,66.4-11.9,121.0001,16.6
		c45,23.5,68.6,137.5,36.6,176.7C1089.7,738.6616,1038.4,685.2617,1038.4,685.2617z"/>
	<circle class="st1" cx="1075.2" cy="560.0616" r="101.5"/>
	<g>
		<path class="st3" d="M1136.6,599.8616c-0.6,13.3-25.3,31.5-38.3,28.2c-15.7-4-24.3-11.6-26.7-18c-3.3-9,3.5-33.2,12.3-40.8
			c8.9-7.8,35-6,35-6S1138.4,561.7617,1136.6,599.8616z"/>
		<path class="st3" d="M1090,583.2617c-0.4,0.6-6.9,11.7-5.5,23.3"/>
		<path class="st3" d="M1079.8,594.2617c1.7-6.1,4.6-16.8,19.1-21.9c2.4-0.8,10.4-2.2,13.7,0.7c3.2,2.7,3,8.3-3.4,14.6
			c-8.3,8.2-19.4,11.2-19.4,11.2s-3.9,13.4,12.6,14.3"/>
		
			<ellipse transform="matrix(0.3117 -0.9502 0.9502 0.3117 209.2614 1477.7195)" class="st4" cx="1124.6012" cy="594.4207" rx="3.9001" ry="2.4001"/>
		
			<ellipse transform="matrix(0.3117 -0.9502 0.9502 0.3117 185.1545 1460.4674)" class="st4" cx="1100.6398" cy="602.434" rx="3.9001" ry="2.4001"/>
		<line class="st3" x1="1121" y1="573.8616" x2="1113" y2="600.8616"/>
		<path class="st3" d="M1121.1,589.2617l-6.4,7.2c0,0,3.2,3.1,3.7,3.3"/>
		<path class="st3" d="M1109.5,602.3616c-2.7,0.9-3.8-1.5-2.8-8.4 M1101.1,622.6616c4.9-9.4,8.7-19.3,10.7-29.9"/>
	</g>
</g>
<rect x="17.5" y="745.5" class="st5" width="1224" height="342"/>
<g>
	<path d="M89.5,852.5c-32,39.1-8.4,153.2,36.6,176.7c54.6,28.5,98.1,28.8,121,16.6c32-17.1,74.2-102.5,68.7-146.2
		c-5.6-44.6-83.5-105.7-83.5-105.7S181,740.5,89.5,852.5z"/>
	<circle class="st5" cx="228.6" cy="1030.5" r="4.5"/>
	<g>
		<circle class="st1" cx="195.5" cy="813.3" r="9.5"/>
		<line class="st2" x1="202" y1="813.3" x2="189" y2="813.3"/>
		<line class="st2" x1="195.5" y1="807" x2="195.4" y2="819.4"/>
	</g>
</g>
<g>
	<path d="M377.1,852.5c-32,39.1-8.4,153.2,36.6,176.7c54.6,28.5,98.1,28.8,121,16.6c32-17.1,74.2-102.5,68.7-146.2
		c-5.6-44.6-83.5-105.7-83.5-105.7S468.6,740.5,377.1,852.5z"/>
	<circle class="st5" cx="516.2" cy="1030.5" r="4.5"/>
	<g>
		<circle class="st1" cx="483.1" cy="813.3" r="9.5"/>
		<line class="st2" x1="489.6" y1="813.3" x2="476.6" y2="813.3"/>
		<line class="st2" x1="483" y1="807" x2="483" y2="819.4"/>
	</g>
</g>
<g>
	<path d="M676.1,852.5c-32,39.1-8.4,153.2,36.6,176.7c54.6,28.5,98.1,28.8,121,16.6c32-17.1,74.2-102.5,68.7-146.2
		c-5.6-44.6-83.5-105.7-83.5-105.7S767.6,740.5,676.1,852.5z"/>
	<circle class="st5" cx="815.3" cy="1030.5" r="4.5"/>
	<g>
		<circle class="st1" cx="782.2" cy="813.3" r="9.5"/>
		<line class="st2" x1="788.6" y1="813.3" x2="775.7" y2="813.3"/>
		<line class="st2" x1="782.1" y1="807" x2="782.1" y2="819.4"/>
	</g>
</g>
<g>
	<path d="M969.2,852.5c-32,39.1-8.4,153.2,36.6,176.7c54.6,28.5,98.1,28.8,121.0001,16.6c32-17.1,74.2-102.5,68.7-146.2
		c-5.6-44.6-83.5-105.7-83.5-105.7S1060.7,740.5,969.2,852.5z"/>
	<circle class="st5" cx="1108.3" cy="1030.5" r="4.5"/>
	<g>
		<circle class="st1" cx="1075.2" cy="813.3" r="9.5"/>
		<line class="st2" x1="1081.7" y1="813.3" x2="1068.7" y2="813.3"/>
		<line class="st2" x1="1075.1" y1="807" x2="1075.1" y2="819.4"/>
	</g>
</g>
</svg>
