<?xml version="1.0" encoding="utf-8"?>
<!-- Generator: Adobe Illustrator 28.0.0, SVG Export Plug-In . SVG Version: 6.00 Build 0)  -->
<svg version="1.1" id="Layer_1" xmlns="http://www.w3.org/2000/svg" xmlns:xlink="http://www.w3.org/1999/xlink" x="0px" y="0px"
	 viewBox="0 0 1320 1135.8" style="enable-background:new 0 0 1320 1135.8;" xml:space="preserve">
<style type="text/css">
	.st0{fill:none;stroke:#000000;stroke-miterlimit:10;}
	.st1{fill:#FFFFFF;}
	.st2{fill:none;stroke:#231F20;stroke-miterlimit:10;}
	.st3{fill:none;stroke:#231F20;stroke-width:1;stroke-miterlimit:10.0008;}
</style>
<text transform="matrix(1 0 0 1 304.0054 -283.8423)" style="font-family:'ArialMT'; font-size:12px;">X</text>
<rect x="17.5" y="390.8535" class="st0" width="1224" height="342"/>
<g>
	<path d="M158.7,685.2617c0,0-77.8-61.1-83.5-105.7c-5.5-43.7,36.6-129.1,68.7-146.2c22.8-12.2,66.4-11.9,121,16.6
		c45,23.5,68.6,137.5,36.6,176.7C210,738.6616,158.7,685.2617,158.7,685.2617z"/>
	<circle class="st1" cx="195.5" cy="560.0616" r="101.5"/>
	<g>
		<path class="st2" d="M257,599.8616c-0.6,13.3-25.3,31.5-38.3,28.2c-15.7-4-24.3-11.6-26.7-18c-3.3-9,3.5-33.2,12.3-40.8
			c8.9-7.8,35-6,35-6S258.7,561.7617,257,599.8616z"/>
		<path class="st2" d="M210.3,583.2617c-0.4,0.6-6.9,11.7-5.5,23.3"/>
		<path class="st2" d="M200.1,594.2617c1.7-6.1,4.6-16.8,19.1-21.9c2.4-0.8,10.4-2.2,13.7,0.7c3.2,2.7,3,8.3-3.4,14.6
			c-8.3,8.2-19.4,11.2-19.4,11.2s-3.9,13.4,12.6,14.3"/>
		
			<ellipse transform="matrix(0.3117 -0.9502 0.9502 0.3117 -396.2744 641.8723)" class="st3" cx="244.9041" cy="594.4578" rx="3.9002" ry="2.4001"/>
		
			<ellipse transform="matrix(0.3117 -0.9502 0.9502 0.3117 -420.382 624.6205)" class="st3" cx="220.9426" cy="602.4717" rx="3.9002" ry="2.4001"/>
		<line class="st2" x1="241.3" y1="573.8616" x2="233.4" y2="600.8616"/>
		<path class="st2" d="M241.4,589.2617l-6.4,7.2c0,0,3.2,3.1,3.7,3.3"/>
		<path class="st2" d="M229.8,602.3616c-2.7,0.9-3.8-1.5-2.8-8.4 M221.4,622.6616c4.9-9.4,8.7-19.3,10.7-29.9"/>
	</g>
</g>
<g>
	<path d="M446.3,685.2617c0,0-77.8-61.1-83.5-105.7c-5.5-43.7,36.6-129.1,68.7-146.2c22.8-12.2,66.4-11.9,121,16.6
		c45,23.5,68.6,137.5,36.6,176.7C497.5,738.6616,446.3,685.2617,446.3,685.2617z"/>
	<circle class="st1" cx="483.1" cy="560.0616" r="101.5"/>
	<g>
		<path class="st2" d="M544.5,599.8616c-0.6,13.3-25.3,31.5-38.3,28.2c-15.7-4-24.3-11.6-26.7-18c-3.3-9,3.5-33.2,12.3-40.8
			c8.9-7.8,35-6,35-6S546.3,561.7617,544.5,599.8616z"/>
		<path class="st2" d="M497.9,583.2617c-0.4,0.6-6.9,11.7-5.5,23.3"/>
		<path class="st2" d="M487.7,594.2617c1.7-6.1,4.6-16.8,19.1-21.9c2.4-0.8,10.4-2.2,13.7,0.7c3.2,2.7,3,8.3-3.4,14.6
			c-8.3,8.2-19.4,11.2-19.4,11.2s-3.9,13.4,12.6,14.3"/>
		
			<ellipse transform="matrix(0.3117 -0.9502 0.9502 0.3117 -198.2899 915.1132)" class="st3" cx="532.4962" cy="594.4229" rx="3.9002" ry="2.4001"/>
		
			<ellipse transform="matrix(0.3117 -0.9502 0.9502 0.3117 -222.3969 897.8586)" class="st3" cx="508.5343" cy="602.4352" rx="3.9002" ry="2.4001"/>
		<line class="st2" x1="528.8" y1="573.8616" x2="520.9" y2="600.8616"/>
		<path class="st2" d="M529,589.2617l-6.4,7.2c0,0,3.2,3.1,3.7,3.3"/>
		<path class="st2" d="M517.4,602.3616c-2.7,0.9-3.8-1.5-2.8-8.4 M509,622.6616c4.9-9.4,8.7-19.3,10.7-29.9"/>
	</g>
</g>
<g>
	<path d="M745.3,685.2617c0,0-77.8-61.1-83.5-105.7c-5.5-43.7,36.6-129.1,68.7-146.2c22.8-12.2,66.4-11.9,121,16.6
		c45,23.5,68.6,137.5,36.6,176.7C796.6,738.6616,745.3,685.2617,745.3,685.2617z"/>
	<circle class="st1" cx="782.2" cy="560.0616" r="101.5"/>
	<g>
		<path class="st2" d="M843.6,599.8616c-0.6,13.3-25.3,31.5-38.3,28.2c-15.7-4-24.3-11.6-26.7-18c-3.3-9,3.5-33.2,12.3-40.8
			c8.9-7.8,35-6,35-6S845.4,561.7617,843.6,599.8616z"/>
		<path class="st2" d="M796.9,583.2617c-0.4,0.6-6.9,11.7-5.5,23.3"/>
		<path class="st2" d="M786.7,594.2617c1.7-6.1,4.6-16.8,19.1-21.9c2.4-0.8,10.4-2.2,13.7,0.7c3.2,2.7,3,8.3-3.4,14.6
			c-8.3,8.2-19.4,11.2-19.4,11.2s-3.9,13.4,12.6,14.3"/>
		
			<ellipse transform="matrix(0.3117 -0.9502 0.9502 0.3117 7.4993 1199.3159)" class="st3" cx="831.5569" cy="594.4817" rx="3.9002" ry="2.4001"/>
		
			<ellipse transform="matrix(0.3117 -0.9502 0.9502 0.3117 -16.4967 1182.0286)" class="st3" cx="807.6266" cy="602.4009" rx="3.9002" ry="2.4001"/>
		<line class="st2" x1="827.9" y1="573.8616" x2="820" y2="600.8616"/>
		<path class="st2" d="M828.1,589.2617l-6.4,7.2c0,0,3.2,3.1,3.7,3.3"/>
		<path class="st2" d="M816.4,602.3616c-2.7,0.9-3.8-1.5-2.8-8.4 M808.1,622.6616c4.9-9.4,8.7-19.3,10.7-29.9"/>
	</g>
</g>
<g>
	<path d="M1038.4,685.2617c0,0-77.8-61.1-83.5-105.7c-5.5-43.7,36.6-129.1,68.7-146.2c22.8-12.2,66.4-11.9,121.0001,16.6
		c45,23.5,68.6,137.5,36.6,176.7C1089.7,738.6616,1038.4,685.2617,1038.4,685.2617z"/>
	<circle class="st1" cx="1075.2" cy="560.0616" r="101.5"/>
	<g>
		<path class="st2" d="M1136.6,599.8616c-0.6,13.3-25.3,31.5-38.3,28.2c-15.7-4-24.3-11.6-26.7-18c-3.3-9,3.5-33.2,12.3-40.8
			c8.9-7.8,35-6,35-6S1138.4,561.7617,1136.6,599.8616z"/>
		<path class="st2" d="M1090,583.2617c-0.4,0.6-6.9,11.7-5.5,23.3"/>
		<path class="st2" d="M1079.8,594.2617c1.7-6.1,4.6-16.8,19.1-21.9c2.4-0.8,10.4-2.2,13.7,0.7c3.2,2.7,3,8.3-3.4,14.6
			c-8.3,8.2-19.4,11.2-19.4,11.2s-3.9,13.4,12.6,14.3"/>
		
			<ellipse transform="matrix(0.3117 -0.9502 0.9502 0.3117 209.2886 1477.7244)" class="st3" cx="1124.6182" cy="594.4044" rx="3.9002" ry="2.4001"/>
		
			<ellipse transform="matrix(0.3117 -0.9502 0.9502 0.3117 185.1812 1460.4727)" class="st3" cx="1100.6567" cy="602.4182" rx="3.9002" ry="2.4001"/>
		<line class="st2" x1="1121" y1="573.8616" x2="1113" y2="600.8616"/>
		<path class="st2" d="M1121.1,589.2617l-6.4,7.2c0,0,3.2,3.1,3.7,3.3"/>
		<path class="st2" d="M1109.5,602.3616c-2.7,0.9-3.8-1.5-2.8-8.4 M1101.1,622.6616c4.9-9.4,8.7-19.3,10.7-29.9"/>
	</g>
</g>
</svg>
