<?xml version="1.0" encoding="utf-8"?>
<!-- Generator: Adobe Illustrator 28.0.0, SVG Export Plug-In . SVG Version: 6.00 Build 0)  -->
<svg version="1.1" id="Layer_1" xmlns="http://www.w3.org/2000/svg" xmlns:xlink="http://www.w3.org/1999/xlink" x="0px" y="0px"
	 viewBox="0 0 1320 387.1831" style="enable-background:new 0 0 1320 387.1831;" xml:space="preserve">
<style type="text/css">
	.st0{fill:#FFFFFF;stroke:#000000;stroke-miterlimit:10;}
	.st1{fill:#FFFFFF;}
	.st2{fill:none;stroke:#000000;stroke-miterlimit:10;}
</style>
<rect x="17.4595" y="36" class="st0" width="1224" height="324"/>
<g>
	<g>
		<path d="M343.1232,133.9262c31.9915,39.1312,8.3793,153.1734-36.6001,176.6792c-54.578,28.5218-98.1471,28.7645-120.9725,16.592
			c-32.0395-17.0863-74.1989-102.5398-68.6861-146.2214c5.6228-44.5531,83.4621-105.6667,83.4621-105.6667
			S251.6161,21.9971,343.1232,133.9262z"/>
		<circle class="st1" cx="237.1919" cy="211.55" r="82.9945"/>
		<circle class="st0" cx="203.9844" cy="311.9837" r="4.5071"/>
	</g>
	<g>
		<circle class="st1" cx="237.1027" cy="94.7773" r="17.1496"/>
		<line class="st2" x1="225.4255" y1="94.7773" x2="248.8078" y2="94.7773"/>
		<line class="st2" x1="237.1654" y1="83.3665" x2="237.2536" y2="105.69"/>
	</g>
</g>
<g>
	<g>
		<path d="M608.2145,133.9262c31.9915,39.1312,8.3793,153.1734-36.6001,176.6792c-54.5779,28.5218-98.1472,28.7645-120.9725,16.592
			c-32.0395-17.0863-74.1989-102.5398-68.6861-146.2214c5.6228-44.5531,83.4621-105.6667,83.4621-105.6667
			S516.7075,21.9971,608.2145,133.9262z"/>
		<circle class="st1" cx="502.2833" cy="211.55" r="82.9945"/>
		<circle class="st0" cx="469.0757" cy="311.9837" r="4.5071"/>
	</g>
	<g>
		<circle class="st1" cx="502.1941" cy="94.7773" r="17.1496"/>
		<line class="st2" x1="490.5169" y1="94.7773" x2="513.8992" y2="94.7773"/>
		<line class="st2" x1="502.2568" y1="83.3665" x2="502.345" y2="105.69"/>
	</g>
</g>
<g>
	<g>
		<path d="M873.3059,133.9262c31.9915,39.1312,8.3793,153.1734-36.6002,176.6792c-54.5779,28.5218-98.1471,28.7645-120.9725,16.592
			c-32.0396-17.0863-74.1989-102.5398-68.6861-146.2214c5.6228-44.5531,83.4621-105.6667,83.4621-105.6667
			S781.7988,21.9971,873.3059,133.9262z"/>
		<circle class="st1" cx="767.3746" cy="211.55" r="82.9945"/>
		<circle class="st0" cx="734.1671" cy="311.9837" r="4.5071"/>
	</g>
	<g>
		<circle class="st1" cx="767.2854" cy="94.7773" r="17.1496"/>
		<line class="st2" x1="755.6082" y1="94.7773" x2="778.9905" y2="94.7773"/>
		<line class="st2" x1="767.3481" y1="83.3665" x2="767.4363" y2="105.69"/>
	</g>
</g>
<g>
	<g>
		<path d="M1138.3972,133.9262c31.9915,39.1312,8.3794,153.1734-36.6001,176.6792c-54.5779,28.5218-98.1471,28.7645-120.9725,16.592
			c-32.0395-17.0863-74.1989-102.5398-68.686-146.2214c5.6228-44.5531,83.4621-105.6667,83.4621-105.6667
			S1046.8903,21.9971,1138.3972,133.9262z"/>
		<circle class="st1" cx="1032.4661" cy="211.55" r="82.9945"/>
		<circle class="st0" cx="999.2584" cy="311.9837" r="4.5071"/>
	</g>
	<g>
		<circle class="st1" cx="1032.3767" cy="94.7773" r="17.1496"/>
		<line class="st2" x1="1020.6996" y1="94.7773" x2="1044.0819" y2="94.7773"/>
		<line class="st2" x1="1032.4395" y1="83.3665" x2="1032.5277" y2="105.69"/>
	</g>
</g>
</svg>
