<?xml version="1.0" encoding="utf-8"?>
<!-- Generator: Adobe Illustrator 28.0.0, SVG Export Plug-In . SVG Version: 6.00 Build 0)  -->
<svg version="1.1" id="Layer_3" xmlns="http://www.w3.org/2000/svg" xmlns:xlink="http://www.w3.org/1999/xlink" x="0px" y="0px"
	 viewBox="0 0 1920 1080" style="enable-background:new 0 0 1920 1080;" xml:space="preserve">
<style type="text/css">
	.st0{fill:#FFFFFF;}
	.st1{fill:none;stroke:#231F20;stroke-miterlimit:10;}
</style>
<path d="M935.504,415.4922c-2.1686,47.0145-89.4609,111.3574-135.2504,99.671c-55.5607-14.1803-85.9042-41.1104-94.1508-63.7421
	c-11.5757-31.7677,12.3574-117.2065,43.3458-144.0482c31.6067-27.3772,123.5578-21.3146,123.5578-21.3146
	S941.707,281.0141,935.504,415.4922z"/>
<circle class="st0" cx="819.5178" cy="401.0216" r="87.308"/>
<path class="st1" d="M868.9997,436.246c-0.614,13.3123-25.3311,31.5312-38.2965,28.2221
	c-15.7322-4.0152-24.324-11.6405-26.6591-18.0488c-3.2777-8.9951,3.499-33.1874,12.2735-40.7877
	c8.9495-7.7519,34.9858-6.0353,34.9858-6.0353S870.7561,398.1681,868.9997,436.246z"/>
<path class="st1" d="M943.4274,159.8248c-2.1686,47.0145-89.461,111.3574-135.2504,99.671
	c-55.5608-14.1803-85.9042-41.1103-94.1509-63.7421C702.4505,163.986,726.3836,78.5471,757.372,51.7055
	c31.6067-27.3772,123.5578-21.3146,123.5578-21.3146S949.6304,25.3467,943.4274,159.8248z"/>
<path class="st1" d="M822.3453,419.7001c-0.4485,0.5741-6.8693,11.6554-5.4509,23.3107"/>
<path class="st1" d="M812.1258,430.6163c1.7135-6.1014,4.5645-16.7939,19.1381-21.9131c2.414-0.848,10.3674-2.1693,13.7162,0.6939
	c3.188,2.7257,2.9536,8.3409-3.4071,14.6362c-8.3318,8.246-19.4137,11.2362-19.4137,11.2362s-3.9128,13.3636,12.5576,14.3377"/>
<ellipse transform="matrix(0.3117 -0.9502 0.9502 0.3117 180.3614 1110.7894)" class="st1" cx="856.91" cy="430.8991" rx="3.9308" ry="2.3684"/>
<ellipse transform="matrix(0.3117 -0.9502 0.9502 0.3117 156.2803 1093.5032)" class="st1" cx="832.9376" cy="438.8781" rx="3.9308" ry="2.3684"/>
<line class="st1" x1="853.3181" y1="410.2032" x2="845.399" y2="437.2161"/>
<path class="st1" d="M853.4902,425.6639l-6.4108,7.1626c0,0,3.1936,3.0515,3.7024,3.2587"/>
<path class="st1" d="M839.0184,430.36c-1.0048,6.8904,0.1434,9.2394,2.813,8.3791"/>
<path class="st1" d="M844.1824,429.1219c-2.0057,10.6226-5.8229,20.4989-10.7309,29.9261"/>
<circle class="st1" cx="827.4412" cy="145.3542" r="87.308"/>
<path d="M1029.1438,415.4922c2.1686,47.0145,89.4611,111.3574,135.2504,99.671c55.5608-14.1803,85.9042-41.1104,94.1509-63.7421
	c11.5757-31.7677-12.3574-117.2065-43.3458-144.0482c-31.6067-27.3772-123.5579-21.3146-123.5579-21.3146
	S1022.9408,281.0141,1029.1438,415.4922z"/>
<circle class="st0" cx="1145.13" cy="401.0216" r="87.308"/>
<path class="st1" d="M1186.6886,436.246c-0.614,13.3123-25.3312,31.5312-38.2965,28.2221
	c-15.7323-4.0152-24.3241-11.6405-26.6592-18.0488c-3.2777-8.9951,3.499-33.1874,12.2736-40.7877
	c8.9495-7.7519,34.9857-6.0353,34.9857-6.0353S1188.4449,398.1681,1186.6886,436.246z"/>
<path class="st1" d="M1021.2205,159.8248c2.1686,47.0145,89.4609,111.3574,135.2504,99.671
	c55.5608-14.1803,85.9042-41.1103,94.1509-63.7421c11.5757-31.7677-12.3574-117.2066-43.3458-144.0482
	c-31.6067-27.3772-123.5579-21.3146-123.5579-21.3146S1015.0175,25.3467,1021.2205,159.8248z"/>
<path class="st1" d="M1140.0342,419.7001c-0.4484,0.5741-6.8693,11.6554-5.4508,23.3107"/>
<path class="st1" d="M1129.8147,430.6163c1.7135-6.1014,4.5645-16.7939,19.1381-21.9131c2.4139-0.848,10.3674-2.1693,13.7162,0.6939
	c3.188,2.7257,2.9536,8.3409-3.4071,14.6362c-8.3318,8.246-19.4137,11.2362-19.4137,11.2362s-3.9128,13.3636,12.5576,14.3377"/>
<ellipse transform="matrix(0.3117 -0.9502 0.9502 0.3117 399.0187 1412.6486)" class="st1" cx="1174.5989" cy="430.8991" rx="3.9308" ry="2.3684"/>
<ellipse transform="matrix(0.3117 -0.9502 0.9502 0.3117 374.9376 1395.3623)" class="st1" cx="1150.6265" cy="438.8781" rx="3.9308" ry="2.3684"/>
<line class="st1" x1="1171.007" y1="410.2032" x2="1163.0879" y2="437.2161"/>
<path class="st1" d="M1171.1791,425.6639l-6.4108,7.1626c0,0,3.1936,3.0515,3.7024,3.2587"/>
<path class="st1" d="M1156.7073,430.36c-1.0048,6.8904,0.1434,9.2394,2.813,8.3791"/>
<path class="st1" d="M1161.8712,429.1219c-2.0056,10.6226-5.8229,20.4989-10.7308,29.9261"/>
<circle class="st1" cx="1137.2067" cy="145.3542" r="87.308"/>
</svg>
