<?xml version="1.0" encoding="utf-8"?>
<!-- Generator: Adobe Illustrator 28.0.0, SVG Export Plug-In . SVG Version: 6.00 Build 0)  -->
<svg version="1.1" id="Layer_1" xmlns="http://www.w3.org/2000/svg" xmlns:xlink="http://www.w3.org/1999/xlink" x="0px" y="0px"
	 viewBox="0 0 1320 370.5033" style="enable-background:new 0 0 1320 370.5033;" xml:space="preserve">
<style type="text/css">
	.st0{fill:#FFFFFF;stroke:#000000;stroke-miterlimit:10;}
	.st1{fill:#FFFFFF;}
	.st2{fill:none;stroke:#231F20;stroke-miterlimit:10;}
	.st3{fill:none;stroke:#231F20;stroke-width:1;stroke-miterlimit:10.0002;}
</style>
<text transform="matrix(1 0 0 1 304.0054 -662.373)" style="font-family:'MyriadPro-Regular'; font-size:12px;">X</text>
<rect x="17.4595" y="20.7637" class="st0" width="1224" height="324"/>
<path d="M200.3266,306.9081c0,0-77.8393-61.1136-83.4621-105.6667c-5.5128-43.6816,36.6466-129.1351,68.6861-146.2214
	c22.8254-12.1725,66.3945-11.9298,120.9725,16.592c44.9794,23.5058,68.5916,137.548,36.6001,176.6792
	C251.6161,360.2204,200.3266,306.9081,200.3266,306.9081z"/>
<circle class="st1" cx="237.1919" cy="181.6674" r="101.5211"/>
<path d="M465.4179,306.9081c0,0-77.8393-61.1136-83.4621-105.6667C376.443,157.5598,418.6024,72.1063,450.6419,55.02
	c22.8253-12.1725,66.3946-11.9298,120.9725,16.592c44.9794,23.5058,68.5916,137.548,36.6001,176.6792
	C516.7075,360.2204,465.4179,306.9081,465.4179,306.9081z"/>
<path d="M730.5092,306.9081c0,0-77.8393-61.1136-83.4621-105.6667c-5.5128-43.6816,36.6465-129.1351,68.6861-146.2214
	c22.8254-12.1725,66.3947-11.9298,120.9725,16.592c44.9795,23.5058,68.5917,137.548,36.6002,176.6792
	C781.7988,360.2204,730.5092,306.9081,730.5092,306.9081z"/>
<path d="M995.6007,306.9081c0,0-77.8393-61.1136-83.4621-105.6667c-5.5129-43.6816,36.6465-129.1351,68.686-146.2214
	c22.8254-12.1725,66.3947-11.9298,120.9725,16.592c44.9795,23.5058,68.5916,137.548,36.6001,176.6792
	C1046.8903,360.2204,995.6007,306.9081,995.6007,306.9081z"/>
<g>
	<path class="st2" d="M298.6004,221.4646c-0.614,13.3123-25.3311,31.5312-38.2965,28.2221
		c-15.7322-4.0152-24.3241-11.6405-26.6591-18.0488c-3.2777-8.9951,3.499-33.1874,12.2735-40.7877
		c8.9496-7.752,34.9858-6.0353,34.9858-6.0353S300.3568,183.3867,298.6004,221.4646z"/>
	<path class="st2" d="M251.946,204.9187c-0.4485,0.5741-6.8693,11.6554-5.4508,23.3107"/>
	<path class="st2" d="M241.7264,215.8349c1.7135-6.1014,4.5645-16.7939,19.1381-21.9131c2.414-0.848,10.3674-2.1693,13.7162,0.6938
		c3.188,2.7257,2.9536,8.3409-3.4071,14.6362c-8.3318,8.246-19.4137,11.2362-19.4137,11.2362s-3.9128,13.3635,12.5576,14.3377"/>
	
		<ellipse transform="matrix(0.3117 -0.9502 0.9502 0.3117 -8.1002 420.9889)" class="st3" cx="286.5302" cy="216.0855" rx="3.9309" ry="2.3685"/>
	
		<ellipse transform="matrix(0.3117 -0.9502 0.9502 0.3117 -32.182 403.7037)" class="st3" cx="262.5585" cy="224.0649" rx="3.9309" ry="2.3685"/>
	<line class="st2" x1="282.9187" y1="195.4219" x2="274.9997" y2="222.4347"/>
	<path class="st2" d="M283.0909,210.8826l-6.4108,7.1625c0,0,3.1936,3.0515,3.7024,3.2587"/>
	<path class="st2" d="M271.432,223.9577c-2.6696,0.8604-3.8178-1.4886-2.813-8.3791 M263.0521,244.2666
		c4.9079-9.4271,8.7252-19.3035,10.7309-29.926"/>
</g>
<circle class="st1" cx="502.2833" cy="181.6674" r="101.5211"/>
<g>
	<path class="st2" d="M563.6918,221.4646c-0.614,13.3123-25.3311,31.5312-38.2965,28.2221
		c-15.7322-4.0152-24.3241-11.6405-26.6591-18.0488c-3.2777-8.9951,3.499-33.1874,12.2735-40.7877
		c8.9496-7.752,34.9858-6.0353,34.9858-6.0353S565.4482,183.3867,563.6918,221.4646z"/>
	<path class="st2" d="M517.0374,204.9187c-0.4485,0.5741-6.8693,11.6554-5.4508,23.3107"/>
	<path class="st2" d="M506.8178,215.8349c1.7135-6.1014,4.5645-16.7939,19.1381-21.9131c2.414-0.848,10.3674-2.1693,13.7162,0.6938
		c3.188,2.7257,2.9536,8.3409-3.4071,14.6362c-8.3318,8.246-19.4137,11.2362-19.4137,11.2362s-3.9128,13.3635,12.5576,14.3377"/>
	
		<ellipse transform="matrix(0.3117 -0.9502 0.9502 0.3117 174.3637 672.8741)" class="st3" cx="551.6216" cy="216.0855" rx="3.9309" ry="2.3685"/>
	
		<ellipse transform="matrix(0.3117 -0.9502 0.9502 0.3117 150.2819 655.5889)" class="st3" cx="527.65" cy="224.0649" rx="3.9309" ry="2.3685"/>
	<line class="st2" x1="548.0101" y1="195.4219" x2="540.0911" y2="222.4347"/>
	<path class="st2" d="M548.1823,210.8826l-6.4108,7.1625c0,0,3.1936,3.0515,3.7024,3.2587"/>
	<path class="st2" d="M536.5234,223.9577c-2.6696,0.8604-3.8178-1.4886-2.813-8.3791 M528.1436,244.2666
		c4.9079-9.4271,8.7252-19.3035,10.7309-29.926"/>
</g>
<circle class="st1" cx="767.3747" cy="181.6674" r="101.5211"/>
<g>
	<path class="st2" d="M828.7832,221.4646c-0.614,13.3123-25.3311,31.5312-38.2965,28.2221
		c-15.7322-4.0152-24.3241-11.6405-26.6591-18.0488c-3.2776-8.9951,3.499-33.1874,12.2735-40.7877
		c8.9496-7.752,34.9858-6.0353,34.9858-6.0353S830.5396,183.3867,828.7832,221.4646z"/>
	<path class="st2" d="M782.1288,204.9187c-0.4485,0.5741-6.8693,11.6554-5.4508,23.3107"/>
	<path class="st2" d="M771.9092,215.8349c1.7135-6.1014,4.5645-16.7939,19.1381-21.9131c2.414-0.848,10.3674-2.1693,13.7162,0.6938
		c3.188,2.7257,2.9536,8.3409-3.4071,14.6362c-8.3318,8.246-19.4137,11.2362-19.4137,11.2362s-3.9128,13.3635,12.5576,14.3377"/>
	
		<ellipse transform="matrix(0.3117 -0.9502 0.9502 0.3117 356.8276 924.7593)" class="st3" cx="816.713" cy="216.0855" rx="3.9309" ry="2.3685"/>
	
		<ellipse transform="matrix(0.3117 -0.9502 0.9502 0.3117 332.7459 907.4741)" class="st3" cx="792.7413" cy="224.0649" rx="3.9309" ry="2.3685"/>
	<line class="st2" x1="813.1015" y1="195.4219" x2="805.1826" y2="222.4347"/>
	<path class="st2" d="M813.2737,210.8826l-6.4108,7.1625c0,0,3.1936,3.0515,3.7024,3.2587"/>
	<path class="st2" d="M801.6148,223.9577c-2.6696,0.8604-3.8178-1.4886-2.813-8.3791 M793.2349,244.2666
		c4.9079-9.4271,8.7252-19.3035,10.7309-29.926"/>
</g>
<circle class="st1" cx="1032.4661" cy="181.6674" r="101.5211"/>
<g>
	<path class="st2" d="M1093.8746,221.4646c-0.614,13.3123-25.3311,31.5312-38.2965,28.2221
		c-15.7322-4.0152-24.3241-11.6405-26.6592-18.0488c-3.2776-8.9951,3.499-33.1874,12.2736-40.7877
		c8.9496-7.752,34.9858-6.0353,34.9858-6.0353S1095.631,183.3867,1093.8746,221.4646z"/>
	<path class="st2" d="M1047.2202,204.9187c-0.4485,0.5741-6.8693,11.6554-5.4508,23.3107"/>
	<path class="st2" d="M1037.0006,215.8349c1.7135-6.1014,4.5645-16.7939,19.1381-21.9131
		c2.4141-0.848,10.3674-2.1693,13.7162,0.6938c3.188,2.7257,2.9536,8.3409-3.4071,14.6362
		c-8.3318,8.246-19.4137,11.2362-19.4137,11.2362s-3.9127,13.3635,12.5576,14.3377"/>
	
		<ellipse transform="matrix(0.3117 -0.9502 0.9502 0.3117 539.2916 1176.6445)" class="st3" cx="1081.8044" cy="216.0855" rx="3.9309" ry="2.3685"/>
	
		<ellipse transform="matrix(0.3117 -0.9502 0.9502 0.3117 515.2098 1159.3593)" class="st3" cx="1057.8328" cy="224.0649" rx="3.9309" ry="2.3685"/>
	<line class="st2" x1="1078.1929" y1="195.4219" x2="1070.2739" y2="222.4347"/>
	<path class="st2" d="M1078.3651,210.8826l-6.4108,7.1625c0,0,3.1936,3.0515,3.7024,3.2587"/>
	<path class="st2" d="M1066.7062,223.9577c-2.6696,0.8604-3.8177-1.4886-2.813-8.3791 M1058.3263,244.2666
		c4.908-9.4271,8.7252-19.3035,10.731-29.926"/>
</g>
</svg>
