<?xml version="1.0" encoding="utf-8"?>
<!-- Generator: Adobe Illustrator 28.0.0, SVG Export Plug-In . SVG Version: 6.00 Build 0)  -->
<svg version="1.1" id="Layer_1" xmlns="http://www.w3.org/2000/svg" xmlns:xlink="http://www.w3.org/1999/xlink" x="0px" y="0px"
	 viewBox="0 0 1320 391.9008" style="enable-background:new 0 0 1320 391.9008;" xml:space="preserve">
<style type="text/css">
	.st0{fill:#FFFFFF;stroke:#000000;stroke-miterlimit:10;}
	.st1{fill:#FFFFFF;}
	.st2{fill:none;stroke:#000000;stroke-miterlimit:10;}
</style>
<rect x="17.4595" y="38.1023" class="st0" width="1224" height="324"/>
<path d="M131.1269,136.0285c-31.9915,39.1312-8.3793,153.1734,36.6001,176.6792c54.5779,28.5218,98.1471,28.7645,120.9725,16.592
	c32.0395-17.0863,74.1989-102.5398,68.6861-146.2214c-5.6228-44.5531-83.4621-105.6667-83.4621-105.6667
	S222.634,24.0994,131.1269,136.0285z"/>
<circle class="st0" cx="270.2657" cy="314.086" r="4.5071"/>
<g>
	<circle class="st1" cx="237.1474" cy="96.8796" r="9.5244"/>
	<line class="st2" x1="243.6326" y1="96.8796" x2="230.6467" y2="96.8796"/>
	<line class="st2" x1="237.1126" y1="90.5424" x2="237.0636" y2="102.9402"/>
</g>
<path d="M396.2183,136.0285c-31.9915,39.1312-8.3793,153.1734,36.6001,176.6792c54.578,28.5218,98.1472,28.7645,120.9725,16.592
	c32.0395-17.0863,74.1989-102.5398,68.6861-146.2214c-5.6228-44.5531-83.4622-105.6667-83.4622-105.6667
	S487.7253,24.0994,396.2183,136.0285z"/>
<circle class="st0" cx="535.3571" cy="314.086" r="4.5071"/>
<g>
	<circle class="st1" cx="502.2387" cy="96.8796" r="9.5244"/>
	<line class="st2" x1="508.7239" y1="96.8796" x2="495.738" y2="96.8796"/>
	<line class="st2" x1="502.2039" y1="90.5424" x2="502.1549" y2="102.9402"/>
</g>
<path d="M661.3096,136.0285c-31.9915,39.1312-8.3793,153.1734,36.6001,176.6792c54.5779,28.5218,98.1471,28.7645,120.9725,16.592
	c32.0395-17.0863,74.1989-102.5398,68.6861-146.2214c-5.6228-44.5531-83.4622-105.6667-83.4622-105.6667
	S752.8167,24.0994,661.3096,136.0285z"/>
<circle class="st0" cx="800.4484" cy="314.086" r="4.5071"/>
<g>
	<circle class="st1" cx="767.3301" cy="96.8796" r="9.5244"/>
	<line class="st2" x1="773.8153" y1="96.8796" x2="760.8294" y2="96.8796"/>
	<line class="st2" x1="767.2953" y1="90.5424" x2="767.2463" y2="102.9402"/>
</g>
<path d="M926.401,136.0285c-31.9915,39.1312-8.3793,153.1734,36.6001,176.6792c54.5779,28.5218,98.1471,28.7645,120.9725,16.592
	c32.0396-17.0863,74.1989-102.5398,68.686-146.2214c-5.6228-44.5531-83.462-105.6667-83.462-105.6667
	S1017.908,24.0994,926.401,136.0285z"/>
<circle class="st0" cx="1065.5398" cy="314.086" r="4.5071"/>
<g>
	<circle class="st1" cx="1032.4215" cy="96.8796" r="9.5244"/>
	<line class="st2" x1="1038.9066" y1="96.8796" x2="1025.9208" y2="96.8796"/>
	<line class="st2" x1="1032.3866" y1="90.5424" x2="1032.3376" y2="102.9402"/>
</g>
</svg>
