<?xml version="1.0" encoding="utf-8"?>
<!-- Generator: Adobe Illustrator 28.0.0, SVG Export Plug-In . SVG Version: 6.00 Build 0)  -->
<svg version="1.1" id="Layer_3" xmlns="http://www.w3.org/2000/svg" xmlns:xlink="http://www.w3.org/1999/xlink" x="0px" y="0px"
	 viewBox="0 0 1920 1080" style="enable-background:new 0 0 1920 1080;" xml:space="preserve">
<style type="text/css">
	.st0{fill:#FFFFFF;}
	.st1{fill:none;stroke:#231F20;stroke-miterlimit:10;}
</style>
<path d="M981.1785,415.4922c2.1686,47.0145,89.4609,111.3574,135.2504,99.671c55.5607-14.1803,85.9042-41.1104,94.1509-63.7421
	c11.5757-31.7677-12.3574-117.2065-43.3458-144.0482c-31.6068-27.3772-123.5579-21.3146-123.5579-21.3146
	S974.9755,281.0141,981.1785,415.4922z"/>
<circle class="st0" cx="1097.1647" cy="401.0216" r="87.308"/>
<path d="M935.504,415.4922c-2.1686,47.0145-89.4609,111.3574-135.2504,99.671c-55.5607-14.1803-85.9042-41.1104-94.1508-63.7421
	c-11.5757-31.7677,12.3574-117.2065,43.3458-144.0482c31.6067-27.3772,123.5578-21.3146,123.5578-21.3146
	S941.707,281.0141,935.504,415.4922z"/>
<circle class="st0" cx="819.5178" cy="401.0216" r="87.308"/>
<path class="st1" d="M868.9997,436.246c-0.614,13.3123-25.3311,31.5312-38.2965,28.2221
	c-15.7322-4.0152-24.324-11.6405-26.6591-18.0488c-3.2777-8.9951,3.499-33.1874,12.2735-40.7877
	c8.9495-7.7519,34.9858-6.0353,34.9858-6.0353S870.7561,398.1681,868.9997,436.246z"/>
<path class="st1" d="M943.4274,159.8248c-2.1686,47.0145-89.461,111.3574-135.2504,99.671
	c-55.5608-14.1803-85.9042-41.1103-94.1509-63.7421C702.4505,163.986,726.3836,78.5471,757.372,51.7055
	c31.6067-27.3772,123.5578-21.3146,123.5578-21.3146S949.6304,25.3467,943.4274,159.8248z"/>
<path class="st1" d="M822.3453,419.7001c-0.4485,0.5741-6.8693,11.6554-5.4509,23.3107"/>
<path class="st1" d="M812.1258,430.6163c1.7135-6.1014,4.5645-16.7939,19.1381-21.9131c2.414-0.848,10.3674-2.1693,13.7162,0.6939
	c3.188,2.7257,2.9536,8.3409-3.4071,14.6362c-8.3318,8.246-19.4137,11.2362-19.4137,11.2362s-3.9128,13.3636,12.5576,14.3377"/>
<ellipse transform="matrix(0.3117 -0.9502 0.9502 0.3117 180.3614 1110.7894)" class="st1" cx="856.91" cy="430.8991" rx="3.9308" ry="2.3684"/>
<ellipse transform="matrix(0.3117 -0.9502 0.9502 0.3117 156.2803 1093.5032)" class="st1" cx="832.9376" cy="438.8781" rx="3.9308" ry="2.3684"/>
<line class="st1" x1="853.3181" y1="410.2032" x2="845.399" y2="437.2161"/>
<path class="st1" d="M853.4902,425.6639l-6.4108,7.1626c0,0,3.1936,3.0515,3.7024,3.2587"/>
<path class="st1" d="M839.0184,430.36c-1.0048,6.8904,0.1434,9.2394,2.813,8.3791"/>
<path class="st1" d="M844.1824,429.1219c-2.0057,10.6226-5.8229,20.4989-10.7309,29.9261"/>
<circle class="st1" cx="827.4412" cy="145.3542" r="87.308"/>
<g>
	<path d="M813.7967,166.7995c0.9546,0.0601,1.9918,0.2616,3.1105,0.6046c1.1191,0.343,2.2303,0.8578,3.3345,1.5437
		c1.0137,0.6271,1.8497,1.4175,2.5062,2.3723c0.6559,0.9555,1.1783,1.9547,1.5665,2.9988c0.2085,0.5075,0.2462,1.0514,0.112,1.6336
		c-0.1345,0.5816-0.4854,1.0223-1.0517,1.3203c-0.5078,0.2987-1.0226,0.3733-1.5444,0.2234
		c-0.5223-0.1487-0.9476-0.5215-1.2754-1.1188c-0.5673-1.0739-1.1492-1.9917-1.7456-2.7523
		c-0.5973-0.7606-1.358-1.3349-2.2825-1.7234c-0.9252-0.3873-2.1638-0.5215-3.7148-0.4025
		c-0.6869,0.0298-1.3804,0.2616-2.0813,0.6939c-0.7014,0.4328-1.3054,0.9622-1.8126,1.5887
		c-0.5075,0.6265-0.821,1.2979-0.9397,2.0142c-0.0601,0.2683-0.0526,0.5591,0.0222,0.8723
		c0.0743,0.3138,0.1714,0.6198,0.2911,0.9179c0.5069,1.1042,1.2153,2.036,2.1259,2.7973c0.91,0.7606,1.9168,1.4254,3.021,1.9917
		c0.8951,0.4474,1.7975,0.8723,2.7078,1.2754c0.91,0.4031,1.8126,0.828,2.7077,1.2754c1.85,0.9846,3.3345,2.2157,4.4534,3.6927
		c1.1191,1.4769,1.7231,3.3193,1.8126,5.5272c0.0595,1.3732-0.2683,2.6783-0.9846,3.9161c-0.716,1.2378-1.6636,2.2752-2.8419,3.1105
		c-1.1792,0.8353-2.4695,1.313-3.8715,1.4326c-2.0889,0.2082-4.0436,0.2161-5.8632,0.0225
		c-1.8203-0.1949-3.5358-0.828-5.1469-1.9025c-0.2986-0.1791-0.7385-0.5372-1.3203-1.0739
		c-0.5818-0.5372-1.1492-1.1783-1.7009-1.925c-0.5524-0.7455-0.9398-1.5437-1.1635-2.3942c-0.224-0.8505-0.142-1.6785,0.2462-2.484
		c0.3873-0.7163,0.8796-1.1558,1.477-1.3203c0.5964-0.1633,1.1482,0.0528,1.656,0.6489c0.4174,0.4778,0.8872,1.0296,1.4096,1.656
		c0.5217,0.6265,1.0071,1.1491,1.4548,1.5668c1.2229,1.1935,2.5803,1.9323,4.0727,2.2151c1.4918,0.2841,3.0283,0.366,4.6099,0.2465
		c0.686-0.0595,1.2532-0.3357,1.7006-0.828c0.4478-0.4923,0.7164-1.0666,0.8059-1.7234c0.2382-1.2232,0.0965-2.3116-0.4252-3.2671
		c-0.5224-0.9543-1.3358-1.7301-2.4391-2.3274c-1.4924-0.8651-2.9918-1.7228-4.4982-2.5733
		c-1.507-0.8505-2.9764-1.7525-4.4084-2.7081c-1.4324-0.9543-2.5366-2.2151-3.3121-3.7819
		c-0.7761-1.5662-1.2684-3.1846-1.4769-4.8558c-0.1497-1.4618,0.074-2.7372,0.6714-3.8268
		c0.5964-1.0891,1.4168-2.0512,2.4615-2.8865c0.9246-0.7461,1.9763-1.3355,3.1555-1.7683
		C810.5666,166.8821,812.0356,166.7103,813.7967,166.7995z M814.7813,201.8439h0.6714c1.7601-0.1196,3.3342-0.4771,4.7216-1.0739
		c1.3877-0.5973,2.484-1.7307,3.2896-3.4013c0.4477-0.9245,0.6638-1.962,0.6492-3.1105c-0.0155-1.1485-0.2541-2.2831-0.7163-3.4019
		c-0.4629-1.1188-1.1567-2.0955-2.081-2.9314c-1.5219-1.4023-3.2826-2.4762-5.2813-3.2222
		c-1.5519-0.5967-3.0064-1.3501-4.3638-2.2607c-1.3583-0.9094-2.5736-2.0063-3.6478-3.2896
		c-0.7761-0.9846-1.1567-2.0063-1.1413-3.0656c0.0146-1.0587,0.3503-2.0367,1.0071-2.9314
		c0.6559-0.8954,1.5215-1.5668,2.5957-2.0142c1.4324-0.5967,2.7002-0.8651,3.8044-0.8056c1.1036,0.0601,2.0513,0.306,2.8419,0.7382
		c0.7904,0.4334,1.4469,0.933,1.9693,1.4994c0.5217,0.5676,0.9023,1.0447,1.1415,1.4326c0.2383,0.3575,0.4623,0.7157,0.6711,1.0739
		c0.2085,0.3582,0.4477,0.7018,0.7163,1.0296c0.0895,0.1196,0.2462,0.2088,0.4698,0.2683c0.2237,0.0601,0.3952,0.0747,0.5148,0.0449
		c0.149-0.0898,0.2978-0.2307,0.4474-0.4255c0.149-0.1936,0.224-0.38,0.224-0.5591c0.0291-0.2082,0-0.4255-0.0895-0.6489
		c-0.0895-0.224-0.1646-0.4401-0.224-0.6489c-0.3579-1.4023-1.1118-2.566-2.2601-3.4911c-1.1492-0.9245-2.4916-1.6111-4.0281-2.0585
		c-1.537-0.448-3.0735-0.6271-4.6099-0.5372c-1.537,0.0892-2.8868,0.4778-4.0505,1.1637c-0.9552,0.567-1.7678,1.3276-2.4391,2.2825
		c-0.6714,0.9549-1.1191,1.999-1.3428,3.133c-0.2237,1.134-0.1421,2.2825,0.2462,3.4462c0.5372,1.6415,1.3798,2.9915,2.5287,4.0502
		c1.1485,1.0599,2.4094,2.0221,3.7819,2.8871c1.1337,0.7157,2.305,1.3804,3.5136,1.9917c1.2084,0.6119,2.4091,1.2457,3.6028,1.9019
		c1.2232,0.6568,2.0813,1.5146,2.5736,2.5733c0.4923,1.0599,0.7084,2.2607,0.6489,3.6028
		c-0.0601,0.9258-0.4183,1.7835-1.0742,2.5739c-0.6569,0.791-1.4475,1.2305-2.3721,1.3203c-2.1189,0.1791-4.1176,0-5.9973-0.5372
		c-1.8801-0.5372-3.5212-1.7155-4.9235-3.5355c-0.4179-0.5967-0.8951-1.1194-1.432-1.5668
		c-0.1196-0.1487-0.3132-0.2908-0.5818-0.4249c-0.2686-0.1348-0.5078-0.1718-0.716-0.1123
		c-0.1196,0.0898-0.2686,0.2543-0.4477,0.4923c-0.1791,0.2392-0.2686,0.5822-0.2686,1.0296c0,0.4778,0.0819,0.9179,0.2462,1.3203
		c0.1636,0.4031,0.3651,0.8134,0.6043,1.2311c0.8055,1.2529,1.7826,2.2151,2.9315,2.8865c1.1482,0.6714,2.3869,1.1558,3.7148,1.4545
		C812.1476,201.5155,813.468,201.7243,814.7813,201.8439z"/>
	<path d="M842.2612,176.6465c-0.1196,1.7307-0.4628,3.3114-1.0292,4.7441c-0.5673,1.432-1.2532,2.8046-2.0588,4.1176
		c-0.3287,0.5366-0.5372,0.9397-0.6265,1.208c-0.0895,0.2689-0.0303,0.4856,0.1788,0.6489c0.2085,0.1645,0.5967,0.411,1.1637,0.7388
		c1.6706,0.9555,2.8343,2.3723,3.4911,4.2518c0.149,0.4183,0.3132,0.8432,0.4923,1.2754c0.1791,0.4328,0.3873,0.8584,0.6265,1.276
		c0.4768,0.7461,0.9771,1.2238,1.4994,1.432c0.5218,0.2088,1.2007,0.2088,2.0364,0c0.5372-0.1493,1.014-0.1791,1.4323-0.0898
		c0.4174,0.0898,0.7609,0.4031,1.0292,0.9403c0.1791,0.3879,0.1044,0.8432-0.2237,1.3647c-0.3287,0.5221-0.7761,0.8729-1.3428,1.052
		c-0.9251,0.3582-1.8649,0.5518-2.8195,0.5815c-0.9554,0.0298-1.91-0.1785-2.8646-0.6265
		c-0.2984-0.1493-0.5746-0.2313-0.8281-0.2459c-0.2537-0.0158-0.5445,0.1408-0.8726,0.4699
		c-1.1937,1.3428-2.5366,2.2151-4.0281,2.6182c-1.4924,0.4031-3.0881,0.3648-4.789-0.1117
		c-1.4621-0.4183-2.6337-1.1267-3.5133-2.1259c-0.8805-1.0004-1.4254-2.2449-1.6335-3.7376
		c-0.2092-1.6706-0.038-3.2295,0.5148-4.6767c0.5515-1.4472,1.5586-2.6334,3.021-3.5585c1.8497-1.1334,3.2446-2.5508,4.1847-4.2518
		c0.94-1.7003,1.7076-3.5057,2.3049-5.4155c0.149-0.5069,0.1861-0.9695,0.112-1.3871c-0.075-0.4176-0.3211-0.7758-0.7385-1.0745
		c-0.4477-0.3278-0.9106-0.4698-1.3877-0.4249c-0.4775,0.0443-0.9103,0.2458-1.2979,0.604
		c-0.3882,0.3582-0.7314,0.754-1.0292,1.1862c-0.2986,0.4328-0.5974,0.8723-0.8951,1.3203
		c-0.2686,0.4474-0.5449,0.8578-0.828,1.2305c-0.2841,0.3733-0.754,0.4699-1.4099,0.2914c-0.5973-0.2088-0.9925-0.53-1.1862-0.9628
		c-0.1943-0.4322-0.2762-0.9318-0.2462-1.4994c0.0595-1.4017,0.6189-2.6996,1.6785-3.8936
		c1.0587-1.1929,2.3645-1.9984,3.9161-2.4167c1.4618-0.3873,2.8644-0.4176,4.2072-0.0898c1.3428,0.329,2.387,1.1042,3.133,2.3274
		c0.2686,0.3885,0.4547,0.8438,0.5594,1.3652C842.2983,175.6242,842.3207,176.139,842.2612,176.6465z M828.6105,195.2647
		c-0.0601,1.9401,0.4177,3.4535,1.4323,4.5432c1.0141,1.0884,2.6553,1.8272,4.9232,2.2151
		c1.4023,0.1791,2.5957-0.0376,3.5806-0.6489c0.9847-0.6119,1.8943-1.4842,2.7299-2.6182c0.3281-0.4474,0.6414-0.6939,0.94-0.7382
		c0.2978-0.0449,0.6714,0.1269,1.1188,0.5148c0.6863,0.5664,1.4617,0.9021,2.3274,1.0065c0.8651,0.1044,1.7301,0.037,2.5958-0.2009
		c0.2386-0.0601,0.4923-0.224,0.7609-0.4923c0.2686-0.2689,0.3582-0.5518,0.2686-0.8505c-0.0601-0.2386-0.2617-0.4255-0.6043-0.5597
		c-0.3433-0.1342-0.7685-0.1117-1.2754,0.0674c-0.8356,0.0892-1.537-0.0146-2.1038-0.3132
		c-0.567-0.2981-1.0292-0.8353-1.3874-1.6117c-0.2092-0.4171-0.3958-0.8499-0.5594-1.2979
		c-0.1642-0.4474-0.3512-0.8948-0.5594-1.3422c-0.4183-0.9549-0.9622-1.8127-1.6336-2.5739
		c-0.6714-0.7606-1.5295-1.3495-2.5736-1.7677c-0.7761-0.3278-1.1937-0.6411-1.2532-0.9397
		c-0.0601-0.2981,0.1044-0.8207,0.4923-1.5668c0.5967-1.2529,1.2007-2.5132,1.8127-3.7819
		c0.6113-1.2675,1.0811-2.5581,1.4099-3.8712c0.4177-1.6409,0.3281-3.0358-0.2686-4.185c-0.597-1.1479-1.8348-1.8272-3.7148-2.0367
		c-0.9552-0.0892-1.8949,0-2.8195,0.2689c-0.9251,0.2683-1.7756,0.7606-2.5511,1.477c-1.1938,1.1042-1.8652,2.4768-2.0142,4.1176
		c0,0.1791,0.037,0.4025,0.112,0.6714c0.0741,0.2683,0.2161,0.4328,0.4252,0.4923c0.2083,0.0601,0.4098,0,0.6041-0.1791
		c0.1939-0.1791,0.3505-0.3278,0.4702-0.4474c0.2683-0.4176,0.5068-0.8353,0.716-1.2536c0.2085-0.4176,0.4477-0.8201,0.716-1.208
		c0.5072-0.7758,1.1561-1.313,1.9471-1.6117c0.7901-0.2975,1.5286-0.2975,2.2155,0c0.7455,0.2987,1.2754,0.791,1.5886,1.4769
		c0.3136,0.6872,0.3506,1.537,0.112,2.5514c-0.4777,2.0889-1.2162,4.0278-2.2154,5.8179c-1.0001,1.7908-2.4391,3.2678-4.3192,4.4315
		c-1.3726,0.8353-2.2755,1.8345-2.7078,2.9982C828.9162,192.9822,828.67,194.1313,828.6105,195.2647z M841.0978,194.504
		c0,0.9251-0.2765,1.8205-0.828,2.6856c-0.5527,0.8657-1.2687,1.5662-2.1484,2.1034c-0.8805,0.5372-1.798,0.8201-2.7526,0.8505
		c-1.4321,0.0291-2.6036-0.4183-3.5133-1.3428c-0.9106-0.9245-1.3804-2.1332-1.4099-3.6253
		c-0.03-0.9245,0.1791-1.7902,0.6265-2.5957c0.4477-0.8056,1.0365-1.4545,1.768-1.9468c0.7309-0.4923,1.514-0.7084,2.3496-0.6496
		c1.0742,0.0607,2.0512,0.2319,2.9317,0.5148c0.8796,0.2841,1.5956,0.7388,2.1484,1.3652
		C840.8214,192.4899,841.0978,193.3707,841.0978,194.504z M831.4303,195.0413c-0.0301,1.0144,0.3281,1.9177,1.0742,2.7074
		c0.7455,0.791,1.5959,1.2007,2.5511,1.2311c0.865,0.0291,1.6785-0.1645,2.4391-0.5822c0.7609-0.4171,1.3875-0.9689,1.8798-1.656
		c0.4923-0.686,0.7385-1.4169,0.7385-2.1927c0.0294-0.5967-0.1788-1.171-0.6265-1.7234c-0.4474-0.5518-1.0071-1.0071-1.6785-1.3647
		c-0.6711-0.3582-1.3804-0.5372-2.1259-0.5372c-1.2238-0.0297-2.2376,0.343-3.0435,1.1188
		C831.8331,192.8189,831.4303,193.8181,831.4303,195.0413z"/>
	<path d="M859.6268,187.3433c-0.0301,1.5213-0.0155,3.0365,0.0449,4.5426c0.0592,1.5067,0.0592,3.0061,0,4.4982
		c-0.0301,0.9252-0.112,1.7605-0.2462,2.5059c-0.1345,0.7455-0.3658,1.5668-0.6938,2.4616
		c-0.0895,0.2689-0.3063,0.5822-0.649,0.9403c-0.3433,0.3582-0.716,0.6781-1.1191,0.9622
		c-0.4028,0.2829-0.7537,0.4395-1.0517,0.4699c-0.3578,0.0291-0.7761-0.105-1.2529-0.4031
		c-0.4778-0.2981-0.8359-0.6265-1.0742-0.9846c-0.2986-0.4177-0.5372-0.91-0.7163-1.477s-0.2683-1.1042-0.2683-1.6111
		c0.0291-2.7445,0.0817-5.5047,0.1566-8.2795c0.074-2.7754,0.1566-5.5648,0.2462-8.37c0.0592-1.5808,0.1266-3.1621,0.2012-4.7441
		c0.0741-1.5808,0.1566-3.1773,0.2462-4.789c0.0895-0.9543,0.1861-1.9165,0.2911-2.8865c0.1041-0.9695,0.2462-1.9316,0.4249-2.8871
		c0.119-0.7752,0.4401-1.327,0.9625-1.656c0.5217-0.3278,1.2903-0.462,2.3049-0.4025c0.7755,0.0298,1.3273,0.2458,1.6561,0.6489
		c0.3278,0.4031,0.5068,0.9622,0.5369,1.6785c0.0294,0.8353,0.037,1.6712,0.0225,2.5065c-0.0155,0.8353-0.0225,1.6712-0.0225,2.5059
		c0,1.4029,0.007,2.6631,0.0225,3.7819c0.0145,1.1194,0.0225,2.3432,0.0225,3.6702c0,1.3282,0,2.6334,0,3.9161
		C859.6718,185.2247,859.6562,186.3586,859.6268,187.3433z M858.284,175.796c-0.03-1.0745-0.0446-2.0215-0.0446-2.8422
		c0-0.8201,0-1.656,0-2.5065c0-0.8505,0-1.5886,0-2.2151c0-0.5075-0.105-0.9549-0.3132-1.3428
		c-0.2091-0.3873-0.5973-0.5221-1.1637-0.4031c-0.2686,0.0601-0.5524,0.2689-0.8505,0.6265
		c-0.2987,0.3582-0.4775,0.7018-0.5369,1.0296c-0.1791,0.6866-0.2841,1.395-0.3132,2.1259
		c-0.0301,0.7315-0.0604,1.4545-0.0895,2.1708c-0.1196,2.1787-0.2316,4.3489-0.3357,6.5124
		c-0.105,2.1635-0.2016,4.3343-0.2911,6.5118c-0.0895,2.3572-0.1718,4.715-0.2462,7.0715c-0.0746,2.3572-0.1417,4.715-0.2012,7.0715
		c0,0.3582,0.0671,0.723,0.2012,1.0963c0.1345,0.3727,0.2911,0.7236,0.4702,1.052c0.4174,0.5967,0.8727,0.8875,1.365,0.8729
		c0.4923-0.0158,0.8875-0.3515,1.1862-1.0071c0.4174-0.9252,0.7006-1.9177,0.8502-2.9764c0.149-1.0587,0.2386-2.0367,0.2686-2.9314
		c0.0295-0.8954,0.0446-1.5365,0.0446-1.925c0.149-3.133,0.1569-6.1312,0.0225-8.9959
		C858.1723,181.9272,858.1644,178.929,858.284,175.796z"/>
	<path d="M882.8107,196.7416c0.1791,1.2536-0.038,2.3869-0.649,3.4019c-0.6119,1.0138-1.4399,1.8418-2.484,2.4841
		c-1.0447,0.641-2.1414,1.0441-3.2896,1.208c-1.1492,0.1639-2.1708,0.0225-3.0659-0.4249c-0.6565-0.329-1.2608-0.7163-1.8126-1.1637
		c-0.5524-0.4474-0.8581-0.9998-0.9175-1.656c-0.1196-1.6111-0.2313-3.3187-0.3358-5.1247
		c-0.1047-1.8048-0.1417-3.5282-0.1117-5.169c0.0295-0.9549,0.0671-1.6409,0.1117-2.0591c0.0449-0.4176-0.0746-0.686-0.3578-0.8056
		c-0.2841-0.119-0.903-0.1791-1.8575-0.1791c-0.6265,0-1.2529,0-1.8798,0c-0.6265,0-1.2383-0.0146-1.8351-0.0449
		c-0.5369-0.0595-1.0068-0.2009-1.4095-0.4249c-0.4031-0.224-0.6344-0.6338-0.6939-1.2311
		c-0.0601-0.5961,0.0295-1.1109,0.2687-1.5437c0.2382-0.4322,0.5964-0.7084,1.0742-0.828c0.6265-0.1493,1.2979-0.1864,2.0139-0.1117
		c0.7163,0.0747,1.3875,0.0971,2.0142,0.0668c1.1033-0.0595,1.8797-0.1342,2.3271-0.224c0.4477-0.0892,0.7233-0.3576,0.8281-0.8056
		c0.1044-0.4474,0.1714-1.208,0.2015-2.2825c0.0294-1.1334,0.1936-2.2673,0.4923-3.4013c0.149-0.5967,0.4477-1.0138,0.8951-1.2529
		c0.4477-0.2386,0.9692-0.3284,1.5665-0.2689c0.6559,0.0898,1.1036,0.3211,1.3428,0.6939c0.2382,0.3733,0.3427,0.8578,0.3132,1.4545
		v3.6253c0,0.8954,0.1342,1.4848,0.4028,1.7677c0.2686,0.2841,0.8651,0.4255,1.7902,0.4255h3.9385
		c0.5967,0,1.0891,0.1269,1.477,0.38c0.3876,0.2544,0.5967,0.6939,0.6268,1.3203c0.0595,0.6872-0.0826,1.2687-0.4252,1.7459
		c-0.3433,0.4778-0.8435,0.7461-1.4995,0.8056c-0.8055,0.0298-1.6041,0.0376-2.3945,0.0225
		c-0.791-0.0146-1.5741-0.0516-2.3496-0.1123c-0.6268-0.0589-1.0897,0.0079-1.3874,0.2015
		c-0.2987,0.1943-0.4632,0.6344-0.4923,1.3203c-0.0601,1.4029-0.1946,2.8131-0.4028,4.2293
		c-0.2092,1.4181-0.1196,2.8276,0.2683,4.2299c0.119,0.3879,0.261,0.754,0.4252,1.0963c0.1636,0.3436,0.5148,0.5148,1.0517,0.5148
		c0.5072,0,0.8875-0.1487,1.1415-0.4474c0.2532-0.2981,0.4398-0.6562,0.5594-1.0745c0.0595-0.2386,0.1266-0.4765,0.2013-0.7157
		c0.0743-0.2386,0.1714-0.4626,0.2911-0.6714c0.5964-0.9846,1.402-1.313,2.4166-0.9846
		C882.1538,195.0267,882.691,195.6975,882.8107,196.7416z M871.3083,190.4763c0.0591,1.2827,0.1117,2.4094,0.1566,3.3788
		c0.0446,0.9701,0.0965,1.962,0.1566,2.9764c0.0594,1.0144,0.1187,1.8794,0.1791,2.5957c0.1487,1.3719,0.8651,2.3274,2.1483,2.8647
		c1.1635,0.4765,2.3196,0.5816,3.4684,0.3132c1.1486-0.2689,2.1407-0.828,2.9764-1.6785c0.835-0.8505,1.3428-1.8873,1.5219-3.1105
		c0.0895-0.5967,0.0446-1.0812-0.1345-1.4545c-0.1791-0.3727-0.567-0.6192-1.1637-0.7388
		c-0.6265-0.1487-0.9998-0.0225-1.1188,0.3806c-0.1196,0.4025-0.2092,0.8134-0.2686,1.2305
		c-0.3879,1.6712-1.2833,2.5363-2.6853,2.5964c-0.6568,0-1.2014-0.224-1.6335-0.6714c-0.4329-0.448-0.679-1.1036-0.7385-1.9693
		c-0.0601-1.1935-0.0895-2.3723-0.0895-3.5361s0.0146-2.342,0.0446-3.5355c0.0295-1.0144,0.082-1.7975,0.1566-2.3499
		c0.0744-0.5518,0.2386-0.947,0.4924-1.1862c0.2531-0.2386,0.6562-0.3873,1.2086-0.4474c0.5518-0.0595,1.3349-0.0898,2.3495-0.0898
		c0.2981,0,0.6939,0.0383,1.1862,0.1123c0.4923,0.0747,0.9846,0.1196,1.4769,0.1342c0.4923,0.0152,0.9097-0.0819,1.2532-0.2908
		c0.3427-0.2088,0.5145-0.5967,0.5145-1.1637c0-0.1791-0.0301-0.3727-0.0895-0.5822c-0.0601-0.2082-0.2838-0.3424-0.6711-0.4025
		c-0.1496-0.0595-0.5673-0.0965-1.2532-0.1123c-0.6869-0.0146-1.4029-0.0219-2.1483-0.0219c-0.7461,0-1.3134,0.0152-1.7007,0.0443
		c-0.9555,0-1.6114-0.2009-1.9692-0.604c-0.3582-0.4031-0.5227-1.0811-0.4923-2.0367c0.0591-0.5961,0.1117-1.1783,0.1566-1.7453
		c0.0446-0.5664,0.1117-1.1334,0.2012-1.7009c0.0594-0.4171,0.0671-0.8122,0.0225-1.1856
		c-0.0449-0.3733-0.3512-0.6046-0.9176-0.6938c-0.5369-0.0898-0.94,0.0297-1.2083,0.3582
		c-0.2686,0.3284-0.4477,0.7461-0.5372,1.2529c-0.0895,0.6866-0.1791,1.3804-0.2683,2.081
		c-0.0895,0.7017-0.1196,1.4102-0.0895,2.1259c0.0592,1.015-0.0826,1.6718-0.4252,1.9693
		c-0.3433,0.2987-1.0226,0.4328-2.0364,0.4031c-0.7463-0.0291-1.5374-0.0516-2.3723-0.0674
		c-0.8356-0.0146-1.6111,0.0079-2.3271,0.0674c-0.2392,0.0297-0.4777,0.142-0.7163,0.3357
		c-0.2392,0.1943-0.3578,0.4407-0.3578,0.7382c0,0.5676,0.0965,0.8808,0.2908,0.9403c0.1937,0.0601,0.5743,0.0747,1.1412,0.0443
		c0.149,0,0.3281,0.0079,0.5372,0.0225c0.2083,0.0158,0.4174,0.0225,0.6265,0.0225c0.5964,0,1.2007,0.0079,1.8127,0.0225
		c0.6113,0.0152,1.2153,0.0079,1.8126-0.0225c1.1036-0.0291,1.6115,0.4923,1.5219,1.5668c-0.0301,0.4771-0.038,0.9476-0.0225,1.4096
		C871.3004,189.5293,871.3083,189.9991,871.3083,190.4763z"/>
</g>
<path class="st1" d="M977.1911,159.8248c2.1686,47.0145,89.461,111.3574,135.2503,99.671
	c55.5608-14.1803,85.9042-41.1103,94.1509-63.7421c11.5757-31.7677-12.3574-117.2066-43.3458-144.0482
	c-31.6067-27.3772-123.5577-21.3146-123.5577-21.3146S970.9881,25.3467,977.1911,159.8248z"/>
<circle class="st1" cx="1093.1774" cy="145.3542" r="87.308"/>
<g>
	<path d="M1079.5328,166.7995c0.9546,0.0601,1.9917,0.2616,3.1106,0.6046c1.119,0.343,2.2302,0.8578,3.3345,1.5437
		c1.0138,0.6271,1.8497,1.4175,2.5062,2.3723c0.6559,0.9555,1.1782,1.9547,1.5664,2.9988c0.2086,0.5075,0.2462,1.0514,0.1121,1.6336
		c-0.1345,0.5816-0.4854,1.0223-1.0518,1.3203c-0.5078,0.2987-1.0226,0.3733-1.5443,0.2234
		c-0.5223-0.1487-0.9476-0.5215-1.2754-1.1188c-0.5673-1.0739-1.1492-1.9917-1.7456-2.7523
		c-0.5973-0.7606-1.3579-1.3349-2.2825-1.7234c-0.9252-0.3873-2.1638-0.5215-3.7148-0.4025
		c-0.6869,0.0298-1.3804,0.2616-2.0813,0.6939c-0.7014,0.4328-1.3054,0.9622-1.8126,1.5887
		c-0.5074,0.6265-0.821,1.2979-0.9397,2.0142c-0.0601,0.2683-0.0525,0.5591,0.0221,0.8723
		c0.0745,0.3138,0.1715,0.6198,0.2911,0.9179c0.5068,1.1042,1.2153,2.036,2.1259,2.7973c0.91,0.7606,1.9167,1.4254,3.021,1.9917
		c0.8951,0.4474,1.7975,0.8723,2.7078,1.2754c0.9099,0.4031,1.8126,0.828,2.7078,1.2754c1.85,0.9846,3.3345,2.2157,4.4532,3.6927
		c1.1191,1.4769,1.7231,3.3193,1.8127,5.5272c0.0594,1.3732-0.2683,2.6783-0.9847,3.9161
		c-0.7159,1.2378-1.6636,2.2752-2.8418,3.1105c-1.1792,0.8353-2.4695,1.313-3.8715,1.4326
		c-2.0889,0.2082-4.0436,0.2161-5.8633,0.0225c-1.8202-0.1949-3.5358-0.828-5.1469-1.9025
		c-0.2986-0.1791-0.7384-0.5372-1.3203-1.0739c-0.5818-0.5372-1.1492-1.1783-1.7009-1.925
		c-0.5525-0.7455-0.9397-1.5437-1.1635-2.3942c-0.224-0.8505-0.142-1.6785,0.2462-2.484c0.3872-0.7163,0.8796-1.1558,1.4769-1.3203
		c0.5964-0.1633,1.1482,0.0528,1.656,0.6489c0.4174,0.4778,0.8872,1.0296,1.4095,1.656c0.5219,0.6265,1.0071,1.1491,1.4548,1.5668
		c1.2229,1.1935,2.5803,1.9323,4.0728,2.2151c1.4918,0.2841,3.0282,0.366,4.6099,0.2465c0.686-0.0595,1.2533-0.3357,1.7007-0.828
		c0.4476-0.4923,0.7163-1.0666,0.8058-1.7234c0.2383-1.2232,0.0966-2.3116-0.4252-3.2671
		c-0.5223-0.9543-1.3358-1.7301-2.4391-2.3274c-1.4924-0.8651-2.9919-1.7228-4.4983-2.5733
		c-1.507-0.8505-2.9763-1.7525-4.4084-2.7081c-1.4323-0.9543-2.5365-2.2151-3.312-3.7819
		c-0.7761-1.5662-1.2684-3.1846-1.4769-4.8558c-0.1497-1.4618,0.0741-2.7372,0.6714-3.8268
		c0.5964-1.0891,1.4169-2.0512,2.4615-2.8865c0.9246-0.7461,1.9763-1.3355,3.1555-1.7683
		C1076.3027,166.8821,1077.7719,166.7103,1079.5328,166.7995z M1080.5175,201.8439h0.6714
		c1.7601-0.1196,3.3342-0.4771,4.7217-1.0739c1.3877-0.5973,2.484-1.7307,3.2896-3.4013c0.4478-0.9245,0.6638-1.962,0.6493-3.1105
		c-0.0155-1.1485-0.254-2.2831-0.7163-3.4019c-0.4629-1.1188-1.1567-2.0955-2.0809-2.9314
		c-1.522-1.4023-3.2827-2.4762-5.2814-3.2222c-1.5519-0.5967-3.0065-1.3501-4.3638-2.2607
		c-1.3583-0.9094-2.5736-2.0063-3.6478-3.2896c-0.776-0.9846-1.1567-2.0063-1.1412-3.0656
		c0.0146-1.0587,0.3503-2.0367,1.0071-2.9314c0.656-0.8954,1.5216-1.5668,2.5958-2.0142c1.4323-0.5967,2.7001-0.8651,3.8043-0.8056
		c1.1036,0.0601,2.0513,0.306,2.8419,0.7382c0.7904,0.4334,1.4469,0.933,1.9692,1.4994c0.5219,0.5676,0.9025,1.0447,1.1416,1.4326
		c0.2383,0.3575,0.4623,0.7157,0.6711,1.0739c0.2085,0.3582,0.4476,0.7018,0.7163,1.0296c0.0895,0.1196,0.2461,0.2088,0.4698,0.2683
		c0.2236,0.0601,0.3951,0.0747,0.5148,0.0449c0.149-0.0898,0.2977-0.2307,0.4474-0.4255c0.149-0.1936,0.224-0.38,0.224-0.5591
		c0.0292-0.2082,0-0.4255-0.0896-0.6489c-0.0895-0.224-0.1644-0.4401-0.224-0.6489c-0.3578-1.4023-1.1118-2.566-2.26-3.4911
		c-1.1492-0.9245-2.4916-1.6111-4.0281-2.0585c-1.537-0.448-3.0735-0.6271-4.61-0.5372c-1.537,0.0892-2.8867,0.4778-4.0505,1.1637
		c-0.9551,0.567-1.7677,1.3276-2.4391,2.2825c-0.6714,0.9549-1.119,1.999-1.3428,3.133c-0.2238,1.134-0.1421,2.2825,0.2462,3.4462
		c0.5372,1.6415,1.3798,2.9915,2.5286,4.0502c1.1486,1.0599,2.4094,2.0221,3.782,2.8871c1.1337,0.7157,2.3049,1.3804,3.5135,1.9917
		c1.2084,0.6119,2.4091,1.2457,3.6029,1.9019c1.2231,0.6568,2.0812,1.5146,2.5736,2.5733c0.4923,1.0599,0.7084,2.2607,0.6489,3.6028
		c-0.0602,0.9258-0.4183,1.7835-1.0742,2.5739c-0.6569,0.791-1.4475,1.2305-2.3721,1.3203c-2.1189,0.1791-4.1176,0-5.9973-0.5372
		c-1.88-0.5372-3.5212-1.7155-4.9235-3.5355c-0.418-0.5967-0.8951-1.1194-1.432-1.5668c-0.1196-0.1487-0.3132-0.2908-0.5819-0.4249
		c-0.2686-0.1348-0.5078-0.1718-0.7161-0.1123c-0.1195,0.0898-0.2686,0.2543-0.4476,0.4923
		c-0.1791,0.2392-0.2687,0.5822-0.2687,1.0296c0,0.4778,0.082,0.9179,0.2462,1.3203c0.1636,0.4031,0.3651,0.8134,0.6042,1.2311
		c0.8057,1.2529,1.7827,2.2151,2.9315,2.8865c1.1482,0.6714,2.3868,1.1558,3.7148,1.4545
		C1077.8838,201.5155,1079.2041,201.7243,1080.5175,201.8439z"/>
	<path d="M1107.9974,176.6465c-0.1196,1.7307-0.4629,3.3114-1.0293,4.7441c-0.5673,1.432-1.2533,2.8046-2.0588,4.1176
		c-0.3286,0.5366-0.5372,0.9397-0.6265,1.208c-0.0895,0.2689-0.0303,0.4856,0.1788,0.6489c0.2085,0.1645,0.5967,0.411,1.1637,0.7388
		c1.6707,0.9555,2.8344,2.3723,3.4911,4.2518c0.149,0.4183,0.3132,0.8432,0.4923,1.2754c0.1791,0.4328,0.3873,0.8584,0.6266,1.276
		c0.4768,0.7461,0.9771,1.2238,1.4994,1.432c0.5217,0.2088,1.2007,0.2088,2.0363,0c0.5374-0.1493,1.0142-0.1791,1.4324-0.0898
		c0.4174,0.0898,0.761,0.4031,1.0293,0.9403c0.1791,0.3879,0.1044,0.8432-0.2238,1.3647c-0.3287,0.5221-0.7761,0.8729-1.3428,1.052
		c-0.9252,0.3582-1.8649,0.5518-2.8195,0.5815c-0.9554,0.0298-1.91-0.1785-2.8646-0.6265c-0.2983-0.1493-0.5746-0.2313-0.828-0.2459
		c-0.2538-0.0158-0.5446,0.1408-0.8727,0.4699c-1.1937,1.3428-2.5365,2.2151-4.0281,2.6182
		c-1.4924,0.4031-3.088,0.3648-4.7889-0.1117c-1.4622-0.4183-2.6338-1.1267-3.5133-2.1259
		c-0.8806-1.0004-1.4254-2.2449-1.6337-3.7376c-0.2091-1.6706-0.0378-3.2295,0.5148-4.6767
		c0.5515-1.4472,1.5587-2.6334,3.021-3.5585c1.8497-1.1334,3.2448-2.5508,4.1847-4.2518c0.9401-1.7003,1.7076-3.5057,2.3051-5.4155
		c0.149-0.5069,0.186-0.9695,0.1119-1.3871c-0.075-0.4176-0.321-0.7758-0.7384-1.0745c-0.4478-0.3278-0.9106-0.4698-1.3878-0.4249
		c-0.4774,0.0443-0.9102,0.2458-1.2979,0.604c-0.3882,0.3582-0.7314,0.754-1.0292,1.1862
		c-0.2987,0.4328-0.5974,0.8723-0.8951,1.3203c-0.2687,0.4474-0.5448,0.8578-0.828,1.2305
		c-0.2841,0.3733-0.7539,0.4699-1.4099,0.2914c-0.5973-0.2088-0.9926-0.53-1.1862-0.9628
		c-0.1942-0.4322-0.2762-0.9318-0.2461-1.4994c0.0594-1.4017,0.6188-2.6996,1.6785-3.8936c1.0587-1.1929,2.3644-1.9984,3.916-2.4167
		c1.4618-0.3873,2.8644-0.4176,4.2072-0.0898c1.3428,0.329,2.387,1.1042,3.1331,2.3274c0.2686,0.3885,0.4546,0.8438,0.5593,1.3652
		C1108.0344,175.6242,1108.0569,176.139,1107.9974,176.6465z M1094.3467,195.2647c-0.0601,1.9401,0.4176,3.4535,1.4324,4.5432
		c1.014,1.0884,2.6552,1.8272,4.9231,2.2151c1.4023,0.1791,2.5958-0.0376,3.5807-0.6489c0.9846-0.6119,1.8943-1.4842,2.73-2.6182
		c0.3281-0.4474,0.6414-0.6939,0.9399-0.7382c0.2977-0.0449,0.6714,0.1269,1.1188,0.5148c0.6863,0.5664,1.4618,0.9021,2.3275,1.0065
		c0.865,0.1044,1.7301,0.037,2.5957-0.2009c0.2385-0.0601,0.4923-0.224,0.761-0.4923c0.2686-0.2689,0.3582-0.5518,0.2686-0.8505
		c-0.0601-0.2386-0.2616-0.4255-0.6042-0.5597c-0.3434-0.1342-0.7686-0.1117-1.2755,0.0674
		c-0.8356,0.0892-1.537-0.0146-2.1036-0.3132c-0.567-0.2981-1.0293-0.8353-1.3875-1.6117
		c-0.2091-0.4171-0.3958-0.8499-0.5594-1.2979c-0.1642-0.4474-0.3511-0.8948-0.5593-1.3422
		c-0.4183-0.9549-0.9622-1.8127-1.6335-2.5739c-0.6714-0.7606-1.5295-1.3495-2.5736-1.7677
		c-0.7761-0.3278-1.1937-0.6411-1.2533-0.9397c-0.0601-0.2981,0.1045-0.8207,0.4923-1.5668
		c0.5968-1.2529,1.2008-2.5132,1.8126-3.7819c0.6113-1.2675,1.0812-2.5581,1.4099-3.8712c0.4177-1.6409,0.3281-3.0358-0.2686-4.185
		c-0.597-1.1479-1.8348-1.8272-3.7148-2.0367c-0.9552-0.0892-1.8949,0-2.8195,0.2689c-0.9252,0.2683-1.7756,0.7606-2.5511,1.477
		c-1.1937,1.1042-1.8651,2.4768-2.0142,4.1176c0,0.1791,0.037,0.4025,0.1119,0.6714c0.0741,0.2683,0.2162,0.4328,0.4253,0.4923
		c0.2081,0.0601,0.4097,0,0.604-0.1791c0.194-0.1791,0.3506-0.3278,0.4701-0.4474c0.2683-0.4176,0.507-0.8353,0.7161-1.2536
		c0.2085-0.4176,0.4478-0.8201,0.7161-1.208c0.5071-0.7758,1.1561-1.313,1.947-1.6117c0.7902-0.2975,1.5286-0.2975,2.2155,0
		c0.7455,0.2987,1.2754,0.791,1.5886,1.4769c0.3136,0.6872,0.3506,1.537,0.1121,2.5514c-0.4778,2.0889-1.2162,4.0278-2.2155,5.8179
		c-1.0001,1.7908-2.4391,3.2678-4.3192,4.4315c-1.3724,0.8353-2.2755,1.8345-2.7076,2.9982
		C1094.6523,192.9822,1094.4061,194.1313,1094.3467,195.2647z M1106.834,194.504c0,0.9251-0.2765,1.8205-0.828,2.6856
		c-0.5527,0.8657-1.2687,1.5662-2.1483,2.1034c-0.8806,0.5372-1.7981,0.8201-2.7527,0.8505
		c-1.432,0.0291-2.6036-0.4183-3.5133-1.3428c-0.9105-0.9245-1.3805-2.1332-1.4099-3.6253c-0.03-0.9245,0.1791-1.7902,0.6265-2.5957
		c0.4478-0.8056,1.0366-1.4545,1.7681-1.9468c0.731-0.4923,1.514-0.7084,2.3496-0.6496c1.0742,0.0607,2.0511,0.2319,2.9318,0.5148
		c0.8796,0.2841,1.5956,0.7388,2.1483,1.3652C1106.5575,192.4899,1106.834,193.3707,1106.834,194.504z M1097.1664,195.0413
		c-0.03,1.0144,0.3281,1.9177,1.0742,2.7074c0.7455,0.791,1.5959,1.2007,2.5511,1.2311c0.865,0.0291,1.6785-0.1645,2.4391-0.5822
		c0.761-0.4171,1.3875-0.9689,1.8798-1.656c0.4923-0.686,0.7385-1.4169,0.7385-2.1927c0.0294-0.5967-0.1788-1.171-0.6266-1.7234
		c-0.4474-0.5518-1.0071-1.0071-1.6785-1.3647c-0.671-0.3582-1.3804-0.5372-2.1259-0.5372
		c-1.2239-0.0297-2.2375,0.343-3.0435,1.1188C1097.5692,192.8189,1097.1664,193.8181,1097.1664,195.0413z"/>
	<path d="M1125.3629,187.3433c-0.03,1.5213-0.0154,3.0365,0.0449,4.5426c0.0592,1.5067,0.0592,3.0061,0,4.4982
		c-0.03,0.9252-0.1119,1.7605-0.2461,2.5059c-0.1345,0.7455-0.3657,1.5668-0.6938,2.4616
		c-0.0896,0.2689-0.3063,0.5822-0.6489,0.9403c-0.3433,0.3582-0.7161,0.6781-1.1191,0.9622
		c-0.4027,0.2829-0.7537,0.4395-1.0518,0.4699c-0.3578,0.0291-0.776-0.105-1.2529-0.4031
		c-0.4777-0.2981-0.8358-0.6265-1.0741-0.9846c-0.2987-0.4177-0.5372-0.91-0.7163-1.477s-0.2683-1.1042-0.2683-1.6111
		c0.0291-2.7445,0.0815-5.5047,0.1566-8.2795c0.074-2.7754,0.1566-5.5648,0.2461-8.37c0.0592-1.5808,0.1266-3.1621,0.2013-4.7441
		c0.074-1.5808,0.1566-3.1773,0.2461-4.789c0.0896-0.9543,0.186-1.9165,0.2911-2.8865c0.1041-0.9695,0.2461-1.9316,0.4249-2.8871
		c0.1189-0.7752,0.4401-1.327,0.9624-1.656c0.5219-0.3278,1.2903-0.462,2.3051-0.4025c0.7755,0.0298,1.3273,0.2458,1.656,0.6489
		c0.3278,0.4031,0.5068,0.9622,0.5369,1.6785c0.0295,0.8353,0.0371,1.6712,0.0225,2.5065
		c-0.0154,0.8353-0.0225,1.6712-0.0225,2.5059c0,1.4029,0.0071,2.6631,0.0225,3.7819c0.0146,1.1194,0.0225,2.3432,0.0225,3.6702
		c0,1.3282,0,2.6334,0,3.9161C1125.4078,185.2247,1125.3925,186.3586,1125.3629,187.3433z M1124.0201,175.796
		c-0.03-1.0745-0.0446-2.0215-0.0446-2.8422c0-0.8201,0-1.656,0-2.5065c0-0.8505,0-1.5886,0-2.2151
		c0-0.5075-0.1051-0.9549-0.3132-1.3428c-0.2091-0.3873-0.5974-0.5221-1.1637-0.4031c-0.2687,0.0601-0.5525,0.2689-0.8506,0.6265
		c-0.2986,0.3582-0.4774,0.7018-0.5369,1.0296c-0.1791,0.6866-0.2841,1.395-0.3132,2.1259c-0.03,0.7315-0.0604,1.4545-0.0896,2.1708
		c-0.1195,2.1787-0.2316,4.3489-0.3357,6.5124c-0.105,2.1635-0.2015,4.3343-0.291,6.5118c-0.0896,2.3572-0.1719,4.715-0.2462,7.0715
		c-0.0746,2.3572-0.1417,4.715-0.2012,7.0715c0,0.3582,0.067,0.723,0.2012,1.0963c0.1345,0.3727,0.2911,0.7236,0.4702,1.052
		c0.4174,0.5967,0.8726,0.8875,1.3649,0.8729c0.4924-0.0158,0.8876-0.3515,1.1863-1.0071c0.4174-0.9252,0.7004-1.9177,0.8501-2.9764
		c0.149-1.0587,0.2386-2.0367,0.2687-2.9314c0.0294-0.8954,0.0446-1.5365,0.0446-1.925c0.149-3.133,0.157-6.1312,0.0225-8.9959
		C1123.9084,181.9272,1123.9006,178.929,1124.0201,175.796z"/>
	<path d="M1148.5468,196.7416c0.1791,1.2536-0.0378,2.3869-0.6489,3.4019c-0.6118,1.0138-1.4399,1.8418-2.484,2.4841
		c-1.0447,0.641-2.1414,1.0441-3.2896,1.208c-1.1492,0.1639-2.1709,0.0225-3.0659-0.4249c-0.6566-0.329-1.2609-0.7163-1.8127-1.1637
		c-0.5524-0.4474-0.858-0.9998-0.9175-1.656c-0.1196-1.6111-0.2313-3.3187-0.3357-5.1247c-0.1047-1.8048-0.1417-3.5282-0.1117-5.169
		c0.0294-0.9549,0.067-1.6409,0.1117-2.0591c0.0449-0.4176-0.0747-0.686-0.3579-0.8056c-0.2841-0.119-0.903-0.1791-1.8575-0.1791
		c-0.6265,0-1.2529,0-1.8798,0c-0.6265,0-1.2384-0.0146-1.8351-0.0449c-0.537-0.0595-1.0068-0.2009-1.4095-0.4249
		c-0.4031-0.224-0.6344-0.6338-0.6938-1.2311c-0.0602-0.5961,0.0294-1.1109,0.2686-1.5437c0.2383-0.4322,0.5964-0.7084,1.0742-0.828
		c0.6265-0.1493,1.2979-0.1864,2.0139-0.1117c0.7163,0.0747,1.3873,0.0971,2.0142,0.0668c1.1033-0.0595,1.8798-0.1342,2.3271-0.224
		c0.4476-0.0892,0.7233-0.3576,0.828-0.8056c0.1044-0.4474,0.1715-1.208,0.2015-2.2825c0.0294-1.1334,0.1936-2.2673,0.4923-3.4013
		c0.149-0.5967,0.4476-1.0138,0.8951-1.2529c0.4476-0.2386,0.9691-0.3284,1.5664-0.2689c0.656,0.0898,1.1036,0.3211,1.3428,0.6939
		c0.2383,0.3733,0.3428,0.8578,0.3132,1.4545v3.6253c0,0.8954,0.1342,1.4848,0.4028,1.7677
		c0.2687,0.2841,0.865,0.4255,1.7902,0.4255h3.9386c0.5967,0,1.089,0.1269,1.4769,0.38c0.3876,0.2544,0.5967,0.6939,0.6267,1.3203
		c0.0596,0.6872-0.0825,1.2687-0.4252,1.7459c-0.3433,0.4778-0.8435,0.7461-1.4994,0.8056
		c-0.8055,0.0298-1.6041,0.0376-2.3945,0.0225c-0.791-0.0146-1.5741-0.0516-2.3496-0.1123
		c-0.6267-0.0589-1.0896,0.0079-1.3875,0.2015c-0.2986,0.1943-0.4631,0.6344-0.4923,1.3203
		c-0.0601,1.4029-0.1945,2.8131-0.4027,4.2293c-0.2091,1.4181-0.1196,2.8276,0.2683,4.2299c0.119,0.3879,0.261,0.754,0.4252,1.0963
		c0.1637,0.3436,0.5149,0.5148,1.0518,0.5148c0.5072,0,0.8876-0.1487,1.1416-0.4474c0.2531-0.2981,0.4398-0.6562,0.5593-1.0745
		c0.0596-0.2386,0.1266-0.4765,0.2013-0.7157c0.0743-0.2386,0.1715-0.4626,0.291-0.6714c0.5964-0.9846,1.402-1.313,2.4167-0.9846
		C1147.89,195.0267,1148.4272,195.6975,1148.5468,196.7416z M1137.0444,190.4763c0.0592,1.2827,0.1117,2.4094,0.1566,3.3788
		c0.0446,0.9701,0.0966,1.962,0.1566,2.9764c0.0594,1.0144,0.1187,1.8794,0.1791,2.5957c0.1487,1.3719,0.865,2.3274,2.1483,2.8647
		c1.1635,0.4765,2.3196,0.5816,3.4684,0.3132c1.1486-0.2689,2.1407-0.828,2.9764-1.6785c0.835-0.8505,1.3428-1.8873,1.5219-3.1105
		c0.0895-0.5967,0.0446-1.0812-0.1345-1.4545c-0.1791-0.3727-0.5669-0.6192-1.1637-0.7388
		c-0.6265-0.1487-0.9998-0.0225-1.1188,0.3806c-0.1196,0.4025-0.2091,0.8134-0.2687,1.2305
		c-0.3878,1.6712-1.2832,2.5363-2.6852,2.5964c-0.6569,0-1.2014-0.224-1.6337-0.6714c-0.4327-0.448-0.679-1.1036-0.7384-1.9693
		c-0.0602-1.1935-0.0896-2.3723-0.0896-3.5361s0.0146-2.342,0.0447-3.5355c0.0294-1.0144,0.0819-1.7975,0.1566-2.3499
		c0.0743-0.5518,0.2385-0.947,0.4923-1.1862c0.2532-0.2386,0.6562-0.3873,1.2086-0.4474c0.5518-0.0595,1.335-0.0898,2.3496-0.0898
		c0.2981,0,0.6938,0.0383,1.1862,0.1123c0.4923,0.0747,0.9846,0.1196,1.4769,0.1342c0.4923,0.0152,0.9097-0.0819,1.2533-0.2908
		c0.3427-0.2088,0.5144-0.5967,0.5144-1.1637c0-0.1791-0.03-0.3727-0.0895-0.5822c-0.0601-0.2082-0.2838-0.3424-0.6711-0.4025
		c-0.1497-0.0595-0.5673-0.0965-1.2532-0.1123c-0.6869-0.0146-1.403-0.0219-2.1484-0.0219c-0.746,0-1.3134,0.0152-1.7006,0.0443
		c-0.9556,0-1.6115-0.2009-1.9694-0.604c-0.3582-0.4031-0.5226-1.0811-0.4923-2.0367c0.0592-0.5961,0.1117-1.1783,0.1566-1.7453
		c0.0447-0.5664,0.1117-1.1334,0.2013-1.7009c0.0594-0.4171,0.067-0.8122,0.0225-1.1856c-0.0449-0.3733-0.3512-0.6046-0.9176-0.6938
		c-0.5369-0.0898-0.9399,0.0297-1.2083,0.3582c-0.2687,0.3284-0.4478,0.7461-0.5372,1.2529
		c-0.0896,0.6866-0.1791,1.3804-0.2684,2.081c-0.0895,0.7017-0.1195,1.4102-0.0895,2.1259c0.0592,1.015-0.0825,1.6718-0.4253,1.9693
		c-0.3433,0.2987-1.0225,0.4328-2.0363,0.4031c-0.7465-0.0291-1.5374-0.0516-2.3724-0.0674
		c-0.8356-0.0146-1.6111,0.0079-2.327,0.0674c-0.2393,0.0297-0.4778,0.142-0.7163,0.3357
		c-0.2393,0.1943-0.3579,0.4407-0.3579,0.7382c0,0.5676,0.0966,0.8808,0.2908,0.9403c0.1936,0.0601,0.5742,0.0747,1.1412,0.0443
		c0.149,0,0.3281,0.0079,0.5372,0.0225c0.2083,0.0158,0.4174,0.0225,0.6265,0.0225c0.5964,0,1.2008,0.0079,1.8127,0.0225
		c0.6112,0.0152,1.2152,0.0079,1.8126-0.0225c1.1036-0.0291,1.6113,0.4923,1.5219,1.5668c-0.03,0.4771-0.038,0.9476-0.0225,1.4096
		C1137.0365,189.5293,1137.0444,189.9991,1137.0444,190.4763z"/>
</g>
<path class="st1" d="M1146.6466,436.246c-0.6141,13.3123-25.3312,31.5312-38.2966,28.2221
	c-15.7322-4.0152-24.324-11.6405-26.6591-18.0488c-3.2777-8.9951,3.499-33.1874,12.2736-40.7877
	c8.9495-7.7519,34.9857-6.0353,34.9857-6.0353S1148.403,398.1681,1146.6466,436.246z"/>
<path class="st1" d="M1099.9922,419.7001c-0.4485,0.5741-6.8693,11.6554-5.4508,23.3107"/>
<path class="st1" d="M1089.7727,430.6163c1.7135-6.1014,4.5645-16.7939,19.1381-21.9131c2.4139-0.848,10.3674-2.1693,13.7162,0.6939
	c3.188,2.7257,2.9536,8.3409-3.4071,14.6362c-8.3318,8.246-19.4137,11.2362-19.4137,11.2362s-3.9128,13.3636,12.5576,14.3377"/>
<ellipse transform="matrix(0.3117 -0.9502 0.9502 0.3117 371.4588 1374.6018)" class="st1" cx="1134.5569" cy="430.8991" rx="3.9308" ry="2.3684"/>
<ellipse transform="matrix(0.3117 -0.9502 0.9502 0.3117 347.3777 1357.3156)" class="st1" cx="1110.5845" cy="438.8781" rx="3.9308" ry="2.3684"/>
<line class="st1" x1="1130.9648" y1="410.2032" x2="1123.0459" y2="437.2161"/>
<path class="st1" d="M1131.1371,425.6639l-6.4108,7.1626c0,0,3.1936,3.0515,3.7024,3.2587"/>
<path class="st1" d="M1116.6653,430.36c-1.0048,6.8904,0.1434,9.2394,2.813,8.3791"/>
<path class="st1" d="M1121.8292,429.1219c-2.0056,10.6226-5.823,20.4989-10.7308,29.9261"/>
</svg>
