<?xml version="1.0" encoding="utf-8"?>
<!-- Generator: Adobe Illustrator 28.0.0, SVG Export Plug-In . SVG Version: 6.00 Build 0)  -->
<svg version="1.1" id="Layer_1" xmlns="http://www.w3.org/2000/svg" xmlns:xlink="http://www.w3.org/1999/xlink" x="0px" y="0px"
	 viewBox="0 0 1320 1135.8" style="enable-background:new 0 0 1320 1135.8;" xml:space="preserve">
<style type="text/css">
	.st0{fill:#FFFFFF;stroke:#000000;stroke-miterlimit:10;}
	.st1{fill:#FFFFFF;}
	.st2{fill:none;stroke:#231F20;stroke-miterlimit:10;}
	.st3{fill:none;stroke:#231F20;stroke-width:1;stroke-miterlimit:10.0006;}
</style>
<text transform="matrix(1 0 0 1 304.0054 -283.8423)" style="font-family:'ArialMT'; font-size:12px;">X</text>
<rect x="17.5" y="399.3" class="st0" width="1224" height="324"/>
<g>
	<path d="M158.7,685.4c0,0-77.8-61.1-83.5-105.7c-5.5-43.7,36.6-129.1,68.7-146.2c22.8-12.2,66.4-11.9,121,16.6
		c45,23.5,68.6,137.5,36.6,176.7C210,738.8,158.7,685.4,158.7,685.4z"/>
	<circle class="st1" cx="195.5" cy="560.2" r="101.5"/>
	<g>
		<path class="st2" d="M257,600c-0.6,13.3-25.3,31.5-38.3,28.2c-15.7-4-24.3-11.6-26.7-18c-3.3-9,3.5-33.2,12.3-40.8
			c8.9-7.8,35-6,35-6S258.7,561.9,257,600z"/>
		<path class="st2" d="M210.3,583.4c-0.4,0.6-6.9,11.7-5.5,23.3"/>
		<path class="st2" d="M200.1,594.4c1.7-6.1,4.6-16.8,19.1-21.9c2.4-0.8,10.4-2.2,13.7,0.7c3.2,2.7,3,8.3-3.4,14.6
			c-8.3,8.2-19.4,11.2-19.4,11.2s-3.9,13.4,12.6,14.3"/>
		
			<ellipse transform="matrix(0.3117 -0.9502 0.9502 0.3117 -396.4149 641.9568)" class="st3" cx="244.8922" cy="594.5969" rx="3.9001" ry="2.4001"/>
		
			<ellipse transform="matrix(0.3117 -0.9502 0.9502 0.3117 -420.5219 624.7048)" class="st3" cx="220.9308" cy="602.6104" rx="3.9001" ry="2.4001"/>
		<line class="st2" x1="241.3" y1="574" x2="233.4" y2="601"/>
		<path class="st2" d="M241.4,589.4l-6.4,7.2c0,0,3.2,3.1,3.7,3.3"/>
		<path class="st2" d="M229.8,602.5c-2.7,0.9-3.8-1.5-2.8-8.4 M221.4,622.8c4.9-9.4,8.7-19.3,10.7-29.9"/>
	</g>
</g>
<g>
	<path d="M446.3,685.4c0,0-77.8-61.1-83.5-105.7c-5.5-43.7,36.6-129.1,68.7-146.2c22.8-12.2,66.4-11.9,121,16.6
		c45,23.5,68.6,137.5,36.6,176.7C497.5,738.8,446.3,685.4,446.3,685.4z"/>
	<circle class="st1" cx="483.1" cy="560.2" r="101.5"/>
	<g>
		<path class="st2" d="M544.5,600c-0.6,13.3-25.3,31.5-38.3,28.2c-15.7-4-24.3-11.6-26.7-18c-3.3-9,3.5-33.2,12.3-40.8
			c8.9-7.8,35-6,35-6S546.3,561.9,544.5,600z"/>
		<path class="st2" d="M497.9,583.4c-0.4,0.6-6.9,11.7-5.5,23.3"/>
		<path class="st2" d="M487.7,594.4c1.7-6.1,4.6-16.8,19.1-21.9c2.4-0.8,10.4-2.2,13.7,0.7c3.2,2.7,3,8.3-3.4,14.6
			c-8.3,8.2-19.4,11.2-19.4,11.2s-3.9,13.4,12.6,14.3"/>
		
			<ellipse transform="matrix(0.3117 -0.9502 0.9502 0.3117 -198.4364 915.1997)" class="st3" cx="532.4827" cy="594.5672" rx="3.9001" ry="2.4001"/>
		
			<ellipse transform="matrix(0.3117 -0.9502 0.9502 0.3117 -222.5439 897.9464)" class="st3" cx="508.5214" cy="602.5806" rx="3.9001" ry="2.4001"/>
		<line class="st2" x1="528.8" y1="574" x2="520.9" y2="601"/>
		<path class="st2" d="M529,589.4l-6.4,7.2c0,0,3.2,3.1,3.7,3.3"/>
		<path class="st2" d="M517.4,602.5c-2.7,0.9-3.8-1.5-2.8-8.4 M509,622.8c4.9-9.4,8.7-19.3,10.7-29.9"/>
	</g>
</g>
<g>
	<path d="M745.3,685.4c0,0-77.8-61.1-83.5-105.7c-5.5-43.7,36.6-129.1,68.7-146.2c22.8-12.2,66.4-11.9,121,16.6
		c45,23.5,68.6,137.5,36.6,176.7C796.6,738.8,745.3,685.4,745.3,685.4z"/>
	<circle class="st1" cx="782.2" cy="560.2" r="101.5"/>
	<g>
		<path class="st2" d="M843.6,600c-0.6,13.3-25.3,31.5-38.3,28.2c-15.7-4-24.3-11.6-26.7-18c-3.3-9,3.5-33.2,12.3-40.8
			c8.9-7.8,35-6,35-6S845.4,561.9,843.6,600z"/>
		<path class="st2" d="M796.9,583.4c-0.4,0.6-6.9,11.7-5.5,23.3"/>
		<path class="st2" d="M786.7,594.4c1.7-6.1,4.6-16.8,19.1-21.9c2.4-0.8,10.4-2.2,13.7,0.7c3.2,2.7,3,8.3-3.4,14.6
			c-8.3,8.2-19.4,11.2-19.4,11.2s-3.9,13.4,12.6,14.3"/>
		
			<ellipse transform="matrix(0.3117 -0.9502 0.9502 0.3117 7.3466 1199.4044)" class="st3" cx="831.5416" cy="594.6313" rx="3.9001" ry="2.4001"/>
		
			<ellipse transform="matrix(0.3117 -0.9502 0.9502 0.3117 -16.6489 1182.1167)" class="st3" cx="807.6113" cy="602.55" rx="3.9001" ry="2.4001"/>
		<line class="st2" x1="827.9" y1="574" x2="820" y2="601"/>
		<path class="st2" d="M828.1,589.4l-6.4,7.2c0,0,3.2,3.1,3.7,3.3"/>
		<path class="st2" d="M816.4,602.5c-2.7,0.9-3.8-1.5-2.8-8.4 M808.1,622.8c4.9-9.4,8.7-19.3,10.7-29.9"/>
	</g>
</g>
<g>
	<path d="M1038.4,685.4c0,0-77.8-61.1-83.5-105.7c-5.5-43.7,36.6-129.1,68.7-146.2c22.8-12.2,66.4-11.9,121.0001,16.6
		c45,23.5,68.6,137.5,36.6,176.7C1089.7,738.8,1038.4,685.4,1038.4,685.4z"/>
	<circle class="st1" cx="1075.2" cy="560.2" r="101.5"/>
	<g>
		<path class="st2" d="M1136.6,600c-0.6,13.3-25.3,31.5-38.3,28.2c-15.7-4-24.3-11.6-26.7-18c-3.3-9,3.5-33.2,12.3-40.8
			c8.9-7.8,35-6,35-6S1138.4,561.9,1136.6,600z"/>
		<path class="st2" d="M1090,583.4c-0.4,0.6-6.9,11.7-5.5,23.3"/>
		<path class="st2" d="M1079.8,594.4c1.7-6.1,4.6-16.8,19.1-21.9c2.4-0.8,10.4-2.2,13.7,0.7c3.2,2.7,3,8.3-3.4,14.6
			c-8.3,8.2-19.4,11.2-19.4,11.2s-3.9,13.4,12.6,14.3"/>
		
			<ellipse transform="matrix(0.3117 -0.9502 0.9502 0.3117 209.1299 1477.8147)" class="st3" cx="1124.6012" cy="594.559" rx="3.9001" ry="2.4001"/>
		
			<ellipse transform="matrix(0.3117 -0.9502 0.9502 0.3117 185.023 1460.5627)" class="st3" cx="1100.6398" cy="602.5724" rx="3.9001" ry="2.4001"/>
		<line class="st2" x1="1121" y1="574" x2="1113" y2="601"/>
		<path class="st2" d="M1121.1,589.4l-6.4,7.2c0,0,3.2,3.1,3.7,3.3"/>
		<path class="st2" d="M1109.5,602.5c-2.7,0.9-3.8-1.5-2.8-8.4 M1101.1,622.8c4.9-9.4,8.7-19.3,10.7-29.9"/>
	</g>
</g>
</svg>
